<svg width="14" height="14" viewBox="0 0 14 14" fill="none" xmlns="http://www.w3.org/2000/svg">
<path d="M6.08464 0.536216C9.69936 0.210316 12.0901 2.12625 13.0384 4.57919C13.9329 6.893 13.5471 9.71408 11.6901 11.4998H12.6667C12.9428 11.4998 13.1667 11.7236 13.1667 11.9998C13.1667 12.2759 12.9428 12.4998 12.6667 12.4998H10.3333C10.0572 12.4998 9.83334 12.2759 9.83334 11.9998V9.66642C9.83334 9.39028 10.0572 9.16642 10.3333 9.16642C10.6095 9.16642 10.8333 9.39028 10.8333 9.66642V10.9294C12.4904 9.48148 12.9073 7.01419 12.1055 4.93986C11.3111 2.88501 9.32564 1.24759 6.17449 1.53166C5.89957 1.55645 5.65649 1.35404 5.63152 1.07918C5.60671 0.804159 5.80962 0.56102 6.08464 0.536216ZM3.16667 3.99976V3.07007C1.50343 4.51661 1.09272 6.9698 1.89909 9.03752C2.69761 11.0849 4.68556 12.7238 7.82357 12.4744C8.09884 12.4525 8.34009 12.6581 8.36199 12.9334C8.38387 13.2086 8.17827 13.4492 7.903 13.4711C4.30762 13.757 1.91988 11.8431 0.967453 9.40145C0.067076 7.09291 0.44681 4.28389 2.3099 2.49976H1.33334C1.0572 2.49976 0.833339 2.2759 0.833339 1.99976C0.833339 1.72362 1.0572 1.49976 1.33334 1.49976H3.66667C3.94281 1.49976 4.16667 1.72362 4.16667 1.99976V3.99976C4.16667 4.2759 3.94281 4.49976 3.66667 4.49976C3.39053 4.49976 3.16667 4.2759 3.16667 3.99976Z" fill="#DBDBDB"/>
</svg>
