<svg width="14" height="16" viewBox="0 0 14 16" fill="none" xmlns="http://www.w3.org/2000/svg">
<path fill-rule="evenodd" clip-rule="evenodd" d="M1.49984 6.33398C1.49984 3.29642 3.96227 0.833984 6.99984 0.833984C10.0374 0.833984 12.4998 3.29642 12.4998 6.33398V7.7817C12.4998 8.00271 12.5876 8.21468 12.7439 8.37096L13.6867 9.31376C13.7805 9.40753 13.8332 9.53471 13.8332 9.66732V10.5886C13.8332 11.0257 13.5871 11.4438 13.1666 11.633C12.0728 12.1253 10.0159 12.834 6.99984 12.834C3.98382 12.834 1.92684 12.1253 0.833047 11.633C0.41255 11.4438 0.166504 11.0257 0.166504 10.5886V9.66732C0.166504 9.53471 0.219182 9.40753 0.312951 9.31376L1.25576 8.37096C1.41204 8.21468 1.49984 8.00271 1.49984 7.7817V6.33398Z" fill="#4DF2BE"/>
<path d="M9.4546 13.792C9.54926 13.9979 9.49404 14.2492 9.30761 14.3947C8.68692 14.879 7.87714 15.1664 7.00002 15.1664C6.1229 15.1664 5.31314 14.879 4.69244 14.3947C4.506 14.2492 4.45078 13.9979 4.54544 13.792C4.57546 13.7267 4.64897 13.6992 4.72018 13.709C5.08159 13.7585 6.22122 13.9057 7.00002 13.9057C7.77883 13.9057 8.91845 13.7585 9.27986 13.7089C9.35107 13.6992 9.42457 13.7267 9.4546 13.792Z" fill="#4DF2BE"/>
</svg>
