<svg width="18" height="18" viewBox="0 0 18 18" fill="none" xmlns="http://www.w3.org/2000/svg">
<path d="M15.458 0.666992C16.7236 0.666992 17.7498 1.69251 17.75 2.95801V15.458C17.75 16.7237 16.7237 17.75 15.458 17.75H2.95801C1.6925 17.7498 0.666992 16.7236 0.666992 15.458V2.95801C0.667168 1.69261 1.69261 0.667168 2.95801 0.666992H15.458ZM5.04199 9.41699C4.69681 9.41699 4.41699 9.69681 4.41699 10.042V13.375C4.41699 13.7202 4.69681 14 5.04199 14C5.38702 13.9998 5.66699 13.7201 5.66699 13.375V10.042C5.66699 9.69692 5.38702 9.41717 5.04199 9.41699ZM9.20801 4.41699C8.86298 4.41717 8.58301 4.69692 8.58301 5.04199V13.375C8.58301 13.7201 8.86298 13.9998 9.20801 14C9.55319 14 9.83301 13.7202 9.83301 13.375V5.04199C9.83301 4.69681 9.55319 4.41699 9.20801 4.41699ZM13.375 7.75C13.0298 7.75 12.75 8.02982 12.75 8.375V13.375C12.75 13.7202 13.0298 14 13.375 14C13.7202 14 14 13.7202 14 13.375V8.375C14 8.02982 13.7202 7.75 13.375 7.75Z" fill="#8F8F8F"/>
</svg>
