<svg width="4" height="14" viewBox="0 0 4 14" fill="none" xmlns="http://www.w3.org/2000/svg">
<path fill-rule="evenodd" clip-rule="evenodd" d="M1.98252 0.333009C1.98839 0.33301 1.99428 0.33301 2.00016 0.33301C2.00605 0.33301 2.01194 0.33301 2.01781 0.333009C2.15784 0.332995 2.29426 0.332981 2.41032 0.3409C2.53723 0.349559 2.68771 0.369875 2.84374 0.434504C3.17045 0.569829 3.43001 0.829395 3.56534 1.1561C3.62997 1.31213 3.65028 1.46261 3.65894 1.58953C3.66686 1.70558 3.66685 1.842 3.66683 1.98202C3.66683 1.9879 3.66683 1.99379 3.66683 1.99968C3.66683 2.00557 3.66683 2.01145 3.66683 2.01733C3.66685 2.15736 3.66686 2.29377 3.65894 2.40983C3.65028 2.53674 3.62997 2.68723 3.56534 2.84325C3.43001 3.16996 3.17045 3.42952 2.84374 3.56485C2.68771 3.62948 2.53723 3.64979 2.41032 3.65845C2.29426 3.66637 2.15785 3.66636 2.01782 3.66634C2.01194 3.66634 2.00605 3.66634 2.00016 3.66634C1.99428 3.66634 1.98839 3.66634 1.98251 3.66634C1.84248 3.66636 1.70607 3.66637 1.59001 3.65845C1.4631 3.64979 1.31262 3.62948 1.15659 3.56485C0.829883 3.42952 0.570318 3.16996 0.434992 2.84325C0.370363 2.68723 0.350047 2.53674 0.341388 2.40983C0.33347 2.29377 0.333483 2.15736 0.333497 2.01733C0.333498 2.01145 0.333498 2.00557 0.333498 1.99968C0.333498 1.99379 0.333498 1.9879 0.333497 1.98203C0.333483 1.842 0.33347 1.70558 0.341388 1.58953C0.350047 1.46261 0.370363 1.31213 0.434992 1.1561C0.570318 0.829395 0.829883 0.569829 1.15659 0.434504C1.31262 0.369875 1.4631 0.349559 1.59001 0.3409C1.70607 0.332981 1.84249 0.332995 1.98252 0.333009ZM1.67225 1.67176C1.67204 1.67442 1.67183 1.67726 1.67163 1.68029C1.66719 1.7453 1.66683 1.83524 1.66683 1.99968C1.66683 2.16411 1.66719 2.25405 1.67163 2.31907C1.67183 2.32209 1.67204 2.32493 1.67225 2.32759C1.67491 2.3278 1.67775 2.32801 1.68078 2.32821C1.74579 2.33265 1.83573 2.33301 2.00016 2.33301C2.1646 2.33301 2.25454 2.33265 2.31955 2.32821C2.32258 2.32801 2.32542 2.3278 2.32808 2.32759C2.32829 2.32493 2.3285 2.32209 2.3287 2.31907C2.33314 2.25405 2.3335 2.16411 2.3335 1.99968C2.3335 1.83524 2.33314 1.7453 2.3287 1.68029C2.3285 1.67726 2.32829 1.67442 2.32808 1.67176C2.32542 1.67156 2.32258 1.67135 2.31955 1.67114C2.25454 1.6667 2.1646 1.66634 2.00016 1.66634C1.83573 1.66634 1.74579 1.6667 1.68078 1.67114C1.67775 1.67135 1.67491 1.67156 1.67225 1.67176Z" fill="white"/>
<path fill-rule="evenodd" clip-rule="evenodd" d="M1.98252 5.33301C1.98839 5.33301 1.99428 5.33301 2.00016 5.33301C2.00605 5.33301 2.01194 5.33301 2.01781 5.33301C2.15784 5.33299 2.29426 5.33298 2.41032 5.3409C2.53723 5.34956 2.68771 5.36987 2.84374 5.4345C3.17045 5.56983 3.43001 5.82939 3.56534 6.1561C3.62997 6.31213 3.65028 6.46261 3.65894 6.58953C3.66686 6.70558 3.66685 6.842 3.66683 6.98202C3.66683 6.9879 3.66683 6.99379 3.66683 6.99968C3.66683 7.00557 3.66683 7.01145 3.66683 7.01733C3.66685 7.15736 3.66686 7.29377 3.65894 7.40983C3.65028 7.53674 3.62997 7.68723 3.56534 7.84325C3.43001 8.16996 3.17045 8.42952 2.84374 8.56485C2.68771 8.62948 2.53723 8.64979 2.41032 8.65845C2.29426 8.66637 2.15785 8.66636 2.01782 8.66634C2.01194 8.66634 2.00605 8.66634 2.00016 8.66634C1.99428 8.66634 1.98839 8.66634 1.98251 8.66634C1.84248 8.66636 1.70607 8.66637 1.59001 8.65845C1.4631 8.64979 1.31262 8.62948 1.15659 8.56485C0.829883 8.42952 0.570318 8.16996 0.434992 7.84325C0.370363 7.68723 0.350047 7.53674 0.341388 7.40983C0.33347 7.29377 0.333483 7.15736 0.333497 7.01733C0.333498 7.01145 0.333498 7.00557 0.333498 6.99968C0.333498 6.99379 0.333498 6.9879 0.333497 6.98203C0.333483 6.842 0.33347 6.70558 0.341388 6.58953C0.350047 6.46261 0.370363 6.31213 0.434992 6.1561C0.570318 5.82939 0.829883 5.56983 1.15659 5.4345C1.31262 5.36987 1.4631 5.34956 1.59001 5.3409C1.70607 5.33298 1.84249 5.33299 1.98252 5.33301ZM1.67225 6.67176C1.67204 6.67442 1.67183 6.67726 1.67163 6.68029C1.66719 6.7453 1.66683 6.83524 1.66683 6.99968C1.66683 7.16411 1.66719 7.25405 1.67163 7.31907C1.67183 7.32209 1.67204 7.32493 1.67225 7.32759C1.67491 7.3278 1.67775 7.32801 1.68078 7.32821C1.74579 7.33265 1.83573 7.33301 2.00016 7.33301C2.1646 7.33301 2.25454 7.33265 2.31955 7.32821C2.32258 7.32801 2.32542 7.3278 2.32808 7.32759C2.32829 7.32493 2.3285 7.32209 2.3287 7.31907C2.33314 7.25405 2.3335 7.16411 2.3335 6.99968C2.3335 6.83524 2.33314 6.7453 2.3287 6.68029C2.3285 6.67726 2.32829 6.67442 2.32808 6.67176C2.32542 6.67156 2.32258 6.67135 2.31955 6.67114C2.25454 6.6667 2.1646 6.66634 2.00016 6.66634C1.83573 6.66634 1.74579 6.6667 1.68078 6.67114C1.67775 6.67135 1.67491 6.67156 1.67225 6.67176Z" fill="white"/>
<path fill-rule="evenodd" clip-rule="evenodd" d="M1.98252 10.333C1.98839 10.333 1.99428 10.333 2.00016 10.333C2.00605 10.333 2.01194 10.333 2.01781 10.333C2.15784 10.333 2.29426 10.333 2.41032 10.3409C2.53723 10.3496 2.68771 10.3699 2.84374 10.4345C3.17045 10.5698 3.43001 10.8294 3.56534 11.1561C3.62997 11.3121 3.65028 11.4626 3.65894 11.5895C3.66686 11.7056 3.66685 11.842 3.66683 11.982C3.66683 11.9879 3.66683 11.9938 3.66683 11.9997C3.66683 12.0056 3.66683 12.0115 3.66683 12.0173C3.66685 12.1574 3.66686 12.2938 3.65894 12.4098C3.65028 12.5367 3.62997 12.6872 3.56534 12.8433C3.43001 13.17 3.17045 13.4295 2.84374 13.5648C2.68771 13.6295 2.53723 13.6498 2.41032 13.6585C2.29426 13.6664 2.15785 13.6664 2.01782 13.6663C2.01194 13.6663 2.00605 13.6663 2.00016 13.6663C1.99428 13.6663 1.98839 13.6663 1.98251 13.6663C1.84248 13.6664 1.70607 13.6664 1.59001 13.6585C1.4631 13.6498 1.31262 13.6295 1.15659 13.5648C0.829883 13.4295 0.570318 13.17 0.434992 12.8433C0.370363 12.6872 0.350047 12.5367 0.341388 12.4098C0.33347 12.2938 0.333483 12.1574 0.333497 12.0173C0.333498 12.0114 0.333498 12.0056 0.333498 11.9997C0.333498 11.9938 0.333498 11.9879 0.333497 11.982C0.333483 11.842 0.33347 11.7056 0.341388 11.5895C0.350047 11.4626 0.370363 11.3121 0.434992 11.1561C0.570318 10.8294 0.829883 10.5698 1.15659 10.4345C1.31262 10.3699 1.4631 10.3496 1.59001 10.3409C1.70607 10.333 1.84249 10.333 1.98252 10.333ZM1.67225 11.6718C1.67204 11.6744 1.67183 11.6773 1.67163 11.6803C1.66719 11.7453 1.66683 11.8352 1.66683 11.9997C1.66683 12.1641 1.66719 12.2541 1.67163 12.3191C1.67183 12.3221 1.67204 12.3249 1.67225 12.3276C1.67491 12.3278 1.67775 12.328 1.68078 12.3282C1.74579 12.3326 1.83573 12.333 2.00016 12.333C2.1646 12.333 2.25454 12.3326 2.31955 12.3282C2.32258 12.328 2.32542 12.3278 2.32808 12.3276C2.32829 12.3249 2.3285 12.3221 2.3287 12.3191C2.33314 12.2541 2.3335 12.1641 2.3335 11.9997C2.3335 11.8352 2.33314 11.7453 2.3287 11.6803C2.3285 11.6773 2.32829 11.6744 2.32808 11.6718C2.32542 11.6716 2.32258 11.6713 2.31955 11.6711C2.25454 11.6667 2.1646 11.6663 2.00016 11.6663C1.83573 11.6663 1.74579 11.6667 1.68078 11.6711C1.67775 11.6713 1.67491 11.6716 1.67225 11.6718Z" fill="white"/>
</svg>
