<svg width="16" height="16" viewBox="0 0 16 16" fill="none" xmlns="http://www.w3.org/2000/svg">
<g id="elements">
<path id="Subtract" d="M0.833252 8C0.833252 11.958 4.04188 15.1667 7.99992 15.1667C11.958 15.1667 15.1666 11.958 15.1666 8C15.1666 6.71787 14.8299 5.51438 14.2401 4.47312C14.077 4.18514 13.9955 4.04114 13.8427 4.02447C13.69 4.00779 13.5727 4.13808 13.3382 4.39867L8.49544 9.77932C8.37309 9.91526 8.20027 9.99496 8.01744 9.99977C7.83461 10.0046 7.65784 9.93406 7.52851 9.80474L5.19518 7.47141C4.93483 7.21106 4.93483 6.78895 5.19518 6.5286C5.45553 6.26825 5.87764 6.26825 6.13799 6.5286L7.52729 7.91789C7.73711 8.12772 7.84203 8.23263 7.97089 8.22925C8.09976 8.22586 8.19901 8.11558 8.39752 7.89501L12.5704 3.25858C12.757 3.05129 12.8503 2.94765 12.8404 2.81943C12.8305 2.69121 12.7283 2.60796 12.524 2.44146C11.2902 1.43612 9.71547 0.833328 7.99992 0.833328C4.04188 0.833328 0.833252 4.04195 0.833252 8Z" fill="#1ECB84"/>
</g>
</svg>
