<svg width="12" height="12" viewBox="0 0 12 12" fill="none" xmlns="http://www.w3.org/2000/svg">
<path fill-rule="evenodd" clip-rule="evenodd" d="M0.65332 6.00055C0.65332 3.04736 3.04736 0.65332 6.00055 0.65332C8.95375 0.65332 11.3478 3.04736 11.3478 6.00055C11.3478 8.95375 8.95375 11.3478 6.00055 11.3478C3.04736 11.3478 0.65332 8.95375 0.65332 6.00055ZM2.62118 3.37739C2.05808 4.10177 1.72277 5.012 1.72277 6.00055C1.72277 8.36311 3.638 10.2783 6.00055 10.2783C6.9891 10.2783 7.89933 9.94302 8.62371 9.37993L2.62118 3.37739ZM3.37739 2.62118L9.37993 8.62371C9.94302 7.89933 10.2783 6.9891 10.2783 6.00055C10.2783 3.638 8.36311 1.72277 6.00055 1.72277C5.012 1.72277 4.10177 2.05808 3.37739 2.62118Z" fill="#DBDBDB"/>
</svg>
