<svg width="28" height="28" viewBox="0 0 28 28" fill="none" xmlns="http://www.w3.org/2000/svg">
<rect width="28" height="28" rx="14" fill="#4DF2BE"/>
<path fill-rule="evenodd" clip-rule="evenodd" d="M8.90073 18.3868C8.81523 18.429 8.72833 18.4686 8.64013 18.5057C7.98128 18.7895 7.31018 18.9087 6.63494 18.9087C5.29483 18.9087 4.04703 18.5443 3.09566 17.6206C2.12827 16.6944 1.75 15.4389 1.75 14.0747C1.75 13.2223 1.90932 12.3838 2.32942 11.621C2.73512 10.8843 3.32497 10.2846 4.09066 9.87432C4.84358 9.47086 5.67592 9.29044 6.55828 9.29044C7.44374 9.29044 8.26358 9.49578 8.9883 9.89409L9.00747 9.90463L9.02631 9.91574C9.07102 9.94211 9.1152 9.96911 9.15882 9.99676C9.36105 9.27332 9.74471 8.61997 10.3618 8.09507C11.2638 7.31687 12.4132 7 13.6349 7C14.8264 7 15.9174 7.30737 16.8087 8.00583C17.3404 8.42256 17.7096 8.92764 17.9355 9.48961H20.6955C21.0946 9.35673 21.5167 9.29044 21.9528 9.29044C22.7815 9.29044 23.5501 9.51914 24.2146 9.93801L24.2269 9.94578L24.2391 9.9538C24.9182 10.4014 25.4095 11.0107 25.7464 11.7191L25.7492 11.7249L25.7519 11.7307C26.0889 12.4566 26.25 13.2542 26.25 14.112C26.25 14.9646 26.0908 15.7659 25.7492 16.4867C25.4132 17.2079 24.9163 17.8312 24.2146 18.2736C23.5305 18.7048 22.7574 18.9087 21.9528 18.9087C21.5892 18.9087 21.2355 18.8627 20.8966 18.7704V21H16.4673V18.7096H8.90382L8.90073 18.3868ZM11.3734 15.1452L10.313 15.9793L10.3258 17.3112H16.714V15.9419H14.5164C13.6604 15.9419 12.9577 15.9668 12.4083 16.0166L12.3828 15.9295L13.1749 15.3569C14.0309 14.7345 14.6953 14.2241 15.1553 13.8257C15.6152 13.4274 16.0113 13.0042 16.3179 12.5311C16.6246 12.0581 16.7779 11.5478 16.7779 11C16.7779 10.1909 16.4968 9.55607 15.9091 9.09549C15.3214 8.63491 14.5676 8.3984 13.6349 8.3984C12.6639 8.3984 11.8845 8.64736 11.3095 9.14528C10.7218 9.6432 10.428 10.3652 10.4152 11.3237H12.0123C12.025 10.776 12.1784 10.3652 12.4594 10.0913C12.7405 9.81748 13.1366 9.68055 13.6349 9.68055C14.082 9.68055 14.4398 9.80503 14.7081 10.0415C14.9764 10.2905 15.1169 10.6142 15.1169 11.0374C15.1169 11.4233 14.9636 11.8092 14.6825 12.1951C14.4015 12.5934 14.0182 12.9917 13.5327 13.4025C13.0472 13.8257 12.3317 14.3984 11.3734 15.1452ZM4.68014 14.3859H9.81629V13.888C9.81629 13.3029 9.67575 12.7677 9.42022 12.2697C9.15191 11.7843 8.76862 11.3984 8.28311 11.1121C7.78483 10.8382 7.20989 10.6888 6.55828 10.6888C5.88113 10.6888 5.29341 10.8258 4.78235 11.0996C4.27129 11.3735 3.87522 11.7718 3.59413 12.2822C3.31305 12.7926 3.18529 13.3901 3.18529 14.0747C3.18529 15.195 3.49192 16.0415 4.10519 16.6266C4.71847 17.2241 5.56172 17.5104 6.63494 17.5104C7.13323 17.5104 7.60596 17.4232 8.06591 17.2241C8.51309 17.0373 8.89639 16.7635 9.20302 16.39C9.50966 16.0166 9.68853 15.5809 9.76519 15.0705H8.34699C8.25756 15.444 8.06591 15.7552 7.75928 15.9793C7.45264 16.2158 7.08212 16.3278 6.63494 16.3278C6.06 16.3278 5.60005 16.166 5.2423 15.8174C4.88456 15.4813 4.69291 15.0083 4.68014 14.3859ZM23.4349 11.1121C23.8693 11.3984 24.2014 11.7967 24.4442 12.3071C24.687 12.8299 24.8147 13.4274 24.8147 14.112C24.8147 14.7967 24.687 15.3942 24.4442 15.9046C24.2014 16.4274 23.8693 16.8257 23.4349 17.0996C23.0005 17.3734 22.5022 17.5104 21.9528 17.5104C21.3778 17.5104 20.8668 17.3361 20.4324 16.9875C19.9852 16.639 19.6786 16.1535 19.5125 15.5062H19.4614V19.6016H17.9026V10.888H19.3975L19.4614 12.7054H19.5125C19.6786 12.0581 19.9852 11.5602 20.4324 11.2117C20.8668 10.8631 21.3778 10.6888 21.9528 10.6888C22.5022 10.6888 23.0005 10.8382 23.4349 11.1121Z" fill="#0F1012"/>
</svg>
