<svg width="18" height="19" viewBox="0 0 18 19" fill="none" xmlns="http://www.w3.org/2000/svg">
<path fill-rule="evenodd" clip-rule="evenodd" d="M7.33317 14.8335C7.33317 15.7636 8.06506 16.5002 8.97977 16.5002C9.91191 16.5002 10.6665 15.7462 10.6665 14.8335H12.3332C12.3332 16.6823 10.8166 18.1668 8.97977 18.1668C7.12548 18.1668 5.6665 16.6649 5.6665 14.8335H7.33317Z" fill="#DBDBDB"/>
<path fill-rule="evenodd" clip-rule="evenodd" d="M2.54167 8.99983C2.54167 5.433 5.43316 2.5415 9 2.5415C12.5668 2.5415 15.4583 5.433 15.4583 8.99983V10.4473L16.988 12.3594C17.0767 12.4702 17.125 12.6079 17.125 12.7498V13.9998C17.125 14.8052 16.4721 15.4582 15.6667 15.4582H2.33333C1.52792 15.4582 0.875 14.8052 0.875 13.9998V12.7498C0.875 12.6079 0.9233 12.4702 1.01196 12.3594L2.54167 10.4473V8.99983Z" fill="#DBDBDB"/>
<path fill-rule="evenodd" clip-rule="evenodd" d="M7.10672 1.961C6.79194 1.01669 7.49482 0.0415039 8.49021 0.0415039H9.51117C10.5066 0.0415039 11.2094 1.01669 10.8947 1.961L10.427 3.36415C10.3419 3.61936 10.103 3.7915 9.83402 3.7915H8.16736C7.89834 3.7915 7.6595 3.61936 7.57443 3.36415L7.10672 1.961Z" fill="#DBDBDB"/>
</svg>
