<svg width="16" height="16" viewBox="0 0 16 16" fill="none" xmlns="http://www.w3.org/2000/svg">
<path fill-rule="evenodd" clip-rule="evenodd" d="M5.48081 13.5827C5.71164 13.2959 6.1313 13.2505 6.41815 13.4813C7.27868 14.1738 8.72169 14.1738 9.58223 13.4813C9.86907 13.2505 10.2887 13.2959 10.5196 13.5827C10.7504 13.8696 10.705 14.2892 10.4181 14.5201C9.06954 15.6053 6.93083 15.6053 5.58222 14.5201C5.29538 14.2892 5.24998 13.8696 5.48081 13.5827Z" fill="#4DF2BE"/>
<path fill-rule="evenodd" clip-rule="evenodd" d="M7.99984 1.99935C4.68613 1.99935 1.99984 4.68564 1.99984 7.99935V10.666C1.99984 11.0342 1.70136 11.3327 1.33317 11.3327C0.964981 11.3327 0.666504 11.0342 0.666504 10.666V7.99935C0.666504 3.94926 3.94975 0.666016 7.99984 0.666016C12.0499 0.666016 15.3332 3.94926 15.3332 7.99935L15.3332 10.666C15.3332 11.0342 15.0347 11.3327 14.6666 11.3327C14.2984 11.3327 13.9999 11.0342 13.9999 10.666L13.9998 7.99935C13.9998 4.68564 11.3135 1.99935 7.99984 1.99935Z" fill="#4DF2BE"/>
<path fill-rule="evenodd" clip-rule="evenodd" d="M2.61201 7.70269C3.02022 7.38526 3.55332 7.36497 3.97735 7.57699L4.59612 7.88637C5.04783 8.11223 5.33317 8.57391 5.33317 9.07894V12.2549C5.33317 12.7599 5.04783 13.2216 4.59612 13.4475L3.97735 13.7569C3.55332 13.9689 3.02022 13.9486 2.61201 13.6311C2.31209 13.3979 1.84679 13.0036 1.45043 12.5193C1.06892 12.0531 0.666504 11.4017 0.666504 10.6669C0.666504 9.9321 1.06892 9.28074 1.45043 8.81457C1.84679 8.33025 2.31209 7.93592 2.61201 7.70269Z" fill="#4DF2BE"/>
<path fill-rule="evenodd" clip-rule="evenodd" d="M12.0223 7.57699C12.4464 7.36497 12.9794 7.38526 13.3877 7.70269C13.6876 7.93592 14.1529 8.33025 14.5492 8.81457C14.9308 9.28074 15.3332 9.9321 15.3332 10.6669C15.3332 11.4017 14.9308 12.0531 14.5492 12.5193C14.1529 13.0036 13.6876 13.3979 13.3877 13.6311C12.9794 13.9486 12.4464 13.9689 12.0223 13.7569L11.4036 13.4475C10.9518 13.2216 10.6665 12.7599 10.6665 12.2549V9.07894C10.6665 8.57391 10.9518 8.11223 11.4036 7.88637L12.0223 7.57699Z" fill="#4DF2BE"/>
</svg>
