<svg width="109" height="32" viewBox="0 0 109 32" fill="none" xmlns="http://www.w3.org/2000/svg">
<path fill-rule="evenodd" clip-rule="evenodd" d="M74.2871 24.204C74.1304 24.283 73.9711 24.357 73.8094 24.4263C72.6015 24.957 71.3712 25.1801 70.1333 25.1801C67.6765 25.1801 65.3889 24.4985 63.6448 22.771C61.8712 21.0389 61.1778 18.6911 61.1778 16.1398C61.1778 14.5458 61.4698 12.9775 62.24 11.551C62.9838 10.1734 64.0651 9.05185 65.4689 8.28453C66.8492 7.53001 68.3751 7.1926 69.9927 7.1926C71.616 7.1926 73.119 7.57662 74.4477 8.32151L74.4828 8.34122L74.5173 8.36199C74.5993 8.4113 74.6803 8.46181 74.7603 8.51351C75.131 7.16059 75.8344 5.93874 76.9657 4.9571C78.6192 3.50176 80.7264 2.90918 82.9662 2.90918C85.1507 2.90918 87.1507 3.484 88.7847 4.79022C89.7595 5.56954 90.4363 6.51412 90.8505 7.56507H95.9103C96.6421 7.31657 97.4158 7.1926 98.2153 7.1926C99.7346 7.1926 101.144 7.6203 102.362 8.40365L102.384 8.41818L102.407 8.43316C103.652 9.27029 104.552 10.4096 105.17 11.7345L105.175 11.7453L105.18 11.7562C105.798 13.1137 106.093 14.6054 106.093 16.2096C106.093 17.804 105.802 19.3026 105.175 20.6505C104.559 21.9993 103.648 23.1649 102.362 23.9923C101.108 24.7988 99.6904 25.1801 98.2153 25.1801C97.5489 25.1801 96.9003 25.0939 96.2791 24.9213V29.091H88.1589V24.8076H74.2928L74.2871 24.204ZM76.8763 19.7015L78.8204 18.1417C80.5771 16.745 81.8888 15.6741 82.7789 14.8826C83.669 14.1144 84.3716 13.3695 84.8869 12.6245C85.4023 11.9029 85.6833 11.1812 85.6833 10.4595C85.6833 9.66803 85.4257 9.06276 84.9338 8.59717C84.4419 8.15486 83.7861 7.92207 82.9663 7.92207C82.0528 7.92207 81.3266 8.17814 80.8113 8.69029C80.296 9.20244 80.015 9.97066 79.9915 10.995H77.0637C77.0871 9.20244 77.6258 7.85223 78.7033 6.92105C79.7573 5.98987 81.1861 5.52429 82.9663 5.52429C84.6761 5.52429 86.0581 5.9666 87.1356 6.82793C88.213 7.68927 88.7283 8.87652 88.7283 10.3897C88.7283 11.414 88.4473 12.3684 87.8851 13.2531C87.3229 14.1377 86.5968 14.9292 85.7536 15.6741C84.9104 16.4191 83.6924 17.3735 82.123 18.5375L80.6708 19.6083L80.7177 19.7713C81.7248 19.6782 83.0131 19.6316 84.5825 19.6316H88.6112V22.1924H76.8997L76.8763 19.7015ZM75.9657 16.7217H66.5496C66.5731 17.8857 66.9244 18.7703 67.5802 19.3988C68.2361 20.0507 69.0793 20.3533 70.1334 20.3533C70.9532 20.3533 71.6324 20.1438 72.1946 19.7015C72.7567 19.2824 73.1081 18.7004 73.272 18.0021H75.872C75.7315 18.9565 75.4035 19.7713 74.8414 20.4697C74.2792 21.1681 73.5765 21.6802 72.7567 22.0294C71.9135 22.4019 71.0469 22.5648 70.1334 22.5648C68.1658 22.5648 66.6199 22.0294 65.4956 20.912C64.3713 19.8179 63.8091 18.2349 63.8091 16.1397C63.8091 14.8593 64.0434 13.7419 64.5587 12.7875C65.074 11.833 65.8001 11.0881 66.737 10.5759C67.6739 10.0638 68.7514 9.8077 69.9928 9.8077C71.1874 9.8077 72.2414 10.0871 73.1549 10.5992C74.045 11.1346 74.7477 11.8563 75.2396 12.7642C75.708 13.6954 75.9657 14.6964 75.9657 15.7905V16.7217ZM102.783 12.834C102.338 11.8796 101.729 11.1346 100.932 10.5992C100.136 10.0871 99.2226 9.8077 98.2154 9.8077C97.1614 9.8077 96.2244 10.1336 95.4281 10.7854C94.6083 11.4373 94.0461 12.3684 93.7416 13.579H93.6479L93.5308 10.1802H90.7903V26.4758H93.6479V18.8168H93.7416C94.0461 20.0274 94.6083 20.9353 95.4281 21.5871C96.2244 22.2389 97.1614 22.5648 98.2154 22.5648C99.2226 22.5648 100.136 22.3088 100.932 21.7966C101.729 21.2845 102.338 20.5395 102.783 19.5618C103.228 18.6073 103.462 17.4899 103.462 16.2095C103.462 14.9292 103.228 13.8118 102.783 12.834Z" fill="#4DF2BE"/>
<path d="M15.684 16.8133H5.78715C5.81177 18.0367 6.18106 18.9665 6.87039 19.6272C7.55972 20.3123 8.446 20.6303 9.55385 20.6303C10.4155 20.6303 11.1295 20.4101 11.7203 19.9452C12.3112 19.5048 12.6805 18.8931 12.8528 18.1591H15.5855C15.4378 19.1623 15.0931 20.0186 14.5023 20.7527C13.9114 21.4867 13.1728 22.025 12.3112 22.392C11.4249 22.7835 10.514 22.9548 9.55385 22.9548C7.48586 22.9548 5.86101 22.392 4.6793 21.2176C3.49759 20.0676 2.90674 18.4038 2.90674 16.2016C2.90674 14.8559 3.15293 13.6814 3.69454 12.6783C4.23616 11.6751 4.99935 10.8921 5.9841 10.3538C6.96886 9.8155 8.10133 9.54636 9.40613 9.54636C10.6617 9.54636 11.7696 9.83997 12.7297 10.3783C13.6652 10.941 14.4038 11.6995 14.9208 12.6538C15.4132 13.6325 15.684 14.6846 15.684 15.8346V16.8133ZM6.84577 12.7272C6.20567 13.29 5.83639 14.0974 5.78715 15.1251H12.7297C12.6558 14.1219 12.3112 13.3389 11.6957 12.7517C11.0802 12.1644 10.2678 11.8708 9.28304 11.8708C8.29828 11.8708 7.48586 12.1644 6.84577 12.7272Z" fill="#4DF2BE"/>
<path d="M20.7483 22.5633L15.8984 9.93784H19.0989L20.4283 13.608C20.6499 14.2931 20.9699 15.2229 21.4131 16.3974C21.9793 18.0857 22.324 19.1133 22.4717 19.5048H22.5948C22.8902 18.624 23.3333 17.3761 23.9242 15.7368C24.0473 15.3208 24.2935 14.6112 24.6628 13.608L25.9922 9.93784H29.0942L24.2442 22.5633H20.7483Z" fill="#4DF2BE"/>
<path d="M32.6054 22.1229C31.5714 21.5846 30.7344 20.8016 30.1435 19.774C29.5281 18.7463 29.2326 17.5719 29.2326 16.2016C29.2326 14.8804 29.5281 13.7304 30.1435 12.7027C30.759 11.6995 31.5961 10.9166 32.6301 10.3783C33.664 9.83997 34.7965 9.54636 36.0521 9.54636C37.283 9.54636 38.4401 9.83997 39.4741 10.3783C40.5081 10.9166 41.3451 11.6995 41.9606 12.7027C42.5761 13.7304 42.8961 14.8804 42.8961 16.2016C42.8961 17.5719 42.5761 18.7463 41.9606 19.774C41.3451 20.8016 40.5081 21.5846 39.4741 22.1229C38.4401 22.6857 37.283 22.9548 36.0521 22.9548C34.7965 22.9548 33.6394 22.6857 32.6054 22.1229ZM38.834 19.4559C39.5233 18.6974 39.868 17.6208 39.868 16.2016C39.868 14.8314 39.5233 13.7793 38.834 13.0208C38.1447 12.2868 37.2338 11.8953 36.0521 11.8953C34.8704 11.8953 33.9595 12.2868 33.2701 13.0208C32.5808 13.7793 32.2608 14.8314 32.2608 16.2016C32.2608 17.6208 32.5808 18.6974 33.2701 19.4559C33.9595 20.2389 34.8704 20.6059 36.0521 20.6059C37.2338 20.6059 38.1447 20.2389 38.834 19.4559Z" fill="#4DF2BE"/>
<path d="M44.8726 22.5633V5.43574H47.8761V22.5633H44.8726Z" fill="#4DF2BE"/>
<path d="M53.8781 22.5633L49.0282 9.93784H52.2286L53.5581 13.608C53.7796 14.2931 54.0997 15.2229 54.5428 16.3974C55.1091 18.0857 55.4537 19.1133 55.6014 19.5048H55.7245C56.02 18.624 56.4631 17.3761 57.0539 15.7368C57.177 15.3208 57.4232 14.6112 57.7925 13.608L59.1219 9.93784H62.2239L57.374 22.5633H53.8781Z" fill="#4DF2BE"/>
</svg>
