<svg width="16" height="16" viewBox="0 0 16 16" fill="none" xmlns="http://www.w3.org/2000/svg">
<path d="M5.33337 7.16536C5.33337 6.15234 6.15497 5.33132 7.168 5.33203L13.168 5.33626C14.18 5.33698 15 6.15758 15 7.1696V13.1644C15 14.1769 14.1792 14.9978 13.1667 14.9978H7.16671C6.15419 14.9978 5.33337 14.1769 5.33337 13.1644V7.16536Z" fill="#4DF2BE"/>
<path d="M2.50124 0.667969C1.48822 0.667263 0.666626 1.48828 0.666626 2.5013V9.83371C0.666626 10.8462 1.48744 11.667 2.49996 11.667H4.49996V7.16797C4.49996 5.69448 5.69501 4.50026 7.16851 4.5013L11.6666 4.50448V2.50642C11.6666 1.4944 10.8466 0.673792 9.83457 0.673086L2.50124 0.667969Z" fill="#4DF2BE"/>
</svg>
