<svg width="12" height="12" viewBox="0 0 12 12" fill="none" xmlns="http://www.w3.org/2000/svg">
<path fill-rule="evenodd" clip-rule="evenodd" d="M6.00012 11.2258C3.11404 11.2258 0.774414 8.88619 0.774414 6.00012C0.774414 3.11404 3.11404 0.774414 6.00012 0.774414C8.88619 0.774414 11.2258 3.11404 11.2258 6.00012C11.2258 8.88619 8.88619 11.2258 6.00012 11.2258ZM7.80217 4.88553C7.99202 4.69569 7.99203 4.3879 7.8022 4.19806C7.61236 4.00821 7.30458 4.0082 7.11473 4.19804L6.00002 5.31267L4.8855 4.19823C4.69566 4.0084 4.38787 4.00841 4.19804 4.19825C4.0082 4.3881 4.00821 4.69588 4.19806 4.88572L5.31253 6.00012L4.19806 7.11452C4.00821 7.30435 4.0082 7.61214 4.19804 7.80198C4.38787 7.99183 4.69566 7.99184 4.8855 7.802L6.00002 6.68756L7.11473 7.8022C7.30458 7.99203 7.61236 7.99202 7.8022 7.80217C7.99203 7.61233 7.99202 7.30454 7.80217 7.11471L6.68751 6.00012L7.80217 4.88553Z" fill="#FE857D"/>
</svg>
