<svg width="12" height="10" viewBox="0 0 12 10" fill="none" xmlns="http://www.w3.org/2000/svg">
<path fill-rule="evenodd" clip-rule="evenodd" d="M0.625 5.3125C0.625 4.51859 1.2486 3.875 2.01786 3.875C3.04353 3.875 3.875 4.73312 3.875 5.79167V7.70833C3.875 8.76688 3.04353 9.625 2.01786 9.625C1.2486 9.625 0.625 8.98141 0.625 8.1875V5.3125ZM2.01786 4.83333C1.76144 4.83333 1.55357 5.04786 1.55357 5.3125V8.1875C1.55357 8.45214 1.76144 8.66667 2.01786 8.66667C2.53069 8.66667 2.94643 8.23761 2.94643 7.70833V5.79167C2.94643 5.26239 2.53069 4.83333 2.01786 4.83333Z" fill="#8F8F8F"/>
<path d="M6.39949 0.592482C6.76492 0.274473 7.32626 0.308552 7.64821 0.672821C7.70484 0.74374 7.83518 0.91639 7.90352 1.03964C8.21837 1.55983 8.31431 2.17942 8.16958 2.76809C8.15341 2.83389 8.13281 2.90041 8.10113 3.00272L7.96447 3.44408C7.90772 3.62737 7.87338 3.73962 7.85583 3.82366C7.84273 3.87 7.84925 3.96413 7.98004 3.96988C8.07009 3.97791 8.42286 3.97826 8.6197 3.97826C9.23832 3.97825 9.74054 3.97824 10.1244 4.02905C10.5168 4.081 10.8731 4.19566 11.1157 4.49977C11.1636 4.55981 11.2064 4.62378 11.2434 4.69102C11.4331 5.03586 11.3929 5.40733 11.2787 5.78125C11.1675 6.14502 10.9594 6.59302 10.7045 7.14184C10.4679 7.6512 10.258 8.10327 10.07 8.42035C9.87559 8.74835 9.66774 9.0062 9.38045 9.2023C9.04389 9.43202 8.59513 9.55218 8.21103 9.58915C7.83855 9.625 7.38106 9.625 6.80718 9.62499C6.11517 9.625 5.25737 9.62501 4.82026 9.56807C4.36792 9.50914 3.98688 9.38333 3.68315 9.08904C3.37776 8.79315 3.24568 8.41923 3.18409 7.97541C3.12501 7.54957 3.12502 7.00867 3.12503 6.34007L3.12501 5.75373C3.12482 5.09476 3.12469 4.66407 3.27957 4.2647C3.43406 3.86631 3.72552 3.54375 4.17361 3.04784L6.27869 0.71684C6.31847 0.672708 6.3591 0.627632 6.39949 0.592482Z" fill="#8F8F8F"/>
</svg>
