<svg width="20" height="20" viewBox="0 0 20 20" fill="none" xmlns="http://www.w3.org/2000/svg">
<path fill-rule="evenodd" clip-rule="evenodd" d="M0.833496 10.0002C0.833496 4.93755 4.93755 0.833496 10.0002 0.833496C13.3965 0.833496 16.3343 2.6807 17.9086 5.41804C18.2389 5.99237 18.5095 6.6061 18.7118 7.25045C18.7913 7.50357 18.7456 7.77942 18.5886 7.99329C18.4316 8.20716 18.1821 8.3335 17.9168 8.3335H15.8335C15.5121 8.3335 15.2193 8.14866 15.0811 7.85849C14.9429 7.56832 14.9839 7.22454 15.1864 6.97499L16.1642 5.77031C14.8212 3.7933 12.5708 2.50016 10.0002 2.50016C5.85803 2.50016 2.50016 5.85803 2.50016 10.0002C2.50016 14.1423 5.858 17.5002 10.0001 17.5002C10.4604 17.5002 10.8335 17.8733 10.8335 18.3335C10.8335 18.7937 10.4604 19.1668 10.0001 19.1668C4.93752 19.1668 0.833496 15.0628 0.833496 10.0002Z" fill="#8F8F8F"/>
<path fill-rule="evenodd" clip-rule="evenodd" d="M9.99984 5.8335C10.4601 5.8335 10.8332 6.20659 10.8332 6.66683V9.65498L12.2558 11.0776C12.5812 11.403 12.5812 11.9306 12.2558 12.2561C11.9303 12.5815 11.4027 12.5815 11.0772 12.2561L9.41058 10.5894C9.2543 10.4331 9.1665 10.2212 9.1665 10.0002V6.66683C9.1665 6.20659 9.5396 5.8335 9.99984 5.8335Z" fill="#8F8F8F"/>
<path fill-rule="evenodd" clip-rule="evenodd" d="M18.3334 9.1665C18.7936 9.1665 19.1667 9.5396 19.1667 9.99984C19.1667 10.306 19.1529 10.609 19.1259 10.9081C19.0845 11.3665 18.6794 11.7045 18.221 11.6631C17.7626 11.6217 17.4246 11.2166 17.466 10.7582C17.4885 10.5088 17.5001 10.2559 17.5001 9.99984C17.5001 9.5396 17.8732 9.1665 18.3334 9.1665ZM18.048 12.4252C18.4787 12.5874 18.6963 13.0681 18.5341 13.4988C18.3978 13.8605 18.2411 14.2116 18.0652 14.5504C17.8532 14.9589 17.3502 15.1182 16.9417 14.9062C16.5332 14.6941 16.3739 14.1911 16.5859 13.7826C16.7315 13.5021 16.8614 13.2112 16.9744 12.9113C17.1366 12.4806 17.6173 12.2629 18.048 12.4252ZM16.541 15.4778C16.8783 15.7909 16.8979 16.3182 16.5848 16.6555C16.3055 16.9565 16.0071 17.2385 15.6917 17.4995C15.3372 17.793 14.8119 17.7434 14.5184 17.3888C14.225 17.0343 14.2746 16.509 14.6291 16.2155C14.8879 16.0014 15.1332 15.7696 15.3633 15.5217C15.6764 15.1843 16.2036 15.1647 16.541 15.4778ZM14.0911 17.6594C14.2827 18.0778 14.0988 18.5724 13.6803 18.764C13.3819 18.9006 13.075 19.0213 12.7606 19.1247C12.3234 19.2686 11.8524 19.0309 11.7085 18.5937C11.5646 18.1565 11.8024 17.6855 12.2395 17.5416C12.4945 17.4577 12.7437 17.3598 12.9865 17.2486C13.4049 17.057 13.8995 17.2409 14.0911 17.6594Z" fill="#8F8F8F"/>
</svg>
