<svg width="20" height="20" viewBox="0 0 20 20" fill="none" xmlns="http://www.w3.org/2000/svg">
<path d="M10 1.04199C14.9476 1.04199 18.958 5.05245 18.958 10C18.958 14.9476 14.9476 18.958 10 18.958C5.05245 18.958 1.04199 14.9476 1.04199 10C1.04199 5.05245 5.05245 1.04199 10 1.04199ZM14.21 13.7432C11.9871 11.3313 7.97535 11.4547 5.79785 13.7354C5.62531 13.9162 5.57753 14.1822 5.67578 14.4121C5.77418 14.6421 5.99985 14.792 6.25 14.792H13.75C13.998 14.792 14.2226 14.645 14.3223 14.418C14.4218 14.1908 14.378 13.9256 14.21 13.7432ZM9.99316 5.20801C8.49659 5.20801 7.28125 6.42038 7.28125 7.91699C7.28143 9.41345 8.4967 10.625 9.99316 10.625C11.4895 10.6249 12.7039 9.41338 12.7041 7.91699C12.7041 6.42045 11.4896 5.20812 9.99316 5.20801Z" fill="#8F8F8F"/>
</svg>
