<svg width="20" height="18" viewBox="0 0 20 18" fill="none" xmlns="http://www.w3.org/2000/svg">
<path fill-rule="evenodd" clip-rule="evenodd" d="M15.5276 2.5214C15.8838 2.81284 15.9363 3.33786 15.6448 3.69406L11.8948 8.2774C11.6034 8.6336 11.0784 8.6861 10.7222 8.39466C10.366 8.10322 10.3135 7.57821 10.6049 7.222L14.3549 2.63867C14.6463 2.28246 15.1714 2.22996 15.5276 2.5214Z" fill="#8F8F8F"/>
<path fill-rule="evenodd" clip-rule="evenodd" d="M9.99984 8.58317C9.76972 8.58317 9.58317 8.76972 9.58317 8.99984C9.58317 9.22996 9.76972 9.4165 9.99984 9.4165C10.23 9.4165 10.4165 9.22996 10.4165 8.99984C10.4165 8.76972 10.23 8.58317 9.99984 8.58317ZM7.9165 8.99984C7.9165 7.84924 8.84924 6.9165 9.99984 6.9165C11.1504 6.9165 12.0832 7.84924 12.0832 8.99984C12.0832 10.1504 11.1504 11.0832 9.99984 11.0832C8.84924 11.0832 7.9165 10.1504 7.9165 8.99984Z" fill="#8F8F8F"/>
<path fill-rule="evenodd" clip-rule="evenodd" d="M10.0002 2.33317C5.85803 2.33317 2.50016 5.69104 2.50016 9.83317C2.50016 12.0277 3.44202 14.0021 4.94608 15.3746L6.07757 14.2431C6.40301 13.9177 6.93065 13.9177 7.25608 14.2431C7.58152 14.5685 7.58152 15.0962 7.25608 15.4216L5.58861 17.0891C5.29517 17.3825 4.83056 17.4153 4.49879 17.1661C2.27469 15.4951 0.833496 12.8323 0.833496 9.83317C0.833496 4.77056 4.93755 0.666504 10.0002 0.666504C15.0628 0.666504 19.1668 4.77056 19.1668 9.83317C19.1668 12.8323 17.7256 15.4951 15.5015 17.1661C15.1698 17.4153 14.7052 17.3825 14.4117 17.0891L12.7442 15.4216C12.4188 15.0962 12.4188 14.5685 12.7442 14.2431C13.0697 13.9177 13.5973 13.9177 13.9228 14.2431L15.0542 15.3746C16.5583 14.0021 17.5002 12.0277 17.5002 9.83317C17.5002 5.69104 14.1423 2.33317 10.0002 2.33317Z" fill="#8F8F8F"/>
</svg>
