<svg width="40" height="40" viewBox="0 0 40 40" fill="none" xmlns="http://www.w3.org/2000/svg">
<path d="M39.3971 24.8381C36.726 35.5525 25.8741 42.0731 15.1584 39.4012C4.44722 36.7301 -2.07335 25.8775 0.598971 15.1639C3.26894 4.44838 14.1209 -2.07268 24.8332 0.598468C35.5481 3.26961 42.0683 14.1234 39.3968 24.8383L39.397 24.8381H39.3971Z" fill="#50AF95"/>
<path fill-rule="evenodd" clip-rule="evenodd" d="M22.5309 22.2673C22.3894 22.2779 21.6588 22.3215 20.0289 22.3215C18.7326 22.3215 17.8122 22.2826 17.4893 22.2673C12.4796 22.0469 8.74024 21.1748 8.74024 20.1307C8.74024 19.0865 12.4796 18.2156 17.4893 17.9917V21.3987C17.8169 21.4223 18.755 21.4777 20.0513 21.4777C21.6069 21.4777 22.3859 21.4129 22.5261 21.3999V17.9941C27.5253 18.2168 31.2564 19.0889 31.2564 20.1307C31.2564 21.1724 27.5265 22.0445 22.5261 22.2661L22.5309 22.2673ZM22.5309 17.6417V14.593H29.5075V9.94385H10.5127V14.593H17.4881V17.6405C11.8184 17.901 7.55469 19.0241 7.55469 20.3699C7.55469 21.7157 11.8184 22.8376 17.4881 23.0993V32.8689H22.5297V23.0957C28.1864 22.8353 32.4431 21.7134 32.4431 20.3687C32.4431 19.0241 28.1899 17.9022 22.5297 17.6405L22.5309 17.6417Z" fill="white"/>
</svg>
