<svg width="20" height="20" viewBox="0 0 20 20" fill="none" xmlns="http://www.w3.org/2000/svg">
<path fill-rule="evenodd" clip-rule="evenodd" d="M13.5415 3.33366C13.5415 2.06801 14.5675 1.04199 15.8332 1.04199C17.0988 1.04199 18.1248 2.06801 18.1248 3.33366C18.1248 4.59931 17.0988 5.62532 15.8332 5.62532C14.5675 5.62532 13.5415 4.59931 13.5415 3.33366Z" fill="#DBDBDB"/>
<path fill-rule="evenodd" clip-rule="evenodd" d="M1.0415 9.26677C1.0415 7.94022 2.12558 6.875 3.45024 6.875C4.34402 6.875 5.12575 7.35907 5.54113 8.07868L5.5469 8.08867L5.74746 8.45166C5.91014 8.7459 5.81089 9.1161 5.52286 9.28951C4.61526 9.83593 3.93301 10.5309 3.53419 11.2945C3.3779 11.5937 3.01226 11.7147 2.70831 11.5679L2.35278 11.3961L2.33718 11.3883C1.57056 10.9911 1.0415 10.1923 1.0415 9.26677ZM14.4585 8.07868C14.8739 7.35907 15.6556 6.875 16.5494 6.875C17.8741 6.875 18.9582 7.94021 18.9582 9.26677C18.9582 10.1923 18.4291 10.9911 17.6625 11.3883L17.6469 11.3961L17.2914 11.5679C16.9874 11.7147 16.6218 11.5937 16.4655 11.2945C16.0667 10.5309 15.3844 9.83593 14.4768 9.28951C14.1888 9.1161 14.0895 8.7459 14.2522 8.45166L14.4585 8.07868Z" fill="#DBDBDB"/>
<path fill-rule="evenodd" clip-rule="evenodd" d="M11.6667 3.95801C11.0914 3.95801 10.625 4.42438 10.625 4.99967L10.625 7.49967C10.625 7.84485 10.3452 8.12467 10 8.12467C9.65482 8.12467 9.375 7.84485 9.375 7.49967L9.375 4.99967C9.375 3.73402 10.401 2.70801 11.6667 2.70801L14.1667 2.70801C14.5118 2.70801 14.7917 2.98783 14.7917 3.33301C14.7917 3.67819 14.5118 3.95801 14.1667 3.95801H11.6667Z" fill="#DBDBDB"/>
<path d="M10 6.875C12.1878 6.875 14.194 7.51483 15.6689 8.58008C17.1431 9.64476 18.125 11.1701 18.125 12.917C18.1249 14.6638 17.143 16.1893 15.6689 17.2539C14.194 18.319 12.1877 18.958 10 18.958C7.81235 18.958 5.80602 18.319 4.33105 17.2539C2.85697 16.1893 1.87512 14.6638 1.875 12.917C1.875 11.1701 2.85688 9.64476 4.33105 8.58008C5.80605 7.51483 7.81219 6.875 10 6.875ZM13.4092 14.5703C13.197 14.2982 12.8044 14.2498 12.5322 14.4619C11.814 15.0215 10.9403 15.3457 10 15.3457C9.05973 15.3457 8.18604 15.0216 7.46777 14.4619C7.19557 14.2498 6.80303 14.2982 6.59082 14.5703C6.37865 14.8426 6.427 15.2351 6.69922 15.4473C7.62273 16.167 8.76347 16.5957 10 16.5957C11.2365 16.5957 12.3773 16.167 13.3008 15.4473C13.573 15.2351 13.6214 14.8426 13.4092 14.5703ZM7.49902 9.58301C6.80877 9.58301 6.2492 10.1428 6.24902 10.833C6.24902 11.5234 6.80867 12.083 7.49902 12.083H7.50684C8.19704 12.0828 8.75684 11.5233 8.75684 10.833C8.75666 10.1429 8.19693 9.58318 7.50684 9.58301H7.49902ZM12.499 9.58301C11.8088 9.58301 11.2492 10.1428 11.249 10.833C11.249 11.5234 11.8087 12.083 12.499 12.083H12.5068C13.197 12.0828 13.7568 11.5233 13.7568 10.833C13.7567 10.1429 13.1969 9.58319 12.5068 9.58301H12.499Z" fill="#DBDBDB"/>
</svg>
