<svg width="20" height="20" viewBox="0 0 20 20" fill="none" xmlns="http://www.w3.org/2000/svg">
<path fill-rule="evenodd" clip-rule="evenodd" d="M8.15141 2.22519C8.97601 1.42745 10.1116 1.04199 11.369 1.04199L14.9994 1.04199C15.3445 1.04199 15.6248 1.32181 15.6248 1.66699V4.58366C15.6248 4.92884 15.345 5.20866 14.9998 5.20866L12.4998 5.20866C11.7424 5.20866 11.5939 5.39373 11.5599 5.44422C11.5291 5.48997 11.4977 5.56709 11.4788 5.70992C11.4592 5.85802 11.4582 6.02665 11.4582 6.25032L11.4582 7.29199L14.9998 7.29199C15.1923 7.29199 15.374 7.38066 15.4925 7.53236C15.6109 7.68405 15.6529 7.88186 15.6062 8.06857L14.7728 11.4019C14.7033 11.6801 14.4533 11.8753 14.1665 11.8753H11.4582V18.3337C11.4582 18.6788 11.1783 18.9587 10.8332 18.9587L7.49984 18.9587C7.15466 18.9587 6.87484 18.6788 6.87484 18.3337L6.87484 11.8753H4.1665C3.82133 11.8753 3.5415 11.5955 3.5415 11.2503L3.5415 7.91699C3.5415 7.57181 3.82133 7.29199 4.1665 7.29199L6.87484 7.29199V5.58366C6.87484 4.1799 7.32308 3.02655 8.15141 2.22519Z" fill="#DBDBDB"/>
</svg>
