<svg width="12" height="12" viewBox="0 0 12 12" fill="none" xmlns="http://www.w3.org/2000/svg">
<path d="M8.38136 1.58827C8.72306 1.24662 9.27697 1.24661 9.61866 1.58827L10.4116 2.38124C10.7533 2.72294 10.7533 3.27685 10.4116 3.61855L6.46095 7.56923C6.28474 7.74542 6.06402 7.87061 5.82228 7.93105L4.09083 8.36367C3.96307 8.39556 3.82799 8.35815 3.73487 8.26503C3.64176 8.17192 3.60435 8.03683 3.63624 7.90908L4.06886 6.17763C4.12929 5.93589 4.25449 5.71517 4.43068 5.53896L8.38136 1.58827ZM4.96095 6.06923C4.88088 6.14932 4.82386 6.24989 4.7964 6.35976L4.51515 7.48427L5.64015 7.20351C5.75002 7.17604 5.85058 7.11903 5.93068 7.03896L8.71974 4.2499L7.75001 3.28017L4.96095 6.06923ZM9.08839 2.11855C9.03959 2.06978 8.96044 2.06979 8.91163 2.11855L8.28028 2.7499L9.25001 3.71962L9.88136 3.08827C9.93011 3.03947 9.93011 2.96032 9.88136 2.91152L9.08839 2.11855Z" fill="#C7C7C7"/>
<path d="M1.125 9.5V3.5C1.125 2.74061 1.74061 2.125 2.5 2.125H5.25C5.4571 2.12501 5.625 2.2929 5.625 2.5C5.625 2.7071 5.4571 2.87499 5.25 2.875H2.5C2.15482 2.875 1.875 3.15482 1.875 3.5V9.5C1.875 9.84518 2.15482 10.125 2.5 10.125H8.5C8.84516 10.125 9.125 9.84517 9.125 9.5V6.75C9.125 6.54289 9.29289 6.375 9.5 6.375C9.70709 6.37502 9.875 6.5429 9.875 6.75V9.5C9.875 10.2594 9.25938 10.875 8.5 10.875H2.5C1.74061 10.875 1.125 10.2594 1.125 9.5Z" fill="#C7C7C7"/>
</svg>
