<svg width="20" height="22" viewBox="0 0 20 22" fill="none" xmlns="http://www.w3.org/2000/svg">
<path d="M16.5461 5.27979C16.9917 5.27978 17.3662 5.27977 17.6716 5.30191C17.9885 5.32489 18.2963 5.37489 18.5896 5.51034C18.9217 5.66375 19.2185 5.89391 19.4347 6.19354C19.639 6.47666 19.7154 6.78164 19.7485 7.07461C19.7786 7.33983 19.7786 7.65785 19.7785 8.00172V8.07388C19.7786 8.41775 19.7786 8.73577 19.7485 9.00099C19.7154 9.29396 19.639 9.59894 19.4347 9.88206C19.2185 10.1817 18.9217 10.4118 18.5896 10.5653C18.2963 10.7007 17.9885 10.7507 17.6716 10.7737C17.3662 10.7958 16.9917 10.7958 16.546 10.7958H3.45416C3.00848 10.7958 2.63399 10.7958 2.32862 10.7737C2.01167 10.7507 1.70392 10.7007 1.41065 10.5653C1.07851 10.4118 0.781719 10.1817 0.565482 9.88206C0.361157 9.59894 0.28485 9.29396 0.251659 9.00099C0.221612 8.73577 0.221646 8.41774 0.221682 8.07387V8.00173C0.221646 7.65786 0.221612 7.33983 0.251659 7.07461C0.28485 6.78164 0.361157 6.47666 0.565482 6.19354C0.781718 5.89391 1.07851 5.66375 1.41065 5.51034C1.70392 5.37489 2.01167 5.32489 2.32862 5.30191C2.63398 5.27977 3.00847 5.27978 3.45413 5.27979H16.5461Z" fill="#4DAAF2"/>
<path d="M1.76345 11.9676C1.4993 11.9231 1.36723 11.9009 1.29616 11.9609C1.2251 12.021 1.2251 12.1442 1.2251 12.3906V14.11C1.22508 15.7173 1.22507 17 1.36032 18.006C1.50005 19.0453 1.79642 19.9012 2.47352 20.5783C3.15063 21.2554 4.00653 21.5517 5.04582 21.6915C6.05183 21.8267 7.33452 21.8267 8.94178 21.8267C8.97266 21.8267 8.99769 21.8017 8.99769 21.7708L8.99769 12.4494C8.99769 12.2603 8.99769 12.1658 8.93894 12.107C8.88019 12.0483 8.78563 12.0483 8.59652 12.0483H3.42058C3.00271 12.0483 2.58962 12.0483 2.23845 12.0229C2.09266 12.0123 1.93273 11.9961 1.76345 11.9676Z" fill="#4DAAF2"/>
<path d="M11.4047 12.0483C11.2156 12.0483 11.121 12.0483 11.0623 12.107C11.0035 12.1658 11.0035 12.2603 11.0035 12.4494V21.7708C11.0035 21.8017 11.0285 21.8267 11.0594 21.8267C12.6667 21.8267 13.9494 21.8267 14.9554 21.6915C15.9947 21.5517 16.8506 21.2554 17.5277 20.5783C18.2048 19.9012 18.5012 19.0453 18.6409 18.006C18.7761 17 18.7761 15.7173 18.7761 14.11V12.3906C18.7761 12.1442 18.7761 12.021 18.705 11.9609C18.634 11.9008 18.5019 11.9231 18.2378 11.9676C18.0685 11.9961 17.9085 12.0123 17.7627 12.0229C17.4116 12.0483 16.9985 12.0483 16.5806 12.0483H11.4047Z" fill="#4DAAF2"/>
<path d="M6.13232 0.264648C7.70909 0.264778 9.11027 1.01488 10.0005 2.17676C10.8908 1.01488 12.2918 0.264681 13.8687 0.264648H14.2271C15.7699 0.264709 17.0208 1.51577 17.021 3.05859C17.021 5.39279 15.1286 7.28503 12.7944 7.28516H7.20654C4.87227 7.28516 2.97998 5.39286 2.97998 3.05859C2.98013 1.51573 4.23103 0.264648 5.77393 0.264648H6.13232ZM5.77393 2.27051C5.33881 2.27051 4.98599 2.62352 4.98584 3.05859C4.98584 4.28507 5.98006 5.2793 7.20654 5.2793H8.99756V5.13672C8.99756 3.5543 7.71469 2.27073 6.13232 2.27051H5.77393ZM13.8687 2.27051C12.2861 2.27056 11.0034 3.5542 11.0034 5.13672V5.2793H12.7944C14.0208 5.27917 15.0151 4.285 15.0151 3.05859C15.015 2.62355 14.6621 2.27057 14.2271 2.27051H13.8687Z" fill="#4DAAF2"/>
</svg>
