<svg width="14" height="16" viewBox="0 0 14 16" fill="none" xmlns="http://www.w3.org/2000/svg">
<path d="M9 7.16602C9.27614 7.16602 9.5 7.38987 9.5 7.66602C9.5 7.94216 9.27614 8.16602 9 8.16602H5C4.72386 8.16602 4.5 7.94216 4.5 7.66602C4.5 7.38987 4.72386 7.16602 5 7.16602H9Z" fill="#FE857D"/>
<path d="M8 9.83398C8.27614 9.83398 8.5 10.0578 8.5 10.334C8.5 10.6101 8.27614 10.834 8 10.834H6C5.72386 10.834 5.5 10.6101 5.5 10.334C5.5 10.0578 5.72386 9.83398 6 9.83398H8Z" fill="#FE857D"/>
<path d="M1.96982 3.16693C2.24533 3.1504 2.48242 3.3608 2.49912 3.63633L3.08962 13.3831C3.11627 13.8229 3.48099 14.1663 3.92165 14.1663H10.0779C10.5186 14.1663 10.8833 13.8229 10.9099 13.3831L11.5004 3.63633C11.5171 3.3608 11.7542 3.1504 12.0297 3.16693C12.3053 3.18363 12.5156 3.42072 12.4991 3.69622L11.908 13.4436C11.8493 14.4113 11.0473 15.1663 10.0779 15.1663H3.92165C2.9522 15.1663 2.15022 14.4113 2.09157 13.4436L1.50042 3.69622C1.4839 3.42072 1.69429 3.18363 1.96982 3.16693Z" fill="#FE857D"/>
<path d="M8.22721 0.833984C8.69385 0.834042 9.11565 1.11211 9.29948 1.54102L9.99675 3.16732H13C13.2761 3.16732 13.5 3.39118 13.5 3.66732C13.5 3.94346 13.2761 4.16732 13 4.16732H1C0.723858 4.16732 0.5 3.94346 0.5 3.66732C0.5 3.39118 0.723858 3.16732 1 3.16732H4.00326L4.70052 1.54102C4.88435 1.11211 5.30615 0.834042 5.77279 0.833984H8.22721ZM5.77279 1.83398C5.70621 1.83404 5.64606 1.87372 5.61979 1.9349L5.0918 3.16732H8.9082L8.38021 1.9349C8.35394 1.87372 8.29379 1.83404 8.22721 1.83398H5.77279Z" fill="#FE857D"/>
</svg>
