<svg width="18" height="22" viewBox="0 0 18 22" fill="none" xmlns="http://www.w3.org/2000/svg">
<path d="M9.00146 21.7813C13.8478 21.781 17.7769 17.8513 17.7769 13.0049C17.7767 9.69914 15.5978 6.50743 13.5747 4.23145C12.5455 3.0736 11.5182 2.11112 10.7495 1.43848C10.3646 1.10172 9.88692 0.693878 9.45264 0.368164C9.24141 0.209742 8.96187 0.173979 8.71729 0.273438C8.47286 0.372955 8.29901 0.593723 8.2583 0.854492C7.92005 3.02106 7.5979 4.24761 6.69287 5.97168C6.52007 5.85711 6.39993 5.74841 6.30127 5.63281C6.10082 5.39786 5.93792 5.07694 5.68799 4.45215C5.59117 4.2101 5.37545 4.03513 5.11865 3.99023C4.86196 3.94544 4.60039 4.03671 4.42725 4.23145C2.40415 6.50743 0.225267 9.69914 0.225098 13.0049C0.225098 17.8515 4.15489 21.7812 9.00146 21.7813ZM5.99268 12.002C5.43878 12.002 4.98975 11.5529 4.98975 10.999C4.98999 10.4453 5.43893 9.99609 5.99268 9.99609H6.00342C6.55696 9.99633 7.0061 10.4455 7.00635 10.999C7.00635 11.5528 6.55711 12.0017 6.00342 12.002H5.99268ZM6.70166 17.7266C6.31001 18.1181 5.67436 18.1181 5.28271 17.7266C4.89107 17.3349 4.89112 16.6993 5.28271 16.3076L11.3003 10.29C11.692 9.8984 12.3276 9.89838 12.7192 10.29C13.1108 10.6817 13.1109 11.3173 12.7192 11.709L6.70166 17.7266ZM11.9985 18.0195C11.4448 18.0193 10.9956 17.5704 10.9956 17.0166C10.9958 16.463 11.4449 16.0139 11.9985 16.0137H12.0093C12.5631 16.0137 13.012 16.4629 13.0122 17.0166C13.0122 17.5705 12.5632 18.0195 12.0093 18.0195H11.9985Z" fill="#FFFA66"/>
</svg>
