<svg width="18" height="18" viewBox="0 0 18 18" fill="none" xmlns="http://www.w3.org/2000/svg">
<path fill-rule="evenodd" clip-rule="evenodd" d="M11.7358 6.26391C11.9628 6.49094 11.9628 6.85903 11.7358 7.08607L9.02279 9.79905C8.79575 10.0261 8.42766 10.0261 8.20063 9.79905C7.9736 9.57201 7.9736 9.20392 8.20063 8.97689L10.9136 6.26391C11.1406 6.03688 11.5087 6.03688 11.7358 6.26391Z" fill="#4DF2BE"/>
<path fill-rule="evenodd" clip-rule="evenodd" d="M15.3881 0.754105C16.5429 0.34166 17.658 1.45673 17.2456 2.61159L12.3324 16.3685C11.8433 17.7379 9.86878 17.6198 9.54651 16.2018L8.12516 9.87451L1.79788 8.45316C0.379872 8.13089 0.261725 6.15638 1.63117 5.66729L15.3881 0.754105ZM16.1506 2.22053C16.2331 1.98958 16.0101 1.76659 15.7791 1.84907L2.02223 6.76226C1.74856 6.86 1.77197 7.25436 2.05496 7.31923L8.73913 8.82075C8.95842 8.87001 9.12967 9.04126 9.17893 9.26055L10.6803 15.9441C10.745 16.2273 11.1397 16.2512 11.2374 15.9774L16.1506 2.22053Z" fill="#4DF2BE"/>
</svg>
