<svg width="13" height="16" viewBox="0 0 13 16" fill="none" xmlns="http://www.w3.org/2000/svg">
<path fill-rule="evenodd" clip-rule="evenodd" d="M9.86804 4.16602H9.86802H9.868H3.132H3.13198H3.13196C2.53299 4.166 2.03353 4.16598 1.63702 4.21929C1.21849 4.27556 0.84062 4.39934 0.536974 4.70299C0.233327 5.00664 0.109547 5.3845 0.053277 5.80303C-3.25988e-05 6.19954 -1.74722e-05 6.69901 6.66005e-07 7.29798V7.298V7.29802V7.36735V7.36737V7.36739C-1.74722e-05 7.96636 -3.25988e-05 8.46583 0.053277 8.86234C0.109547 9.28087 0.233327 9.65873 0.536974 9.96238C0.84062 10.266 1.21849 10.3898 1.63702 10.4461C2.03353 10.4994 2.53301 10.4994 3.13198 10.4994H3.13201H9.868H9.86802C10.467 10.4994 10.9665 10.4994 11.363 10.4461C11.7815 10.3898 12.1594 10.266 12.463 9.96238C12.7667 9.65873 12.8905 9.28087 12.9467 8.86234C13 8.46582 13 7.96634 13 7.36735V7.29802C13 6.69903 13 6.19955 12.9467 5.80303C12.8905 5.3845 12.7667 5.00664 12.463 4.70299C12.1594 4.39934 11.7815 4.27556 11.363 4.21929C10.9665 4.16598 10.467 4.166 9.86804 4.16602ZM2.85355 6.31246C2.65829 6.1172 2.34171 6.1172 2.14645 6.31246C1.95119 6.50773 1.95119 6.82431 2.14645 7.01957L2.45956 7.33268L2.14645 7.6458C1.95119 7.84106 1.95119 8.15764 2.14645 8.3529C2.34171 8.54816 2.65829 8.54816 2.85355 8.3529L3.16667 8.03979L3.47978 8.3529C3.67504 8.54816 3.99163 8.54816 4.18689 8.3529C4.38215 8.15764 4.38215 7.84106 4.18689 7.6458L3.87377 7.33268L4.18689 7.01957C4.38215 6.82431 4.38215 6.50773 4.18689 6.31246C3.99163 6.1172 3.67504 6.1172 3.47978 6.31246L3.16667 6.62558L2.85355 6.31246ZM5.47978 6.31246C5.67504 6.1172 5.99162 6.1172 6.18689 6.31246L6.5 6.62558L6.81311 6.31246C7.00837 6.1172 7.32496 6.1172 7.52022 6.31246C7.71548 6.50773 7.71548 6.82431 7.52022 7.01957L7.20711 7.33268L7.52022 7.6458C7.71548 7.84106 7.71548 8.15764 7.52022 8.3529C7.32496 8.54816 7.00837 8.54816 6.81311 8.3529L6.5 8.03979L6.18689 8.3529C5.99162 8.54816 5.67504 8.54816 5.47978 8.3529C5.28452 8.15764 5.28452 7.84106 5.47978 7.6458L5.79289 7.33268L5.47978 7.01957C5.28452 6.82431 5.28452 6.50773 5.47978 6.31246ZM9.52022 6.31246C9.32496 6.1172 9.00837 6.1172 8.81311 6.31246C8.61785 6.50773 8.61785 6.82431 8.81311 7.01957L9.12623 7.33268L8.81311 7.6458C8.61785 7.84106 8.61785 8.15764 8.81311 8.3529C9.00837 8.54816 9.32496 8.54816 9.52022 8.3529L9.83333 8.03979L10.1464 8.3529C10.3417 8.54816 10.6583 8.54816 10.8536 8.3529C11.0488 8.15764 11.0488 7.84106 10.8536 7.6458L10.5404 7.33268L10.8536 7.01957C11.0488 6.82431 11.0488 6.50773 10.8536 6.31246C10.6583 6.1172 10.3417 6.1172 10.1464 6.31246L9.83333 6.62558L9.52022 6.31246Z" fill="#4DF2BE"/>
<path fill-rule="evenodd" clip-rule="evenodd" d="M5.79729 0.833985H7.2038H7.20382C8.11553 0.833972 8.85041 0.833962 9.42838 0.911668C10.0284 0.992346 10.5337 1.16494 10.935 1.56622C11.3363 1.9675 11.5088 2.47275 11.5895 3.07282C11.6008 3.15656 11.6104 3.2436 11.6186 3.33399L1.38244 3.33399C1.39067 3.2436 1.4003 3.15656 1.41156 3.07282C1.49223 2.47275 1.66483 1.9675 2.06611 1.56622C2.46739 1.16494 2.97264 0.992346 3.57271 0.911668C4.15068 0.833962 4.88556 0.833972 5.79727 0.833985H5.79729ZM1.33496 11.334H11.6661C11.6627 11.9615 11.6485 12.4901 11.5895 12.9285C11.5088 13.5286 11.3363 14.0338 10.935 14.4351C10.5337 14.8364 10.0284 15.009 9.42838 15.0896C8.8504 15.1673 8.11552 15.1673 7.20379 15.1673H5.7973C4.88557 15.1673 4.15069 15.1673 3.57271 15.0896C2.97264 15.009 2.46739 14.8364 2.06611 14.4351C1.66483 14.0338 1.49223 13.5286 1.41156 12.9285C1.35262 12.4901 1.33839 11.9615 1.33496 11.334ZM7.16699 13.334C7.16699 12.9658 6.86852 12.6673 6.50033 12.6673C6.13214 12.6673 5.83366 12.9658 5.83366 13.334V13.3407C5.83366 13.7088 6.13214 14.0073 6.50033 14.0073C6.86852 14.0073 7.16699 13.7088 7.16699 13.3407V13.334Z" fill="#4DF2BE"/>
</svg>
