<svg width="19" height="20" viewBox="0 0 19 20" fill="none" xmlns="http://www.w3.org/2000/svg">
<path d="M9 18.3333C7.89543 18.3333 7 17.4379 7 16.3333L7 9.50141C7 8.39629 7.89629 7.50063 9.00141 7.50141L15.8347 7.50623C16.9388 7.50701 17.8333 8.40221 17.8333 9.50623L17.8333 16.3333C17.8333 17.4379 16.9379 18.3333 15.8333 18.3333H9Z" stroke="#FCFCFC" stroke-width="1.5" stroke-linecap="round" stroke-linejoin="round"/>
<path d="M13.6667 7.02413V3.67432C13.6667 2.57029 12.7722 1.67509 11.6681 1.67432L3.16814 1.66839C2.06303 1.66762 1.16675 2.56327 1.16675 3.66839L1.16675 12.167C1.16675 13.2716 2.06218 14.167 3.16675 14.167H6.52389" stroke="#FCFCFC" stroke-width="1.5" stroke-linejoin="round"/>
</svg>
