<svg width="22" height="22" viewBox="0 0 22 22" fill="none" xmlns="http://www.w3.org/2000/svg">
<path d="M11.001 0.217773C16.9551 0.217898 21.782 5.04495 21.7822 10.999C21.7822 16.9533 16.9552 21.7811 11.001 21.7812C5.04661 21.7812 0.219727 16.9534 0.219727 10.999C0.219984 5.04488 5.04677 0.217773 11.001 0.217773ZM11.001 5.98535C10.4471 5.98535 9.99805 6.43439 9.99805 6.98828V9.99707H6.98926C6.43536 9.99707 5.98633 10.4461 5.98633 11C5.98658 11.5537 6.43552 12.0029 6.98926 12.0029H9.99805V15.0107C9.99805 15.5646 10.4471 16.0137 11.001 16.0137C11.5546 16.0134 12.0029 15.5645 12.0029 15.0107V12.0029H15.0117C15.5655 12.0029 16.0144 11.5537 16.0146 11C16.0146 10.4461 15.5656 9.99707 15.0117 9.99707H12.0029V6.98828C12.0029 6.43455 11.5546 5.98561 11.001 5.98535Z" fill="#B773FF"/>
</svg>
