<svg width="16" height="16" viewBox="0 0 16 16" fill="none" xmlns="http://www.w3.org/2000/svg">
<path d="M9.6465 5.64644C9.84175 5.45118 10.1583 5.45119 10.3535 5.64644C10.5488 5.84169 10.5488 6.1582 10.3535 6.35347L8.70639 7.99995L10.3529 9.64644C10.5481 9.84171 10.5482 10.1582 10.3529 10.3535C10.1576 10.5486 9.84107 10.5487 9.64585 10.3535L8.00001 8.70698L6.35418 10.3535C6.15896 10.5487 5.84243 10.5486 5.64715 10.3535C5.45188 10.1582 5.4519 9.84171 5.64715 9.64644L7.29298 7.99995L5.6465 6.35347C5.45125 6.1582 5.45124 5.84169 5.6465 5.64644C5.84176 5.45119 6.15828 5.45118 6.35353 5.64644L8.00001 7.29292L9.6465 5.64644Z" fill="#FE857D"/>
<path d="M14.1666 8.0013C14.1666 11.4071 11.4057 14.168 7.99998 14.168C4.59422 14.168 1.83331 11.4071 1.83331 8.0013C1.83331 4.59555 4.59422 1.83463 7.99998 1.83463C11.4057 1.83463 14.1666 4.59555 14.1666 8.0013ZM15.1666 8.0013C15.1666 4.04326 11.958 0.834635 7.99998 0.834635C4.04194 0.834635 0.833313 4.04326 0.833313 8.0013C0.833313 11.9593 4.04194 15.168 7.99998 15.168C11.958 15.168 15.1666 11.9593 15.1666 8.0013Z" fill="#FE857D"/>
</svg>
