<svg width="15" height="16" viewBox="0 0 15 16" fill="none" xmlns="http://www.w3.org/2000/svg">
<path d="M0.5 7.99967C0.5 4.04163 3.70863 0.833008 7.66667 0.833008C10.8789 0.833008 13.5649 2.94523 14.4772 5.84994C14.5248 6.0017 14.4971 6.16699 14.403 6.29525C14.3088 6.42356 14.1592 6.49967 14 6.49967H12.3333C12.0572 6.49967 11.8333 6.27582 11.8333 5.99967C11.8333 5.72353 12.0572 5.49967 12.3333 5.49967H13.2773C12.3215 3.33754 10.1797 1.83301 7.66667 1.83301C4.26091 1.83301 1.5 4.59392 1.5 7.99967C1.5 11.4054 4.26091 14.1663 7.66667 14.1663C7.9428 14.1664 8.16667 14.3902 8.16667 14.6663C8.16667 14.9425 7.9428 15.1663 7.66667 15.1663C3.70862 15.1663 0.5 11.9577 0.5 7.99967Z" fill="#C7C7C7"/>
<path d="M7.16663 5.33301C7.16663 5.05687 7.39048 4.83301 7.66663 4.83301C7.94277 4.83301 8.16663 5.05687 8.16663 5.33301V7.79264L9.35347 8.97949C9.54874 9.17475 9.54874 9.49126 9.35347 9.68652C9.15821 9.88179 8.84171 9.88179 8.64644 9.68652L7.31311 8.35319C7.21934 8.25942 7.16663 8.13228 7.16663 7.99967V5.33301Z" fill="#C7C7C7"/>
<path d="M10.1248 13.9505C10.3759 13.8356 10.6726 13.9462 10.7876 14.1973C10.9024 14.4483 10.7924 14.7451 10.5415 14.86C10.3083 14.9668 10.0682 15.0605 9.82271 15.1413C9.56042 15.2276 9.2782 15.0852 9.19185 14.8229C9.10552 14.5606 9.24793 14.2784 9.51021 14.1921C9.72008 14.123 9.92508 14.042 10.1248 13.9505ZM12.0792 12.5306C12.2671 12.3284 12.5833 12.3168 12.7856 12.5046C12.9879 12.6924 13 13.0085 12.8123 13.2109C12.5938 13.4463 12.3603 13.667 12.1137 13.8711C11.901 14.0472 11.5854 14.0174 11.4093 13.8047C11.2335 13.592 11.2632 13.2769 11.4757 13.1009C11.6884 12.9249 11.8902 12.7342 12.0792 12.5306ZM13.4021 10.388C13.4995 10.1296 13.7876 9.99902 14.046 10.0964C14.3044 10.1937 14.4349 10.4819 14.3377 10.7402C14.231 11.0235 14.1081 11.2986 13.9705 11.5638C13.8433 11.8087 13.5417 11.9044 13.2967 11.7773C13.0516 11.6501 12.9559 11.348 13.0831 11.1029C13.2026 10.8727 13.3094 10.6341 13.4021 10.388ZM13.8331 8C13.8331 7.72386 14.057 7.5 14.3331 7.5C14.6093 7.5 14.8331 7.72386 14.8331 8C14.8331 8.23987 14.8224 8.47725 14.8012 8.71159C14.7764 8.98659 14.5332 9.18951 14.2583 9.16471C13.9833 9.13987 13.7803 8.89674 13.8051 8.62174C13.8236 8.41726 13.8331 8.20983 13.8331 8Z" fill="#C7C7C7"/>
</svg>
