<svg width="16" height="16" viewBox="0 0 16 16" fill="none" xmlns="http://www.w3.org/2000/svg">
<path d="M10.0088 1.94336C11.3186 1.74688 13.0904 1.74317 14.8721 2.54492C15.0514 2.62571 15.167 2.8043 15.167 3.00098V13.001C15.1669 13.1705 15.0808 13.3288 14.9385 13.4209C14.7961 13.5129 14.6165 13.5264 14.4619 13.457C12.9103 12.7588 11.3474 12.7541 10.1572 12.9326C9.56397 13.0216 9.06958 13.1551 8.72559 13.2656C8.55392 13.3208 8.4201 13.3705 8.33105 13.4053C8.28657 13.4226 8.22634 13.4481 8.20508 13.457C6.42369 14.2585 4.65247 14.254 3.34277 14.0576C2.68614 13.9591 2.13806 13.8113 1.75293 13.6875C1.56052 13.6256 1.40791 13.5697 1.30176 13.5283C1.2513 13.5086 1.16615 13.473 1.13281 13.459L1.12793 13.457C0.948606 13.3763 0.833081 13.1976 0.833008 13.001V3.00098C0.833008 2.83143 0.919223 2.6732 1.06152 2.58105C1.2039 2.489 1.38344 2.47546 1.53809 2.54492C1.55941 2.5539 1.62052 2.57932 1.66504 2.59668C1.75412 2.63141 1.888 2.6802 2.05957 2.73535C2.4036 2.84592 2.89795 2.97937 3.49121 3.06836C4.68134 3.24684 6.24339 3.24311 7.79492 2.54492H7.7959L7.7998 2.54297C7.83245 2.52922 7.91688 2.49349 7.96777 2.47363C8.074 2.4322 8.22712 2.37545 8.41992 2.31348C8.80498 2.18971 9.35235 2.04184 10.0088 1.94336ZM8 6.00098C6.89543 6.00098 6 6.89641 6 8.00098C6.00009 9.10547 6.89548 10.001 8 10.001C9.10452 10.001 9.99991 9.10547 10 8.00098C10 6.89641 9.10457 6.00098 8 6.00098ZM3.66699 8.00098C3.2988 8.00098 3 8.29978 3 8.66797V8.67383C3.00019 9.04185 3.29892 9.33984 3.66699 9.33984C4.03491 9.33967 4.33281 9.04174 4.33301 8.67383V8.66797C4.33301 8.29989 4.03503 8.00115 3.66699 8.00098ZM12.333 6.66211C11.965 6.66229 11.667 6.96102 11.667 7.3291V7.33496C11.667 7.70303 11.965 8.00178 12.333 8.00195C12.7012 8.00195 13 7.70314 13 7.33496V7.3291C13 6.96091 12.7012 6.66211 12.333 6.66211Z" fill="#4DF2BE"/>
</svg>
