<svg width="200" height="200" viewBox="0 0 200 200" fill="none" xmlns="http://www.w3.org/2000/svg">
<path fill-rule="evenodd" clip-rule="evenodd" d="M63.5766 131.334C62.9659 131.636 62.3452 131.919 61.7152 132.183C57.0091 134.21 52.2156 135.062 47.3924 135.062C37.8202 135.062 28.9074 132.459 22.1119 125.861C15.2019 119.246 12.5 110.278 12.5 100.533C12.5 94.4452 13.638 88.4555 16.6387 83.0071C19.5366 77.7454 23.7498 73.4616 29.219 70.5309C34.597 67.649 40.5423 66.3603 46.8449 66.3603C53.1696 66.3603 59.0255 67.827 64.2021 70.6721L64.3391 70.7474L64.4736 70.8267C64.793 71.015 65.1085 71.208 65.4202 71.4054C66.8646 66.238 69.6051 61.5712 74.013 57.8219C80.4554 52.2633 88.6654 50 97.3919 50C105.903 50 113.696 52.1955 120.062 57.1845C123.86 60.1611 126.497 63.7689 128.111 67.7829H147.825C150.676 66.8338 153.69 66.3603 156.806 66.3603C162.725 66.3603 168.215 67.9939 172.961 70.9858L173.049 71.0413L173.136 71.0985C177.987 74.2959 181.496 78.6476 183.903 83.7079L183.923 83.7492L183.942 83.7907C186.35 88.9755 187.5 94.673 187.5 100.8C187.5 106.89 186.363 112.614 183.923 117.762C181.523 122.914 177.974 127.366 172.961 130.526C168.075 133.606 162.553 135.062 156.806 135.062C154.209 135.062 151.682 134.733 149.262 134.074V150H117.624V133.64H63.5987L63.5766 131.334ZM81.2388 108.18L73.6641 114.138L73.7554 123.651H119.386V113.871H103.689C97.5745 113.871 92.5551 114.049 88.6309 114.404L88.4484 113.782L94.1066 109.692C100.221 105.246 104.967 101.601 108.252 98.7553C111.537 95.91 114.366 92.887 116.557 89.5082C118.747 86.1295 119.842 82.484 119.842 78.5717C119.842 72.7923 117.834 68.2576 113.636 64.9678C109.438 61.678 104.054 59.9886 97.3919 59.9886C90.4561 59.9886 84.8892 61.7669 80.7825 65.3235C76.5845 68.88 74.4855 74.0371 74.3942 80.8835H85.8018C85.8931 76.9713 86.9882 74.0371 88.9959 72.081C91.0037 70.1248 93.8328 69.1468 97.3919 69.1468C100.586 69.1468 103.141 70.0359 105.058 71.7253C106.974 73.5036 107.978 75.8154 107.978 78.8385C107.978 81.5948 106.883 84.3512 104.875 87.1075C102.868 89.9528 100.13 92.798 96.6618 95.7322C93.1939 98.7553 88.0833 102.845 81.2388 108.18ZM33.4295 102.756H70.1164V99.1999C70.1164 95.0209 69.1125 91.1976 67.2873 87.641C65.3708 84.1733 62.633 81.417 59.1651 79.3719C55.6059 77.4158 51.4992 76.3489 46.8449 76.3489C42.0081 76.3489 37.8101 77.3269 34.1596 79.283C30.5092 81.2392 27.6801 84.0844 25.6724 87.7299C23.6646 91.3754 22.752 95.6433 22.752 100.534C22.752 108.536 24.9423 114.582 29.3228 118.761C33.7033 123.029 39.7265 125.074 47.3924 125.074C50.9516 125.074 54.3283 124.452 57.6137 123.029C60.8078 121.695 63.5456 119.739 65.7359 117.072C67.9261 114.404 69.2038 111.292 69.7513 107.647H59.6214C58.9826 110.314 57.6137 112.537 55.4234 114.138C53.2331 115.827 50.5866 116.627 47.3924 116.627C43.2857 116.627 40.0003 115.471 37.445 112.982C34.8897 110.581 33.5208 107.202 33.4295 102.756ZM167.392 79.3719C170.495 81.417 172.867 84.2622 174.601 87.9077C176.335 91.6422 177.248 95.91 177.248 100.8C177.248 105.691 176.335 109.959 174.601 113.604C172.867 117.338 170.495 120.184 167.392 122.14C164.289 124.096 160.73 125.074 156.806 125.074C152.699 125.074 149.048 123.829 145.946 121.34C142.751 118.85 140.561 115.382 139.375 110.759H139.01V140.012H127.876V77.7715H138.553L139.01 90.753H139.375C140.561 86.1294 142.751 82.5729 145.946 80.0833C149.048 77.5937 152.699 76.3489 156.806 76.3489C160.73 76.3489 164.289 77.4158 167.392 79.3719Z" fill="#0F1012"/>
</svg>
