<svg width="12" height="12" viewBox="0 0 12 12" fill="none" xmlns="http://www.w3.org/2000/svg">
<path fill-rule="evenodd" clip-rule="evenodd" d="M6 0.625C3.03147 0.625 0.625 3.03147 0.625 6C0.625 8.96853 3.03147 11.375 6 11.375C8.96853 11.375 11.375 8.96853 11.375 6C11.375 3.03147 8.96853 0.625 6 0.625ZM6.5 3.5C6.5 3.22386 6.27614 3 6 3C5.72386 3 5.5 3.22386 5.5 3.5V4.85401C5.05852 5.0469 4.75 5.48742 4.75 6C4.75 6.69036 5.30964 7.25 6 7.25C6.16121 7.25 6.3153 7.21948 6.4568 7.1639L7.14645 7.85355C7.34171 8.04882 7.65829 8.04882 7.85355 7.85355C8.04882 7.65829 8.04882 7.34171 7.85355 7.14645L7.1639 6.4568C7.21948 6.3153 7.25 6.16121 7.25 6C7.25 5.48742 6.94148 5.0469 6.5 4.85401V3.5Z" fill="#8F8F8F"/>
</svg>
