<svg width="73" height="74" viewBox="0 0 73 74" fill="none" xmlns="http://www.w3.org/2000/svg">
<rect x="0.710449" y="0.983398" width="71.5789" height="66.722" rx="3.9834" fill="#1A1A1A"/>
<path d="M12.2896 67.7051H19.3071V69.5075C19.3071 71.4453 17.7362 73.0163 15.7983 73.0163C13.8605 73.0163 12.2896 71.4453 12.2896 69.5075V67.7051Z" fill="#5C5C5C"/>
<path d="M53.6929 67.7051H60.7104V69.5075C60.7104 71.4453 59.1395 73.0163 57.2016 73.0163C55.2638 73.0163 53.6929 71.4453 53.6929 69.5075V67.7051Z" fill="#5C5C5C"/>
<rect x="4.57031" y="15.2568" width="2.80702" height="5.9751" rx="1.40351" fill="#5C5C5C"/>
<rect x="4.57031" y="47.7881" width="2.80702" height="5.97511" rx="1.40351" fill="#5C5C5C"/>
<rect x="7.37695" y="7.29053" width="58.2456" height="54.1079" rx="1.9917" fill="#2D2D2D"/>
<rect x="7.37744" y="7.29004" width="54.0351" height="54.1079" rx="1.9917" fill="#2D2D2D"/>
<rect x="58.9561" y="7.29004" width="2.45614" height="54.1079" rx="1.22807" fill="#4A4A4A"/>
<path d="M36.4001 23.5292C36.5843 22.879 37.2646 22.4864 37.9196 22.6523C38.5748 22.8183 38.9564 23.4805 38.7722 24.1308L38.4509 25.2616C40.3173 25.9606 41.9262 27.1405 43.1062 28.6415L44.2614 28.0116C44.8327 27.6998 45.5708 27.8974 45.9099 28.453C46.2486 29.0086 46.06 29.7113 45.489 30.0234L44.3347 30.6532C44.9001 31.8868 45.2165 33.2465 45.2165 34.6767C45.2165 35.1793 45.1751 35.6731 45.1003 36.1562L46.4118 36.4892C47.0359 36.6476 47.3997 37.2778 47.2243 37.8974C47.0488 38.5171 46.4004 38.8914 45.7761 38.7333L44.4646 38.4003C43.7256 40.1662 42.4801 41.6893 40.8933 42.8056L41.5261 43.8417C41.8746 44.413 41.6817 45.1361 41.0944 45.457C40.5071 45.7778 39.7478 45.5742 39.3991 45.0029L38.7673 43.9677C37.4635 44.5026 36.026 44.8017 34.5144 44.8017C33.9825 44.8017 33.46 44.7622 32.9489 44.6913L32.6286 45.8241C32.4443 46.4741 31.764 46.866 31.1091 46.7001C30.454 46.5341 30.0725 45.8728 30.2566 45.2226L30.5769 44.0907C28.7106 43.3915 27.1004 42.213 25.9206 40.7118L24.7683 41.3417C24.1969 41.6538 23.459 41.456 23.1198 40.9003C22.7809 40.3447 22.9686 39.6421 23.5398 39.33L24.6931 38.6991C24.128 37.4659 23.8122 36.1064 23.8122 34.6767C23.8122 34.1734 23.8525 33.6788 23.9274 33.1952L22.6179 32.8632C21.9935 32.7049 21.6298 32.0738 21.8054 31.454C21.9809 30.8343 22.6292 30.4599 23.2536 30.6181L24.5642 30.9501C25.3034 29.1852 26.5491 27.6626 28.1355 26.5468L27.5036 25.5116C27.155 24.9403 27.3489 24.2163 27.9362 23.8954C28.5235 23.5748 29.2819 23.7784 29.6306 24.3495L30.2614 25.3837C31.565 24.849 33.003 24.5527 34.5144 24.5527C35.0459 24.5527 35.5681 24.5903 36.0788 24.6611L36.4001 23.5292Z" fill="#5C5C5C"/>
<ellipse cx="34.2194" cy="34.6759" rx="7.89474" ry="7.46888" fill="#3A3A3A"/>
</svg>
