<svg width="11" height="12" viewBox="0 0 11 12" fill="none" xmlns="http://www.w3.org/2000/svg">
<path fill-rule="evenodd" clip-rule="evenodd" d="M0.138672 6.00055C0.138672 3.04736 2.53271 0.65332 5.4859 0.65332C7.4671 0.65332 9.18085 1.73086 10.0992 3.32764C10.2919 3.66267 10.4497 4.02068 10.5677 4.39655C10.6141 4.54421 10.5874 4.70512 10.4958 4.82988C10.4042 4.95463 10.2587 5.02833 10.1039 5.02833H8.88867C8.70118 5.02833 8.53041 4.92051 8.44979 4.75124C8.36917 4.58197 8.39308 4.38143 8.51124 4.23587L9.08162 3.53314C8.29821 2.37988 6.98542 1.62554 5.4859 1.62554C3.06965 1.62554 1.1109 3.5843 1.1109 6.00055C1.1109 8.4168 3.06964 10.3756 5.48588 10.3756C5.75436 10.3756 5.972 10.5932 5.972 10.8617C5.972 11.1301 5.75436 11.3478 5.48588 11.3478C2.53269 11.3478 0.138672 8.95374 0.138672 6.00055Z" fill="#66B9FF"/>
<path fill-rule="evenodd" clip-rule="evenodd" d="M5.48611 3.56934C5.75458 3.56934 5.97222 3.78698 5.97222 4.05545V5.79854L6.80207 6.62839C6.99191 6.81822 6.99191 7.12601 6.80207 7.31585C6.61223 7.50569 6.30444 7.50569 6.1146 7.31585L5.14238 6.34363C5.05122 6.25247 5 6.12882 5 5.9999V4.05545C5 3.78698 5.21764 3.56934 5.48611 3.56934Z" fill="#66B9FF"/>
<path fill-rule="evenodd" clip-rule="evenodd" d="M10.347 5.51465C10.6155 5.51465 10.8331 5.73229 10.8331 6.00076C10.8331 6.17934 10.8251 6.35608 10.8093 6.5306C10.7852 6.79799 10.5488 6.99517 10.2815 6.97101C10.0141 6.94686 9.8169 6.71052 9.84105 6.44314C9.85419 6.29767 9.86092 6.15011 9.86092 6.00076C9.86092 5.73229 10.0786 5.51465 10.347 5.51465ZM10.1806 7.41555C10.4318 7.51018 10.5587 7.79057 10.4641 8.04181C10.3846 8.25283 10.2932 8.45762 10.1906 8.65525C10.0669 8.89354 9.7735 8.98646 9.5352 8.86278C9.29691 8.73911 9.204 8.44568 9.32767 8.20739C9.41259 8.04376 9.48838 7.87408 9.55429 7.6991C9.64893 7.44786 9.92931 7.32091 10.1806 7.41555ZM9.30145 9.19624C9.49822 9.37889 9.50967 9.68646 9.32703 9.88323C9.16407 10.0588 8.99005 10.2233 8.80606 10.3756C8.59923 10.5468 8.2928 10.5178 8.12164 10.311C7.95047 10.1042 7.97938 9.79775 8.18622 9.62659C8.33716 9.50168 8.48023 9.36644 8.61446 9.22183C8.7971 9.02506 9.10467 9.0136 9.30145 9.19624ZM7.87235 10.4688C7.98412 10.7129 7.87684 11.0014 7.63274 11.1132C7.45864 11.1929 7.27961 11.2633 7.09623 11.3236C6.84122 11.4076 6.56645 11.2689 6.48251 11.0139C6.39857 10.7588 6.53726 10.4841 6.79227 10.4001C6.941 10.3512 7.0864 10.2941 7.22799 10.2292C7.47209 10.1175 7.76058 10.2247 7.87235 10.4688Z" fill="#66B9FF"/>
</svg>
