<svg width="16" height="16" viewBox="0 0 16 16" fill="none" xmlns="http://www.w3.org/2000/svg">
<path fill-rule="evenodd" clip-rule="evenodd" d="M3.5 4.00065C3.5 2.25175 4.91776 0.833984 6.66667 0.833984C8.41557 0.833984 9.83333 2.25175 9.83333 4.00065C9.83333 5.74955 8.41557 7.16732 6.66667 7.16732C4.91776 7.16732 3.5 5.74955 3.5 4.00065Z" fill="#4DF2BE"/>
<path fill-rule="evenodd" clip-rule="evenodd" d="M15.0935 8.82055C15.3763 9.05626 15.4145 9.47664 15.1788 9.75949L11.8455 13.7595C11.7256 13.9034 11.5507 13.9902 11.3635 13.9987C11.1764 14.0072 10.9944 13.9366 10.8619 13.8041L9.19526 12.1374C8.93491 11.8771 8.93491 11.455 9.19526 11.1946C9.45561 10.9343 9.87772 10.9343 10.1381 11.1946L11.2885 12.3451L14.1545 8.90591C14.3902 8.62306 14.8106 8.58484 15.0935 8.82055Z" fill="#4DF2BE"/>
<path d="M11.5969 10.4132L11.2215 10.8637L10.8453 10.4875C10.1945 9.83665 9.13919 9.83665 8.48832 10.4875C7.83744 11.1384 7.83744 12.1937 8.48832 12.8445L9.47646 13.8327H1.3335C1.05735 13.8327 0.833496 13.6088 0.833496 13.3327C0.833496 10.4792 3.14669 8.16602 6.00016 8.16602H7.3335C9.1036 8.16602 10.6658 9.05616 11.5969 10.4132Z" fill="#4DF2BE"/>
</svg>
