<svg width="12" height="8" viewBox="0 0 12 8" fill="none" xmlns="http://www.w3.org/2000/svg">
<path d="M5.99985 0.875C6.33847 0.875013 6.66078 1.02591 6.91538 1.17936C7.18718 1.34322 7.4714 1.56532 7.75115 1.8125C8.31201 2.30806 8.91646 2.95712 9.46583 3.58984C10.0179 4.22563 10.5266 4.85987 10.8965 5.33382C11.0816 5.57107 11.2326 5.76942 11.3376 5.90837C11.3901 5.97786 11.4316 6.03269 11.4596 6.07031C11.4735 6.08896 11.4841 6.10354 11.4914 6.11344C11.4949 6.11822 11.4976 6.12222 11.4995 6.12484C11.5005 6.1261 11.5014 6.12738 11.502 6.12809L11.5028 6.12891L11.5028 6.12972C11.7074 6.40765 11.648 6.79826 11.3701 7.00293C11.0922 7.20754 10.7016 7.14818 10.4969 6.87028L10.4961 6.87028C10.4958 6.86981 10.4952 6.86885 10.4945 6.86784C10.4929 6.86567 10.4905 6.86175 10.4872 6.85726C10.4805 6.84828 10.4702 6.83504 10.457 6.81738C10.4305 6.78181 10.3914 6.72905 10.3407 6.66195C10.2391 6.52747 10.0916 6.33429 9.91098 6.10286C9.54927 5.63939 9.05488 5.02328 8.52182 4.40934C7.98603 3.79227 7.42271 3.19179 6.9227 2.75C6.67195 2.52845 6.4518 2.3599 6.27003 2.25033C6.07116 2.13045 5.99049 2.125 5.99985 2.125C6.00891 2.12502 5.92818 2.13067 5.72967 2.25033C5.5479 2.35991 5.32694 2.52843 5.07618 2.75C4.57619 3.19184 4.0136 3.79313 3.47788 4.41016C2.94488 5.02405 2.45039 5.63942 2.08872 6.10286C1.90811 6.33429 1.7606 6.52747 1.65903 6.66195C1.60834 6.72906 1.56917 6.78181 1.54266 6.81738C1.5294 6.83517 1.5192 6.84909 1.51254 6.85807C1.50934 6.8624 1.50679 6.86572 1.50522 6.86784C1.50446 6.86886 1.50394 6.86981 1.50359 6.87028L1.50278 6.87028C1.2981 7.14819 0.907502 7.20756 0.62957 7.00293C0.351658 6.79825 0.292292 6.40765 0.496919 6.12972L0.496919 6.12891L0.497734 6.12809C0.498257 6.12738 0.499256 6.12608 0.500175 6.12484C0.502109 6.12222 0.504788 6.1182 0.508313 6.11344C0.515652 6.10354 0.526156 6.08896 0.540051 6.07031C0.568091 6.03269 0.609633 5.97786 0.662122 5.90837C0.767043 5.76945 0.918138 5.57178 1.1032 5.33463C1.4731 4.86065 1.98174 4.22576 2.53387 3.58984C3.08323 2.95711 3.6877 2.30806 4.24855 1.8125C4.52829 1.56532 4.81252 1.34322 5.08432 1.17936C5.33892 1.02592 5.66124 0.874997 5.99985 0.875Z" fill="#DBDBDB"/>
</svg>
