<svg width="78" height="16" viewBox="0 0 78 16" fill="none" xmlns="http://www.w3.org/2000/svg">
<path d="M25.3216 4.57637C23.2048 4.57637 21.4795 6.18647 21.4795 8.40407C21.4795 10.6082 23.2048 12.2318 25.3216 12.2318C27.4393 12.2318 29.1646 10.6082 29.1646 8.40407C29.1637 6.18647 27.4384 4.57637 25.3216 4.57637ZM25.3216 10.7252C24.1615 10.7252 23.1616 9.76847 23.1616 8.40497C23.1616 7.02707 24.1624 6.08477 25.3216 6.08477C26.4817 6.08477 27.4816 7.02707 27.4816 8.40497C27.4816 9.76757 26.4817 10.7252 25.3216 10.7252ZM16.939 4.57637C14.8222 4.57637 13.0969 6.18647 13.0969 8.40407C13.0969 10.6082 14.8222 12.2318 16.939 12.2318C19.0567 12.2318 20.782 10.6082 20.782 8.40407C20.782 6.18647 19.0567 4.57637 16.939 4.57637ZM16.939 10.7252C15.7789 10.7252 14.779 9.76847 14.779 8.40497C14.779 7.02707 15.7798 6.08477 16.939 6.08477C18.0991 6.08477 19.099 7.02707 19.099 8.40497C19.0999 9.76757 18.0991 10.7252 16.939 10.7252ZM6.96881 5.75177V7.37537H10.855C10.7389 8.28887 10.4347 8.95577 9.97031 9.41927C9.40511 9.98447 8.52041 10.6082 6.96881 10.6082C4.57661 10.6082 2.70641 8.67947 2.70641 6.28727C2.70641 3.89507 4.57661 1.96637 6.96881 1.96637C8.25941 1.96637 9.20171 2.47397 9.89741 3.12647L11.0431 1.98077C10.0711 1.05287 8.78141 0.342774 6.96881 0.342774C3.69191 0.342774 0.937012 3.01037 0.937012 6.28727C0.937012 9.56417 3.69191 12.2318 6.96881 12.2318C8.73731 12.2318 10.072 11.6513 11.1151 10.5641C12.1879 9.49127 12.5218 7.98287 12.5218 6.76517C12.5218 6.38897 12.493 6.04067 12.4345 5.75087H6.96881V5.75177ZM47.746 7.01267C47.4274 6.15767 46.4554 4.57637 44.4691 4.57637C42.4972 4.57637 40.8583 6.12797 40.8583 8.40407C40.8583 10.5497 42.4828 12.2318 44.6572 12.2318C46.4113 12.2318 47.4265 11.159 47.8477 10.5353L46.5427 9.66497C46.108 10.3031 45.5131 10.7234 44.6572 10.7234C43.8022 10.7234 43.1929 10.3319 42.8014 9.56327L47.9197 7.44647L47.746 7.01267ZM42.526 8.28887C42.4828 6.80927 43.6717 6.05597 44.5276 6.05597C45.1945 6.05597 45.7597 6.38987 45.9487 6.86777L42.526 8.28887ZM38.3653 12.0005H40.0465V0.749574H38.3653V12.0005ZM35.6095 5.43227H35.5519C35.1748 4.98227 34.4494 4.57637 33.5368 4.57637C31.6225 4.57637 29.8684 6.25847 29.8684 8.41937C29.8684 10.565 31.6225 12.2327 33.5368 12.2327C34.4503 12.2327 35.1748 11.8268 35.5519 11.3633H35.6095V11.9141C35.6095 13.3784 34.8265 14.1614 33.5656 14.1614C32.536 14.1614 31.8979 13.4225 31.6369 12.7988L30.1726 13.4081C30.5929 14.4224 31.7089 15.6698 33.5656 15.6698C35.5375 15.6698 37.2052 14.5097 37.2052 11.6819V4.80947H35.6104V5.43227H35.6095ZM33.6817 10.7252C32.5216 10.7252 31.5505 9.75317 31.5505 8.41937C31.5505 7.07027 32.5216 6.08477 33.6817 6.08477C34.8265 6.08477 35.7256 7.07027 35.7256 8.41937C35.7256 9.75317 34.8265 10.7252 33.6817 10.7252ZM55.6246 0.749574H51.6007V12.0005H53.2792V7.73807H55.6237C57.4849 7.73807 59.3155 6.39077 59.3155 4.24427C59.3155 2.09777 57.4858 0.749574 55.6246 0.749574ZM55.6678 6.17207H53.2792V2.31557H55.6678C56.9233 2.31557 57.6361 3.35507 57.6361 4.24427C57.6361 5.11547 56.9233 6.17207 55.6678 6.17207ZM66.0466 4.55657C64.8307 4.55657 63.5716 5.09207 63.0505 6.27917L64.5409 6.90107C64.8595 6.27917 65.4535 6.07577 66.0754 6.07577C66.9439 6.07577 67.8268 6.59687 67.8412 7.52297V7.63907C67.537 7.46537 66.8854 7.20527 66.0898 7.20527C64.4833 7.20527 62.8471 8.08817 62.8471 9.73787C62.8471 11.2436 64.1647 12.2129 65.6407 12.2129C66.7693 12.2129 67.3921 11.7062 67.7827 11.1122H67.8403V11.9807H69.4621V7.66697C69.463 5.67077 67.9708 4.55657 66.0466 4.55657ZM65.8432 10.7225C65.2942 10.7225 64.5265 10.4471 64.5265 9.76667C64.5265 8.89817 65.4823 8.56517 66.3076 8.56517C67.0447 8.56517 67.393 8.72447 67.8412 8.94137C67.7107 9.98448 66.8134 10.7225 65.8432 10.7225ZM75.3679 4.80227L73.4428 9.68027H73.3852L71.3872 4.80227H69.5782L72.5743 11.6198L70.8661 15.4124H72.6175L77.2354 4.80227H75.3679ZM60.2425 12.0005H61.921V0.749574H60.2425V12.0005Z" fill="white"/>
</svg>
