<svg width="10" height="10" viewBox="0 0 10 10" fill="none" xmlns="http://www.w3.org/2000/svg">
<path fill-rule="evenodd" clip-rule="evenodd" d="M4.9999 9.18046C2.69104 9.18046 0.819336 7.30876 0.819336 4.9999C0.819336 2.69104 2.69104 0.819336 4.9999 0.819336C7.30876 0.819336 9.18046 2.69104 9.18046 4.9999C9.18046 7.30876 7.30876 9.18046 4.9999 9.18046ZM6.74212 3.98006C6.93056 3.87701 6.99978 3.6407 6.89672 3.45226C6.79367 3.26382 6.55737 3.19461 6.36893 3.29766C5.65779 3.68656 5.06974 4.43712 4.67436 5.04254C4.52824 5.26629 4.40343 5.47813 4.30355 5.65756C4.21039 5.56717 4.11812 5.48872 4.0356 5.42348C3.92761 5.3381 3.83044 5.27076 3.75959 5.22435L3.63707 5.14827C3.4505 5.04187 3.213 5.10685 3.1066 5.29342C3.00022 5.47995 3.06515 5.71738 3.25161 5.82382L3.33339 5.87497C3.38893 5.91135 3.46676 5.96524 3.55322 6.0336C3.73116 6.17428 3.92317 6.3587 4.044 6.56071C4.11816 6.68469 4.25493 6.75735 4.39917 6.74938C4.54338 6.74143 4.67134 6.6541 4.73143 6.52277L4.76963 6.44287C4.79596 6.38903 4.8354 6.31035 4.88673 6.21337C4.98959 6.01905 5.13915 5.75327 5.32557 5.46782C5.70797 4.88227 6.20881 4.27171 6.74212 3.98006Z" fill="#05C66D"/>
</svg>
