<svg width="18" height="19" viewBox="0 0 18 19" fill="none" xmlns="http://www.w3.org/2000/svg">
<path fill-rule="evenodd" clip-rule="evenodd" d="M5.0415 9.20029C5.0415 9.84859 5.07896 10.4742 5.14605 11.0749H0.238034C0.109264 10.4702 0.0415039 9.84295 0.0415039 9.19987C0.0415039 8.55679 0.109264 7.92954 0.238034 7.32487L5.14615 7.32487C5.079 7.92577 5.0415 8.55169 5.0415 9.20029ZM5.33287 6.07487L0.601642 6.07487C1.68843 3.15541 4.25397 0.955669 7.38773 0.3862C7.24703 0.672222 7.10022 0.98237 6.9517 1.29613L6.95168 1.29618C6.89093 1.42451 6.8299 1.55345 6.76888 1.68158C6.2146 2.84558 5.65896 4.33292 5.33287 6.07487ZM6.60634 6.07487L11.3933 6.07487C11.0863 4.55738 10.5949 3.25361 10.1022 2.219C10.0282 2.06351 9.95416 1.90634 9.88081 1.75057C9.61083 1.17725 9.34984 0.623007 9.12959 0.242456C9.08641 0.241844 9.04316 0.241535 8.99984 0.241535C8.95651 0.241535 8.91326 0.241844 8.87008 0.242456C8.64983 0.623007 8.38884 1.17725 8.11887 1.75057C8.04551 1.90634 7.9715 2.06351 7.89746 2.219C7.40479 3.25361 6.91334 4.55738 6.60634 6.07487ZM11.5951 7.32487L6.40458 7.32487C6.33224 7.92394 6.2915 8.55001 6.2915 9.20029C6.2915 9.85027 6.33221 10.4761 6.40448 11.0749L11.5952 11.0749C11.6675 10.4761 11.7082 9.85027 11.7082 9.20029C11.7082 8.55001 11.6674 7.92394 11.5951 7.32487ZM12.6668 6.07487C12.3407 4.33292 11.7851 2.84558 11.2308 1.68158C11.1698 1.55345 11.1087 1.42451 11.048 1.29618L11.0479 1.29602C10.8994 0.982302 10.7526 0.67219 10.6119 0.3862C13.7457 0.955669 16.3112 3.15541 17.398 6.07487H12.6668ZM17.7616 7.32487H12.8535C12.9207 7.92577 12.9582 8.55169 12.9582 9.20029C12.9582 9.84859 12.9207 10.4742 12.8536 11.0749H17.7616C17.8904 10.4702 17.9582 9.84295 17.9582 9.19987C17.9582 8.55679 17.8904 7.92954 17.7616 7.32487ZM6.60616 12.3249L11.3935 12.3249C11.0865 13.8427 10.595 15.1468 10.1022 16.1816C10.029 16.3354 9.95575 16.4908 9.88317 16.6449C9.61236 17.2198 9.3505 17.7758 9.12961 18.1573C9.08643 18.1579 9.04317 18.1582 8.99984 18.1582C8.95651 18.1582 8.91325 18.1579 8.87006 18.1573C8.64917 17.7758 8.3873 17.2198 8.11649 16.6449L8.11648 16.6449C8.04391 16.4908 7.9707 16.3354 7.89746 16.1816C7.4047 15.1468 6.91316 13.8427 6.60616 12.3249ZM12.667 12.3249H17.398C16.3113 15.2443 13.7458 17.444 10.6122 18.0135C10.7537 17.7259 10.9015 17.4138 11.0509 17.0982L11.051 17.0981L11.051 17.0981L11.0514 17.0972C11.111 16.9713 11.1709 16.8448 11.2308 16.719C11.7852 15.5548 12.3409 14.0672 12.667 12.3249ZM0.601642 12.3249H5.33271C5.65878 14.0672 6.21451 15.5548 6.76888 16.719C6.82853 16.8443 6.8882 16.9703 6.9476 17.0957L6.94841 17.0975L6.94847 17.0976L6.94874 17.0981C7.09818 17.4138 7.24593 17.7258 7.3875 18.0135C4.25385 17.444 1.6884 15.2443 0.601642 12.3249Z" fill="#DBDBDB"/>
</svg>
