<svg width="19" height="18" viewBox="0 0 19 18" fill="none" xmlns="http://www.w3.org/2000/svg">
<path fill-rule="evenodd" clip-rule="evenodd" d="M11.142 0.727593C9.92511 0.646706 8.65583 0.646877 7.44142 0.727593C3.63588 0.980561 0.616469 4.05248 0.368206 7.89394C0.321763 8.61261 0.321763 9.35604 0.368206 10.0747C0.460647 11.505 1.0846 12.7953 1.77821 13.8423C1.98599 14.2436 1.87773 14.8454 1.48912 15.5818L1.47121 15.6157C1.34064 15.863 1.21284 16.1051 1.13911 16.3115C1.06098 16.5302 0.980232 16.8774 1.18164 17.2208C1.25138 17.3397 1.3477 17.4528 1.48184 17.5426C1.61102 17.6291 1.74601 17.6743 1.86664 17.7002C2.08098 17.7464 2.34626 17.7488 2.61718 17.7488C3.79617 17.7759 4.62763 17.4347 5.28651 16.9489C5.41759 16.8522 5.5076 16.7861 5.57538 16.7395C5.67393 16.7756 5.80866 16.8309 6.00705 16.9127C6.45821 17.0985 6.97065 17.2097 7.44142 17.241C8.65582 17.3218 9.92509 17.322 11.142 17.241C14.9475 16.9881 17.9669 13.9161 18.2152 10.0747C18.2616 9.35603 18.2616 8.61258 18.2152 7.89393C17.9669 4.05247 14.9475 0.980562 11.142 0.727593ZM5.95837 8.37533C5.49814 8.37533 5.12504 8.74842 5.12504 9.20866C5.12504 9.6689 5.49814 10.042 5.95837 10.042H5.96585C6.42609 10.042 6.79918 9.6689 6.79918 9.20866C6.79918 8.74842 6.42609 8.37533 5.96585 8.37533H5.95837ZM9.28799 8.37533C8.82775 8.37533 8.45466 8.74842 8.45466 9.20866C8.45466 9.6689 8.82775 10.042 9.28799 10.042H9.29541C9.75564 10.042 10.1287 9.6689 10.1287 9.20866C10.1287 8.74842 9.75564 8.37533 9.29541 8.37533H9.28799ZM12.6176 8.37533C12.1573 8.37533 11.7842 8.74842 11.7842 9.20866C11.7842 9.6689 12.1573 10.042 12.6176 10.042H12.6251C13.0853 10.042 13.4584 9.6689 13.4584 9.20866C13.4584 8.74842 13.0853 8.37533 12.6251 8.37533H12.6176Z" fill="white"/>
</svg>
