<svg width="20" height="20" viewBox="0 0 20 20" fill="none" xmlns="http://www.w3.org/2000/svg">
<path d="M16.25 1.45801C17.5156 1.45801 18.542 2.48435 18.542 3.75V16.25C18.542 17.5156 17.5156 18.542 16.25 18.542H3.75C2.48435 18.542 1.45801 17.5156 1.45801 16.25V3.75C1.45801 2.48435 2.48435 1.45801 3.75 1.45801H16.25ZM10 6.25C7.92893 6.25 6.25 7.92893 6.25 10C6.25 12.0711 7.92893 13.75 10 13.75C12.0711 13.75 13.75 12.0711 13.75 10C13.75 7.92893 12.0711 6.25 10 6.25ZM14.582 4.58301C14.1219 4.58318 13.749 4.95686 13.749 5.41699C13.7492 5.87697 14.1221 6.24983 14.582 6.25H14.5898C15.05 6.25 15.4227 5.87708 15.4229 5.41699C15.4229 4.95676 15.0501 4.58301 14.5898 4.58301H14.582Z" fill="#DBDBDB"/>
</svg>
