<svg width="22" height="22" viewBox="0 0 22 22" fill="none" xmlns="http://www.w3.org/2000/svg">
<path d="M5.98242 2.2251C6.45301 2.2251 6.68823 2.22498 6.77734 2.36084C6.86619 2.49672 6.76551 2.72803 6.56445 3.19092C6.48707 3.36908 6.41718 3.55135 6.35449 3.73682C6.28015 3.95683 6.24259 4.06707 6.16406 4.12354C6.08543 4.17997 5.97615 4.18018 5.75781 4.18018H3.15918C2.61809 4.18026 2.17992 4.61792 2.17969 5.15771C2.17969 5.69771 2.61795 6.13615 3.15918 6.13623H14.9902C15.8245 6.12353 17.6497 6.12907 18.2783 6.25244C19.1876 6.37443 19.9908 6.64021 20.6338 7.28174C21.2767 7.92323 21.5437 8.72423 21.666 9.63135C21.7825 10.4955 21.7823 11.5876 21.7822 12.9116V15.0054C21.7823 16.3295 21.7825 17.4215 21.666 18.2856C21.5437 19.1929 21.2769 19.9947 20.6338 20.6362C19.9908 21.2776 19.1876 21.5436 18.2783 21.6655C17.4121 21.7817 16.3174 21.7818 14.9902 21.7817H8.96875C7.18173 21.7818 5.74132 21.7813 4.6084 21.6294C3.43211 21.4716 2.4409 21.1339 1.6543 20.3491C0.867953 19.5644 0.530194 18.5762 0.372071 17.4028C0.219756 16.2725 0.219702 14.8352 0.219727 13.0522V5.15771C0.21996 3.53778 1.53638 2.2251 3.16016 2.2251H5.98242ZM16.5166 12.0024C15.409 12.0025 14.5109 12.9007 14.5107 14.0083C14.5107 15.116 15.4089 16.0141 16.5166 16.0142C17.6244 16.0142 18.5225 15.1161 18.5225 14.0083C18.5223 12.9007 17.6243 12.0024 16.5166 12.0024Z" fill="#FF7979"/>
<path d="M18.4781 5.01419C18.5857 5.02903 18.6784 4.93601 18.6568 4.82957C18.1215 2.19863 15.7949 0.21875 13.0059 0.21875C10.325 0.21875 8.07146 2.04806 7.42529 4.52652C7.37758 4.70952 7.52016 4.88236 7.70928 4.88236L14.9801 4.88236C15.4103 4.87594 16.0866 4.8742 16.7405 4.88975C17.3388 4.90397 18.037 4.9341 18.4781 5.01419Z" fill="#FF7979"/>
</svg>
