<svg width="137" height="40" viewBox="0 0 137 40" fill="none" xmlns="http://www.w3.org/2000/svg">
<g id="Logo">
<g id="Vector">
<path fill-rule="evenodd" clip-rule="evenodd" d="M92.9361 30.2549C92.7401 30.3536 92.5407 30.4461 92.3385 30.5327C90.8274 31.1961 89.2882 31.4749 87.7395 31.4749C84.6659 31.4749 81.8041 30.623 79.6221 28.4636C77.4033 26.2985 76.5358 23.3638 76.5358 20.1746C76.5358 18.1821 76.9012 16.2218 77.8647 14.4387C78.7952 12.7167 80.148 11.3147 81.9041 10.3555C83.631 9.41239 85.54 8.99062 87.5637 8.99062C89.5945 8.99062 91.4748 9.47065 93.137 10.4018L93.181 10.4264L93.2242 10.4524C93.3267 10.514 93.428 10.5771 93.5281 10.6418C93.9919 8.95062 94.8718 7.4233 96.2872 6.19625C98.3558 4.37708 100.992 3.63635 103.794 3.63635C106.527 3.63635 109.029 4.35488 111.073 5.98765C112.293 6.96181 113.139 8.14253 113.658 9.45621H119.988C120.903 9.14559 121.871 8.99062 122.871 8.99062C124.772 8.99062 126.535 9.52526 128.059 10.5044L128.087 10.5226L128.115 10.5413C129.673 11.5877 130.799 13.0119 131.572 14.668L131.579 14.6815L131.585 14.6951C132.358 16.392 132.727 18.2566 132.727 20.2619C132.727 22.2549 132.362 24.1281 131.579 25.813C130.808 27.499 129.668 28.956 128.059 29.9902C126.49 30.9983 124.717 31.4749 122.871 31.4749C122.038 31.4749 121.226 31.3673 120.449 31.1515V36.3636H110.29V31.0094H92.9432L92.9361 30.2549ZM96.1753 24.6267L98.6074 22.6771C100.805 20.9311 102.446 19.5925 103.56 18.6032C104.673 17.6429 105.552 16.7117 106.197 15.7805C106.842 14.8784 107.193 13.9764 107.193 13.0743C107.193 12.0849 106.871 11.3283 106.256 10.7463C105.64 10.1935 104.82 9.90246 103.794 9.90246C102.651 9.90246 101.743 10.2226 101.098 10.8627C100.454 11.5029 100.102 12.4632 100.073 13.7436H96.4097C96.439 11.5029 97.113 9.81516 98.4609 8.65119C99.7796 7.48722 101.567 6.90524 103.794 6.90524C105.933 6.90524 107.662 7.45812 109.01 8.5348C110.358 9.61147 111.003 11.0955 111.003 12.987C111.003 14.2674 110.651 15.4604 109.948 16.5662C109.245 17.672 108.336 18.6613 107.281 19.5925C106.226 20.5237 104.703 21.7168 102.739 23.1717L100.922 24.5103L100.981 24.714C102.241 24.5976 103.853 24.5394 105.816 24.5394H110.856V27.7403H96.2046L96.1753 24.6267ZM95.0361 20.902H83.2562C83.2855 22.357 83.7251 23.4627 84.5455 24.2484C85.366 25.0632 86.4209 25.4415 87.7396 25.4415C88.7652 25.4415 89.615 25.1796 90.3183 24.6267C91.0216 24.1029 91.4611 23.3754 91.6662 22.5025H94.9189C94.7431 23.6955 94.3328 24.714 93.6295 25.587C92.9263 26.46 92.0472 27.1001 91.0216 27.5366C89.9666 28.0022 88.8824 28.2059 87.7396 28.2059C85.2781 28.2059 83.3441 27.5366 81.9376 26.1399C80.531 24.7722 79.8277 22.7935 79.8277 20.1745C79.8277 18.5741 80.1208 17.1773 80.7654 15.9842C81.4101 14.7911 82.3185 13.86 83.4906 13.2198C84.6628 12.5796 86.0107 12.2595 87.5638 12.2595C89.0582 12.2595 90.3769 12.6087 91.5197 13.2489C92.6332 13.9182 93.5123 14.8202 94.1277 15.9551C94.7138 17.1191 95.0361 18.3704 95.0361 19.738V20.902ZM128.586 16.0424C128.029 14.8493 127.267 13.9182 126.271 13.2489C125.274 12.6087 124.131 12.2595 122.871 12.2595C121.553 12.2595 120.381 12.6669 119.384 13.4817C118.359 14.2965 117.655 15.4604 117.275 16.9736H117.157L117.011 12.7251H113.582V33.0946H117.157V23.5209H117.275C117.655 25.0341 118.359 26.169 119.384 26.9837C120.381 27.7985 121.553 28.2059 122.871 28.2059C124.131 28.2059 125.274 27.8858 126.271 27.2456C127.267 26.6055 128.029 25.6743 128.586 24.4521C129.142 23.259 129.435 21.8623 129.435 20.2618C129.435 18.6614 129.142 17.2646 128.586 16.0424Z" fill="#4DF2BE"/>
<path d="M19.6211 21.0166H7.23975C7.27055 22.5458 7.73254 23.708 8.59492 24.5338C9.4573 25.3902 10.5661 25.7878 11.952 25.7878C13.03 25.7878 13.9232 25.5125 14.6624 24.9314C15.4016 24.3809 15.8636 23.6163 16.0792 22.6987H19.4979C19.3131 23.9527 18.8819 25.0232 18.1427 25.9407C17.4035 26.8583 16.4795 27.5312 15.4016 27.9899C14.2928 28.4793 13.1532 28.6934 11.952 28.6934C9.3649 28.6934 7.33215 27.9899 5.85378 26.5219C4.37541 25.0844 3.63623 23.0046 3.63623 20.2519C3.63623 18.5698 3.94422 17.1017 4.62181 15.8477C5.29939 14.5937 6.25417 13.615 7.48615 12.9421C8.71812 12.2693 10.1349 11.9328 11.7673 11.9328C13.338 11.9328 14.724 12.2998 15.9252 12.9727C17.0955 13.6762 18.0195 14.6243 18.6663 15.8171C19.2823 17.0405 19.6211 18.3557 19.6211 19.7932V21.0166ZM8.56412 15.9089C7.76334 16.6123 7.30135 17.6216 7.23975 18.9062H15.9252C15.8328 17.6522 15.4016 16.6735 14.6316 15.9395C13.8616 15.2054 12.8452 14.8384 11.6133 14.8384C10.3813 14.8384 9.3649 15.2054 8.56412 15.9089Z" fill="#4DF2BE"/>
<path d="M25.9568 28.204L19.8894 12.4222H23.8933L25.5564 17.0099C25.8336 17.8663 26.234 19.0285 26.7884 20.4966C27.4968 22.607 27.928 23.8915 28.1128 24.3809H28.2668C28.6364 23.2798 29.1908 21.72 29.93 19.6708C30.0839 19.1509 30.3919 18.2639 30.8539 17.0099L32.5171 12.4222H36.3978L30.3303 28.204H25.9568Z" fill="#4DF2BE"/>
<path d="M40.7906 27.6535C39.497 26.9806 38.4498 26.0019 37.7106 24.7173C36.9406 23.4328 36.5711 21.9647 36.5711 20.2519C36.5711 18.6003 36.9406 17.1629 37.7106 15.8783C38.4806 14.6243 39.5278 13.6456 40.8214 12.9727C42.1149 12.2998 43.5317 11.9328 45.1025 11.9328C46.6424 11.9328 48.09 12.2998 49.3836 12.9727C50.6771 13.6456 51.7243 14.6243 52.4943 15.8783C53.2643 17.1629 53.6647 18.6003 53.6647 20.2519C53.6647 21.9647 53.2643 23.4328 52.4943 24.7173C51.7243 26.0019 50.6771 26.9806 49.3836 27.6535C48.09 28.3569 46.6424 28.6934 45.1025 28.6934C43.5317 28.6934 42.0841 28.3569 40.7906 27.6535ZM48.5828 24.3197C49.4452 23.3716 49.8764 22.0259 49.8764 20.2519C49.8764 18.5392 49.4452 17.224 48.5828 16.2759C47.7204 15.3583 46.5808 14.869 45.1025 14.869C43.6241 14.869 42.4845 15.3583 41.6221 16.2759C40.7598 17.224 40.3594 18.5392 40.3594 20.2519C40.3594 22.0259 40.7598 23.3716 41.6221 24.3197C42.4845 25.2985 43.6241 25.7572 45.1025 25.7572C46.5808 25.7572 47.7204 25.2985 48.5828 24.3197Z" fill="#4DF2BE"/>
<path d="M56.1373 28.204V6.79455H59.8948V28.204H56.1373Z" fill="#4DF2BE"/>
<path d="M67.4036 28.204L61.3361 12.4222H65.34L67.0032 17.0099C67.2804 17.8663 67.6808 19.0285 68.2352 20.4966C68.9436 22.607 69.3747 23.8915 69.5595 24.3809H69.7135C70.0831 23.2798 70.6375 21.72 71.3767 19.6708C71.5307 19.1509 71.8387 18.2639 72.3007 17.0099L73.9638 12.4222H77.8446L71.7771 28.204H67.4036Z" fill="#4DF2BE"/>
</g>
</g>
</svg>
