<svg width="20" height="20" viewBox="0 0 20 20" fill="none" xmlns="http://www.w3.org/2000/svg">
<g clip-path="url(#clip0_12383_42298)">
<rect width="20" height="20" rx="10" fill="white"/>
<path fill-rule="evenodd" clip-rule="evenodd" d="M0 0H12V9.33333H0V0Z" fill="#1A47B8"/>
<path fill-rule="evenodd" clip-rule="evenodd" d="M12 0V1.33333H28V0H12ZM12 2.66667V4H28V2.66667H12ZM12 5.33333V6.66666H28V5.33333H12ZM12 8V9.33333H28V8H12ZM0 10.6667V12H28V10.6667H0ZM0 13.3333V14.6667H28V13.3333H0ZM0 16V17.3333H28V16H0ZM0 18.6667V20H28V18.6667H0Z" fill="#F93939"/>
<path fill-rule="evenodd" clip-rule="evenodd" d="M1.3335 1.33398V2.66732H2.66683V1.33398H1.3335ZM4.00016 1.33398V2.66732H5.33349V1.33398H4.00016ZM6.66683 1.33398V2.66732H8.00016V1.33398H6.66683ZM9.33349 1.33398V2.66732H10.6668V1.33398H9.33349ZM8.00016 2.66732V4.00065H9.33349V2.66732H8.00016ZM5.33349 2.66732V4.00065H6.66683V2.66732H5.33349ZM2.66683 2.66732V4.00065H4.00016V2.66732H2.66683ZM1.3335 4.00065V5.33398H2.66683V4.00065H1.3335ZM4.00016 4.00065V5.33398H5.33349V4.00065H4.00016ZM6.66683 4.00065V5.33398H8.00016V4.00065H6.66683ZM9.33349 4.00065V5.33398H10.6668V4.00065H9.33349ZM1.3335 6.66732V8.00065H2.66683V6.66732H1.3335ZM4.00016 6.66732V8.00065H5.33349V6.66732H4.00016ZM6.66683 6.66732V8.00065H8.00016V6.66732H6.66683ZM9.33349 6.66732V8.00065H10.6668V6.66732H9.33349ZM8.00016 5.33398V6.66732H9.33349V5.33398H8.00016ZM5.33349 5.33398V6.66732H6.66683V5.33398H5.33349ZM2.66683 5.33398V6.66732H4.00016V5.33398H2.66683Z" fill="white"/>
</g>
<defs>
<clipPath id="clip0_12383_42298">
<rect width="20" height="20" rx="10" fill="white"/>
</clipPath>
</defs>
</svg>
