<svg width="28" height="28" viewBox="0 0 28 28" fill="none" xmlns="http://www.w3.org/2000/svg">
<path fill-rule="evenodd" clip-rule="evenodd" d="M23.5355 8.37688C24.0639 8.00826 24.7912 8.13784 25.1598 8.66631C26.2146 10.1786 26.8334 12.019 26.8334 14.0004C26.8334 19.1551 22.6547 23.3338 17.5001 23.3338H9.63912L10.6636 24.1875C11.1586 24.6 11.2255 25.3357 10.813 25.8306C10.4005 26.3256 9.66483 26.3925 9.16984 25.98L5.66984 23.0634C5.2925 22.7489 5.15253 22.2318 5.31974 21.7699C5.48696 21.3081 5.92554 21.0004 6.41673 21.0004H17.5001C21.3661 21.0004 24.5001 17.8664 24.5001 14.0004C24.5001 12.5116 24.0366 11.1346 23.246 10.0012C22.8774 9.47274 23.007 8.7455 23.5355 8.37688Z" fill="#DBDBDB"/>
<path fill-rule="evenodd" clip-rule="evenodd" d="M4.46452 19.6231C3.93605 19.9917 3.20881 19.8622 2.84019 19.3337C1.78537 17.8214 1.1666 15.981 1.1666 13.9996C1.1666 8.84491 5.34528 4.66624 10.4999 4.66624H18.3609L17.3364 3.8125C16.8414 3.40001 16.7745 2.66435 17.187 2.16936C17.5995 1.67437 18.3352 1.60749 18.8302 2.01998L22.3302 4.93665C22.7075 5.2511 22.8475 5.76821 22.6803 6.23007C22.513 6.69192 22.0745 6.99957 21.5833 6.99957H10.4999C6.63395 6.99957 3.49994 10.1336 3.49994 13.9996C3.49994 15.4884 3.96341 16.8654 4.75396 17.9988C5.12258 18.5273 4.99299 19.2545 4.46452 19.6231Z" fill="#DBDBDB"/>
</svg>
