<svg width="18" height="20" viewBox="0 0 18 20" fill="none" xmlns="http://www.w3.org/2000/svg">
<path fill-rule="evenodd" clip-rule="evenodd" d="M3.83333 0.9375C4.29357 0.9375 4.66667 1.3106 4.66667 1.77083V3.4375C4.66667 3.89774 4.29357 4.27083 3.83333 4.27083C3.3731 4.27083 3 3.89774 3 3.4375V1.77083C3 1.3106 3.3731 0.9375 3.83333 0.9375ZM13.8333 0.9375C14.2936 0.9375 14.6667 1.3106 14.6667 1.77083V3.4375C14.6667 3.89774 14.2936 4.27083 13.8333 4.27083C13.3731 4.27083 13 3.89774 13 3.4375V1.77083C13 1.3106 13.3731 0.9375 13.8333 0.9375Z" fill="#DBDBDB"/>
<path fill-rule="evenodd" clip-rule="evenodd" d="M9.67547 1.97852H9.67548C11.3119 1.9785 12.6087 1.97849 13.6238 2.12602C14.6725 2.27846 15.5106 2.5994 16.1652 3.30715C16.8135 4.00797 17.1016 4.89345 17.2396 6.00311C17.3749 7.09044 17.3748 8.48392 17.3748 10.2619V10.7785C17.3748 12.5564 17.3749 13.9499 17.2396 15.0373C17.1016 16.1469 16.8135 17.0324 16.1652 17.7332C15.5106 18.441 14.6725 18.7619 13.6238 18.9143C12.6087 19.0619 11.3119 19.0619 9.67547 19.0618H7.99087C6.35446 19.0619 5.0576 19.0619 4.04258 18.9143C2.99381 18.7619 2.15579 18.441 1.50112 17.7332C0.852866 17.0324 0.564712 16.1469 0.426711 15.0373C0.291488 13.9499 0.291495 12.5565 0.291504 10.7785V10.7785V10.2619V10.2619C0.291495 8.4839 0.291488 7.09043 0.426711 6.00311C0.564712 4.89345 0.852866 4.00797 1.50112 3.30715C2.15579 2.5994 2.99381 2.27846 4.04258 2.12602C5.0576 1.97849 6.35445 1.9785 7.99086 1.97852H7.99087H7.99087H9.67547H9.67547ZM6.83315 10.1035C7.47749 10.1035 7.99983 10.6258 7.99983 11.2702L7.99984 14.2702C7.99984 14.7304 7.62674 15.1035 7.16651 15.1035C6.70627 15.1035 6.33317 14.7304 6.33317 14.2702L6.33316 11.7702C5.87293 11.7702 5.49984 11.3971 5.49984 10.9369C5.49983 10.4766 5.87293 10.1035 6.33316 10.1035L6.83315 10.1035ZM8.83317 10.9369C8.83317 10.4766 9.20627 10.1035 9.6665 10.1035H11.1004C11.7648 10.1035 12.3819 10.7614 12.1013 11.5177L10.9725 14.5601C10.8124 14.9916 10.3328 15.2116 9.90134 15.0515C9.46985 14.8914 9.24983 14.4118 9.40992 13.9803L10.2299 11.7702H9.6665C9.20627 11.7702 8.83317 11.3971 8.83317 10.9369ZM3.83317 5.93685C3.37293 5.93685 2.99984 6.30995 2.99984 6.77018C2.99984 7.23042 3.37293 7.60352 3.83317 7.60352H13.8332C14.2934 7.60352 14.6665 7.23042 14.6665 6.77018C14.6665 6.30995 14.2934 5.93685 13.8332 5.93685H3.83317Z" fill="#DBDBDB"/>
</svg>
