<svg width="16" height="16" viewBox="0 0 16 16" fill="none" xmlns="http://www.w3.org/2000/svg">
<path d="M9.41429 1.61776L8.97231 1.00789C8.91077 0.922975 8.88 0.880517 8.83311 0.858602C8.78621 0.836687 8.73647 0.840143 8.637 0.847054C7.50387 0.925779 6.47137 1.37008 5.65648 2.06288C5.61345 2.09947 5.63983 2.16606 5.69622 2.16938C6.34997 2.20786 6.69792 2.57108 7.07898 2.97395C7.66799 3.59666 8.13111 3.54518 8.34824 3.4304C8.43696 3.3835 8.45326 3.35031 8.45888 3.33887L8.45929 3.33805C8.47702 3.30226 8.48443 3.26399 8.51082 3.11912C8.53287 2.99806 8.57124 2.79023 8.70404 2.58956C8.84448 2.37735 9.05413 2.22264 9.3306 2.11304C9.44586 2.06734 9.48133 2.00337 9.49414 1.94305C9.5101 1.86788 9.49725 1.74826 9.41429 1.61776Z" fill="#4DF2BE"/>
<path d="M10.3607 1.27759C10.2957 1.13591 10.2631 1.06507 10.2916 1.03257C10.3201 1.00007 10.3884 1.02116 10.5251 1.06333C12.6342 1.71426 14.1668 3.68005 14.1668 6.00401C14.1668 6.09697 14.0904 6.17077 13.9974 6.17077H13.3335C12.6846 6.17077 12.2823 6.44816 12.0061 6.63861L11.9836 6.65412C11.7161 6.83823 11.6222 6.88567 11.4316 6.84753C10.5881 6.67875 9.91241 6.65456 9.42929 6.87795C9.16622 6.99959 8.96934 7.1902 8.84666 7.43719C8.72985 7.67236 8.69459 7.92945 8.69459 8.1726C8.69459 8.5978 8.69097 8.72211 8.6661 8.82197C8.64375 8.91167 8.60178 8.99259 8.41573 9.3127C8.28698 9.53422 8.15326 9.83007 8.16794 10.1614C8.18398 10.5233 8.37014 10.8295 8.68252 11.0656C8.72322 11.0997 8.69744 11.1651 8.64445 11.1615C5.95691 10.9786 3.8335 8.73944 3.8335 6.00401C3.8335 5.08593 4.07269 4.22374 4.49213 3.47643C4.57295 3.33242 4.61337 3.26042 4.69138 3.21475C4.7694 3.16907 4.85919 3.16907 5.03878 3.16907H5.65085C5.8605 3.18388 5.96704 3.254 6.35268 3.66171C7.16315 4.51855 8.0995 4.69349 8.81536 4.31508C9.07428 4.17822 9.24833 3.99829 9.35529 3.78235C9.44027 3.61079 9.47155 3.43077 9.48916 3.32946L9.49461 3.29853C9.51568 3.18288 9.52803 3.15676 9.53782 3.14196C9.54102 3.137 9.56796 3.09517 9.69897 3.04323C10.119 2.87672 10.3885 2.54586 10.4723 2.15097C10.5363 1.84964 10.4854 1.54906 10.3607 1.27759Z" fill="#4DF2BE"/>
<path d="M10.0473 10.904C10.1238 10.9682 10.1621 11.0002 10.2105 11.0107C10.2589 11.0211 10.3046 11.0083 10.3959 10.9827C12.0417 10.5218 13.3555 9.26589 13.8977 7.65501C13.9689 7.44362 14.0045 7.33792 13.9446 7.25463C13.8848 7.17133 13.7671 7.17133 13.5318 7.17133H13.3335C13.0003 7.17133 12.8179 7.2943 12.5503 7.47847L12.5408 7.48502C12.2642 7.6755 11.8602 7.95367 11.2354 7.82865C10.4122 7.66391 10.0185 7.70775 9.84879 7.78621C9.78547 7.81549 9.76012 7.84634 9.74217 7.88248C9.71835 7.93044 9.69459 8.01816 9.69459 8.1726L9.69461 8.23072C9.69479 8.57154 9.69492 8.82906 9.63642 9.06393C9.57553 9.30836 9.45458 9.51612 9.30561 9.772L9.28019 9.81568C9.18347 9.98209 9.16506 10.0742 9.16696 10.1171C9.1676 10.1316 9.17047 10.1439 9.18052 10.161C9.19212 10.1809 9.221 10.2196 9.29079 10.2713C9.29875 10.2772 9.30653 10.2834 9.31412 10.2897L10.0473 10.904Z" fill="#4DF2BE"/>
<path fill-rule="evenodd" clip-rule="evenodd" d="M4.81117 0.867962C5.06782 1.13195 5.06188 1.55402 4.79789 1.81068C3.6868 2.89091 2.99984 4.39302 2.99984 6.05435C2.99984 9.33249 5.68091 11.9993 8.99984 11.9993C10.6371 11.9993 12.1193 11.3505 13.2018 10.298C13.4658 10.0414 13.8878 10.0473 14.1445 10.3113C14.4012 10.5753 14.3952 10.9974 14.1312 11.254C12.8087 12.5398 10.9965 13.3327 8.99984 13.3327V13.9993H9.6665C10.0347 13.9993 10.3332 14.2978 10.3332 14.666C10.3332 15.0342 10.0347 15.3327 9.6665 15.3327H6.99984C6.63165 15.3327 6.33317 15.0342 6.33317 14.666C6.33317 14.2978 6.63165 13.9993 6.99984 13.9993H7.6665V13.2126C4.25642 12.5906 1.6665 9.62628 1.6665 6.05435C1.6665 4.01661 2.51106 2.17438 3.86845 0.854688C4.13244 0.59803 4.55451 0.603973 4.81117 0.867962Z" fill="#4DF2BE"/>
</svg>
