<svg width="16" height="16" viewBox="0 0 16 16" fill="none" xmlns="http://www.w3.org/2000/svg">
<path d="M11.5002 7.33301C11.5002 7.0569 11.724 6.83305 12.0002 6.83301C12.2763 6.83301 12.5001 7.05689 12.5002 7.33301L12.5008 12.0003C12.5008 12.1329 12.4481 12.2601 12.3543 12.3538C12.2606 12.4476 12.1334 12.5003 12.0008 12.5003L7.3335 12.4997C7.05738 12.4996 6.8335 12.2758 6.8335 11.9997C6.83353 11.7236 7.05739 11.4997 7.3335 11.4997H11.5002V7.33301Z" fill="#DBDBDB"/>
<path d="M3.64596 3.64547C3.84122 3.45021 4.15773 3.45021 4.35299 3.64547L12.3536 11.6461C12.5489 11.8414 12.5489 12.1579 12.3536 12.3532C12.1584 12.5484 11.8419 12.5484 11.6466 12.3532L3.64596 4.3525C3.4507 4.15724 3.4507 3.84073 3.64596 3.64547Z" fill="#DBDBDB"/>
</svg>
