<svg width="12" height="12" viewBox="0 0 12 12" fill="none" xmlns="http://www.w3.org/2000/svg">
<path fill-rule="evenodd" clip-rule="evenodd" d="M5.87902 11.1047C2.99295 11.1047 0.65332 8.7651 0.65332 5.87902C0.65332 2.99295 2.99295 0.65332 5.87902 0.65332C8.7651 0.65332 11.1047 2.99295 11.1047 5.87902C11.1047 8.7651 8.7651 11.1047 5.87902 11.1047ZM8.0374 4.85736C8.2785 4.73926 8.37822 4.44808 8.26013 4.20697C8.14204 3.96587 7.85085 3.86615 7.60975 3.98424C6.659 4.44991 5.92289 5.24896 5.43529 5.90031C5.26631 6.12604 5.12368 6.33875 5.00901 6.5212C4.87332 6.40363 4.73949 6.30628 4.62153 6.22851C4.48662 6.13955 4.3669 6.07257 4.27954 6.02718C4.23573 6.00442 4.19969 5.98691 4.17351 5.97462C4.16041 5.96846 4.14975 5.9636 4.14178 5.96003L4.13187 5.95564L4.12848 5.95416L4.12719 5.9536L4.12616 5.95316C4.12605 5.95311 4.12616 5.95316 3.93467 6.39997L4.12616 5.95316C3.8794 5.8474 3.59362 5.96171 3.48787 6.20848C3.38231 6.45477 3.49615 6.73999 3.74193 6.84623L3.74243 6.84645L3.74416 6.84723C3.74708 6.84854 3.75251 6.851 3.76021 6.85462C3.77562 6.86185 3.79996 6.87364 3.83135 6.88994C3.89438 6.92268 3.9843 6.97288 4.08636 7.04018C4.29481 7.17761 4.53228 7.3722 4.7031 7.61624C4.80175 7.75715 4.96751 7.83545 5.13901 7.82212C5.31043 7.8088 5.46215 7.70572 5.53787 7.55137L5.53912 7.54884L5.5462 7.53487C5.55283 7.52186 5.5633 7.50164 5.57749 7.475C5.60591 7.42171 5.64919 7.34291 5.70666 7.245C5.82183 7.0488 5.99269 6.77802 6.21358 6.48295C6.66174 5.8843 7.28675 5.22502 8.0374 4.85736Z" fill="#4DF2BE"/>
</svg>
