<svg width="20" height="20" viewBox="0 0 20 20" fill="none" xmlns="http://www.w3.org/2000/svg">
<path d="M10 2.70801C12.0614 2.70801 14.0227 2.84102 15.7939 3.08105C17.6794 3.33665 18.9579 4.99355 18.958 6.83203V13.168C18.9579 15.0064 17.6794 16.6634 15.7939 16.9189C14.0227 17.159 12.0614 17.292 10 17.292C7.9386 17.292 5.97734 17.159 4.20605 16.9189C2.32059 16.6634 1.04209 15.0064 1.04199 13.168V6.83203C1.04209 4.99355 2.32058 3.33664 4.20605 3.08105C5.97734 2.84102 7.9386 2.70801 10 2.70801ZM8.65527 6.96387C8.4622 6.84802 8.22133 6.84513 8.02539 6.95605C7.82945 7.067 7.70801 7.27483 7.70801 7.5V12.5C7.70801 12.7252 7.82945 12.933 8.02539 13.0439C8.22133 13.1549 8.4622 13.152 8.65527 13.0361L12.8213 10.5361C13.0095 10.4232 13.125 10.2195 13.125 10C13.125 9.78046 13.0095 9.57682 12.8213 9.46387L8.65527 6.96387Z" fill="#DBDBDB"/>
</svg>
