<svg width="20" height="20" viewBox="0 0 20 20" fill="none" xmlns="http://www.w3.org/2000/svg">
<path d="M12.6483 1.89168L15.7869 2.6114C16.6335 2.75025 17.3411 3.35405 17.5936 4.19051C18.004 5.55061 18.4738 7.31368 18.741 9.10457C19.0063 10.8823 19.0815 12.7521 18.6532 14.2979C18.648 14.3166 18.6425 14.3355 18.6356 14.3536C18.3356 15.1414 17.7241 16.0536 17.033 16.7696C16.6845 17.1307 16.2984 17.4595 15.9002 17.7022C15.5098 17.9403 15.0588 18.125 14.5926 18.1251C14.3908 18.1251 14.2011 18.0276 14.0838 17.8634L12.0457 15.0108C12.8086 14.8659 13.5847 14.6405 14.3885 14.335C14.7112 14.2124 14.8734 13.8511 14.7508 13.5284C14.6282 13.206 14.2676 13.0438 13.9451 13.1661C11.1715 14.2203 8.82912 14.2203 6.05549 13.1661C5.73285 13.0435 5.37148 13.2058 5.24885 13.5284C5.12626 13.851 5.28859 14.2124 5.61116 14.335C6.42038 14.6426 7.20167 14.8689 7.96956 15.0137L5.9344 17.8634C5.81709 18.0276 5.62744 18.1251 5.42561 18.1251C4.95972 18.1251 4.50778 17.9408 4.11604 17.7032C3.71653 17.4609 3.32821 17.1324 2.97737 16.7716C2.28175 16.056 1.66472 15.1431 1.36409 14.3536C1.35716 14.3354 1.35073 14.3167 1.34553 14.2979C0.917259 12.7521 0.992418 10.8822 1.25764 9.10457C1.52487 7.31368 1.99563 5.55061 2.40608 4.19051C2.6586 3.354 3.36601 2.7501 4.21272 2.6114L7.36995 1.8907C7.68618 1.81865 8.00533 2.00081 8.10432 2.30965L8.78987 4.45222C9.19678 4.4012 9.59733 4.37508 9.99983 4.37508C10.4036 4.37508 10.8055 4.40187 11.2137 4.4532L11.9149 2.30672C12.0152 1.99943 12.3332 1.81954 12.6483 1.89168ZM6.24983 7.08406C5.55952 7.08412 4.99983 7.64374 4.99983 8.33406C5.00002 9.02422 5.55964 9.584 6.24983 9.58406H6.25862C6.94873 9.58391 7.50843 9.02416 7.50862 8.33406C7.50862 7.6438 6.94885 7.08421 6.25862 7.08406H6.24983ZM13.741 7.08406C13.0509 7.08432 12.491 7.64386 12.491 8.33406C12.4912 9.0241 13.051 9.5838 13.741 9.58406H13.7498C14.4401 9.58406 14.9996 9.02426 14.9998 8.33406C14.9998 7.6437 14.4402 7.08406 13.7498 7.08406H13.741Z" fill="#DBDBDB"/>
</svg>
