<svg width="10" height="12" viewBox="0 0 10 12" fill="none" xmlns="http://www.w3.org/2000/svg">
<path fill-rule="evenodd" clip-rule="evenodd" d="M5.00034 0.774414C4.82793 0.774414 4.65185 0.827343 4.47278 0.89489C4.29153 0.963259 4.06515 1.06375 3.78284 1.18908C3.36788 1.37328 2.82022 1.58468 2.23278 1.75166L2.23278 1.75167C1.80409 1.87352 1.45751 1.97204 1.19497 2.07384C0.931113 2.17616 0.691892 2.30307 0.530853 2.51627C0.374887 2.72275 0.314884 2.96398 0.287327 3.22413C0.260728 3.47523 0.260735 3.7903 0.260742 4.17177V4.17178V5.60313C0.260742 7.08863 0.931314 8.26659 1.74178 9.14456C2.54973 10.0198 3.51226 10.6152 4.14667 10.95L4.1773 10.9662C4.4475 11.1091 4.66835 11.2258 5.00034 11.2258C5.33232 11.2258 5.55317 11.1091 5.82337 10.9662L5.854 10.95C6.48841 10.6152 7.45094 10.0198 8.25889 9.14456C9.06936 8.26659 9.73993 7.08863 9.73993 5.60313V4.17177C9.73994 3.7903 9.73994 3.47523 9.71334 3.22413C9.68579 2.96398 9.62578 2.72275 9.46982 2.51627C9.30878 2.30307 9.06956 2.17616 8.8057 2.07384C8.54317 1.97204 8.19659 1.87352 7.76792 1.75167L7.76791 1.75167L7.76788 1.75166C7.18045 1.58468 6.63277 1.37327 6.21782 1.18907C5.93551 1.06375 5.70913 0.963258 5.52789 0.89489C5.34882 0.827343 5.17274 0.774414 5.00034 0.774414ZM6.71648 3.79787C6.5741 3.65549 6.34325 3.65549 6.20088 3.79787L4.25698 5.74176C3.85131 5.54882 3.34889 5.61778 3.01046 5.9562C2.57844 6.38823 2.59055 7.08004 3.01319 7.50268C3.43741 7.9269 4.1268 7.93346 4.55726 7.503C4.89515 7.16511 4.96688 6.66306 4.77308 6.25687L5.48645 5.54349L5.95782 6.01486C6.1002 6.15724 6.33104 6.15724 6.47342 6.01486C6.6158 5.87248 6.6158 5.64164 6.47342 5.49926L6.00205 5.02789L6.45868 4.57127L7.1731 5.28569C7.31548 5.42807 7.54632 5.42807 7.6887 5.28569C7.83108 5.14331 7.83108 4.91247 7.6887 4.77009L6.71648 3.79787ZM3.52606 6.4718C3.66947 6.32839 3.90263 6.32972 4.04439 6.47148C4.18459 6.61167 4.18664 6.84242 4.04166 6.9874C3.89867 7.13039 3.67098 7.12927 3.52879 6.98708C3.38503 6.84332 3.38463 6.61323 3.52606 6.4718Z" fill="#CCA0FA"/>
</svg>
