<svg width="14" height="16" viewBox="0 0 14 16" fill="none" xmlns="http://www.w3.org/2000/svg">
<path d="M12.5 4.08147C12.4999 3.82717 12.3037 3.59019 12.0176 3.54046C9.90628 3.17341 8.16038 2.35958 7.30925 1.90895C7.11736 1.80746 6.88264 1.80746 6.69076 1.90895C5.83962 2.35958 4.09372 3.17341 1.98242 3.54046C1.6963 3.59019 1.50007 3.82717 1.5 4.08147L1.5 7.36663C1.5 9.32505 2.49279 10.8593 3.68555 11.9988C4.87993 13.1398 6.23616 13.8461 6.85612 14.1336C6.94986 14.177 7.05014 14.177 7.14388 14.1336C7.76384 13.8461 9.12007 13.1398 10.3145 11.9988C11.5072 10.8593 12.5 9.32505 12.5 7.36663L12.5 4.08147ZM13.5 7.36663C13.5 9.69378 12.3135 11.4715 11.0052 12.7214C9.6987 13.9696 8.23215 14.7308 7.56445 15.0405C7.2039 15.2077 6.7961 15.2077 6.43555 15.0405C5.76785 14.7308 4.30131 13.9696 2.99479 12.7214C1.68651 11.4715 0.5 9.69378 0.5 7.36663L0.5 4.08147C0.500069 3.30255 1.08492 2.68168 1.8112 2.55543C3.77985 2.21318 5.42138 1.44972 6.22266 1.02548C6.70737 0.768849 7.29263 0.76885 7.77734 1.02548C8.57862 1.44972 10.2202 2.21318 12.1888 2.55543C12.9151 2.68168 13.4999 3.30255 13.5 4.08147L13.5 7.36663Z" fill="#DBDBDB"/>
</svg>
