<svg width="22" height="21" viewBox="0 0 22 21" fill="none" xmlns="http://www.w3.org/2000/svg">
<path fill-rule="evenodd" clip-rule="evenodd" d="M6.98827 16.064C6.43437 16.064 5.98535 15.6149 5.98535 15.0611L5.98535 12.0523C5.98535 11.4984 6.43437 11.0494 6.98827 11.0494C7.54216 11.0494 7.99118 11.4984 7.99118 12.0523L7.99118 15.0611C7.99118 15.6149 7.54216 16.064 6.98827 16.064Z" fill="#4DF2BE"/>
<path fill-rule="evenodd" clip-rule="evenodd" d="M11.0005 13.0552C10.4466 13.0552 9.99756 12.6062 9.99756 12.0523L9.99756 7.03769C9.99756 6.48379 10.4466 6.03477 11.0005 6.03477C11.5544 6.03477 12.0034 6.48379 12.0034 7.03769L12.0034 12.0523C12.0034 12.6062 11.5544 13.0552 11.0005 13.0552Z" fill="#4DF2BE"/>
<path fill-rule="evenodd" clip-rule="evenodd" d="M15.0117 8.04102C14.4578 8.04102 14.0088 7.592 14.0088 7.0381L14.0088 4.02936C14.0088 3.47546 14.4578 3.02644 15.0117 3.02644C15.5656 3.02644 16.0146 3.47546 16.0146 4.02936L16.0146 7.0381C16.0146 7.592 15.5656 8.04102 15.0117 8.04102Z" fill="#4DF2BE"/>
<path fill-rule="evenodd" clip-rule="evenodd" d="M19.0234 9.04395C18.4695 9.04395 18.0205 8.59493 18.0205 8.04103L18.0205 2.02354C18.0205 1.46965 18.4695 1.02063 19.0234 1.02063C19.5773 1.02063 20.0263 1.46965 20.0263 2.02354L20.0263 8.04103C20.0263 8.59493 19.5773 9.04395 19.0234 9.04395Z" fill="#4DF2BE"/>
<path fill-rule="evenodd" clip-rule="evenodd" d="M1.97411 0.0175781C2.528 0.0175781 2.97702 0.466598 2.97702 1.02049V12.0526C2.97702 13.7356 2.97915 14.897 3.09659 15.7706C3.21016 16.6152 3.41473 17.039 3.71139 17.3357C4.00805 17.6323 4.43184 17.8369 5.2765 17.9505C6.15002 18.0679 7.31143 18.07 8.99451 18.07H20.0266C20.5805 18.07 21.0295 18.5191 21.0295 19.073C21.0295 19.6268 20.5805 20.0759 20.0266 20.0759H8.92229C7.329 20.0759 6.03206 20.0759 5.00923 19.9384C3.94214 19.7949 3.02451 19.4855 2.29305 18.754C1.5616 18.0225 1.25212 17.1049 1.10865 16.0378C0.971136 15.015 0.971161 13.7181 0.971192 12.1248L0.971193 1.02049C0.971193 0.466598 1.42021 0.0175781 1.97411 0.0175781Z" fill="#4DF2BE"/>
</svg>
