<svg width="16" height="16" viewBox="0 0 16 16" fill="none" xmlns="http://www.w3.org/2000/svg">
<path d="M12.6636 2.5C14.0445 2.49963 15.1646 3.61903 15.1646 5V10.9951C15.1646 12.3753 14.0457 13.4944 12.6655 13.4951L5.67627 13.499C5.092 13.4992 4.54223 13.2212 4.19678 12.75L1.5083 9.08105C1.03526 8.4355 1.03567 7.55727 1.50928 6.91211L4.19775 3.25C4.54306 2.77978 5.09189 2.50211 5.67529 2.50195L12.6636 2.5ZM6.00049 7.16699C5.54025 7.16699 5.1665 7.53976 5.1665 8C5.1665 8.46024 5.54025 8.83301 6.00049 8.83301H6.00635C6.46645 8.83285 6.83936 8.46014 6.83936 8C6.83936 7.53986 6.46645 7.16715 6.00635 7.16699H6.00049ZM8.66357 7.16699C8.20334 7.16699 7.83057 7.53976 7.83057 8C7.83057 8.46024 8.20334 8.83301 8.66357 8.83301H8.66943C9.12966 8.833 9.50244 8.46023 9.50244 8C9.50244 7.53977 9.12966 7.167 8.66943 7.16699H8.66357ZM11.3276 7.16699C10.8674 7.16699 10.4937 7.53976 10.4937 8C10.4937 8.46024 10.8674 8.83301 11.3276 8.83301H11.3335C11.7937 8.83296 12.1665 8.46021 12.1665 8C12.1665 7.53979 11.7937 7.16704 11.3335 7.16699H11.3276Z" fill="#4DF2BE"/>
</svg>
