<svg width="14" height="14" viewBox="0 0 14 14" fill="none" xmlns="http://www.w3.org/2000/svg">
<path d="M7 0.729492C7.32731 0.729492 7.59421 0.866595 7.83691 1.05176C8.06423 1.22519 8.31505 1.47616 8.6084 1.76953L8.62891 1.79004C8.92907 2.0902 9.1907 2.20898 9.59473 2.20898C9.64516 2.20898 9.70904 2.20712 9.78125 2.20508C9.96487 2.19988 10.2027 2.19245 10.4102 2.20996C10.7144 2.23567 11.0952 2.31829 11.3857 2.60645C11.6784 2.89676 11.7626 3.27889 11.7891 3.58496C11.8072 3.79427 11.8001 4.03382 11.7949 4.21875L11.791 4.40527C11.791 4.66826 11.8204 4.81564 11.8711 4.93164C11.9232 5.0507 12.0155 5.1766 12.21 5.37109L12.2305 5.3916C12.5238 5.68493 12.7748 5.93578 12.9482 6.16309C13.1334 6.40578 13.2705 6.67268 13.2705 7C13.2705 7.3273 13.1334 7.59421 12.9482 7.83691C12.7748 8.06425 12.5239 8.31503 12.2305 8.6084L12.21 8.62891C12.0155 8.82338 11.9232 8.9493 11.8711 9.06836C11.8204 9.18437 11.791 9.33175 11.791 9.59473C11.791 9.6453 11.7929 9.7092 11.7949 9.78125L11.8008 10.0889C11.8009 10.198 11.7981 10.3104 11.7891 10.415C11.7626 10.7211 11.6784 11.1032 11.3857 11.3936C11.0952 11.6817 10.7144 11.7643 10.4102 11.79C10.2028 11.8075 9.96486 11.8001 9.78125 11.7949C9.70904 11.7929 9.64516 11.791 9.59473 11.791C9.33757 11.791 9.19292 11.8173 9.0791 11.8643C8.96534 11.9112 8.84343 11.9954 8.66016 12.1787C8.62102 12.2179 8.56924 12.2732 8.50977 12.3369C8.37565 12.4807 8.20092 12.6672 8.03809 12.8096C7.79089 13.0256 7.43657 13.2705 7 13.2705C6.56344 13.2705 6.20912 13.0256 5.96191 12.8096C5.79907 12.6672 5.62436 12.4807 5.49023 12.3369C5.43076 12.2732 5.37898 12.2179 5.33984 12.1787C5.15657 11.9954 5.03466 11.9112 4.9209 11.8643C4.80708 11.8173 4.66243 11.791 4.40527 11.791C4.35484 11.791 4.29096 11.7929 4.21875 11.7949C4.03514 11.8001 3.79725 11.8075 3.58984 11.79C3.28563 11.7643 2.90482 11.6817 2.61426 11.3936C2.32161 11.1032 2.23744 10.7211 2.21094 10.415C2.19283 10.2057 2.19987 9.96619 2.20508 9.78125C2.20711 9.70917 2.20898 9.64532 2.20898 9.59473C2.20898 9.33175 2.17958 9.18436 2.12891 9.06836C2.07685 8.9493 1.98453 8.82339 1.79004 8.62891L1.76953 8.6084C1.47613 8.31503 1.22521 8.06425 1.05176 7.83691C0.866596 7.59421 0.729501 7.32731 0.729492 7C0.729497 6.67269 0.866599 6.40578 1.05176 6.16309C1.22519 5.93578 1.47616 5.68494 1.76953 5.3916L1.79004 5.37109C2.09027 5.07086 2.20898 4.80919 2.20898 4.40527C2.20898 4.35484 2.20712 4.29096 2.20508 4.21875C2.19988 4.03514 2.19245 3.79725 2.20996 3.58984C2.23566 3.28563 2.3183 2.90482 2.60645 2.61426C2.89676 2.3216 3.27889 2.23744 3.58496 2.21094C3.79427 2.19284 4.03381 2.19987 4.21875 2.20508C4.29084 2.20711 4.35468 2.20898 4.40527 2.20898C4.80918 2.20898 5.07088 2.09026 5.37109 1.79004L5.3916 1.76953C5.68494 1.47616 5.93578 1.22519 6.16309 1.05176C6.40579 0.866595 6.67269 0.729492 7 0.729492ZM9.125 5.09473C8.87847 4.88788 8.51092 4.91983 8.30371 5.16602L6.24023 7.62305L5.63867 7.08594C5.39836 6.87137 5.02902 6.8925 4.81445 7.13281C4.60035 7.37312 4.62122 7.74162 4.86133 7.95605L5.91113 8.89355C6.02881 8.99863 6.18444 9.05133 6.3418 9.04004C6.49911 9.02874 6.64561 8.95474 6.74707 8.83398L9.19629 5.91699C9.4035 5.67031 9.37168 5.30194 9.125 5.09473Z" fill="#4DF2BE"/>
</svg>
