<svg width="14" height="14" viewBox="0 0 14 14" fill="none" xmlns="http://www.w3.org/2000/svg">
<path d="M7.00049 0.856934C10.393 0.857084 13.1431 3.60797 13.1431 7.00049C13.1429 10.3929 10.3929 13.1429 7.00049 13.1431C3.60797 13.1431 0.857085 10.393 0.856934 7.00049C0.856934 3.60788 3.60788 0.856934 7.00049 0.856934ZM6.4292 6.4292C6.11361 6.4292 5.85693 6.6849 5.85693 7.00049C5.85707 7.31596 6.11369 7.57178 6.4292 7.57178V9.85693C6.4292 10.1725 6.6849 10.4292 7.00049 10.4292C7.31595 10.429 7.57178 10.1724 7.57178 9.85693V7.54932C7.57185 7.43514 7.57186 7.29905 7.55615 7.18213C7.53718 7.04104 7.4863 6.84583 7.3208 6.68018C7.15528 6.51465 6.95998 6.46385 6.81885 6.44482C6.70203 6.42912 6.5658 6.42913 6.45166 6.4292C6.4442 6.4292 6.43646 6.4292 6.4292 6.4292ZM6.99756 4.14307C6.68345 4.14309 6.42927 4.39884 6.4292 4.71436C6.4292 5.02993 6.6834 5.28562 6.99756 5.28564H7.00244C7.31662 5.28564 7.57178 5.02995 7.57178 4.71436C7.5717 4.39883 7.31658 4.14307 7.00244 4.14307H6.99756Z" fill="#FE857D"/>
</svg>
