<svg width="18" height="18" viewBox="0 0 18 18" fill="none" xmlns="http://www.w3.org/2000/svg">
<path d="M9 0.0419922C13.9475 0.0419942 17.958 4.05245 17.958 9C17.958 13.9475 13.9475 17.958 9 17.958C4.05245 17.958 0.0419942 13.9475 0.0419922 9C0.0419922 4.05245 4.05245 0.0419922 9 0.0419922ZM4.83301 4.20801C4.59849 4.20813 4.38417 4.34005 4.27734 4.54883C4.17054 4.75771 4.18892 5.00898 4.32617 5.19922L7.50977 9.60645L4.3916 12.7246C4.14752 12.9687 4.14752 13.3643 4.3916 13.6084C4.63568 13.8525 5.03131 13.8525 5.27539 13.6084L8.25098 10.6328L10.3447 13.5322C10.4622 13.6948 10.651 13.7919 10.8516 13.792H13.167C13.4015 13.7919 13.6158 13.6599 13.7227 13.4512C13.8295 13.2422 13.8103 12.9911 13.6729 12.8008L10.4902 8.39355L13.6084 5.27539C13.8525 5.03131 13.8525 4.63568 13.6084 4.3916C13.3643 4.14752 12.9687 4.14752 12.7246 4.3916L9.74902 7.36719L7.65527 4.46777C7.53783 4.30516 7.34902 4.2081 7.14844 4.20801H4.83301Z" fill="#DBDBDB"/>
</svg>
