<svg width="36" height="6" viewBox="0 0 36 6" fill="none" xmlns="http://www.w3.org/2000/svg">
<path d="M5.67571 3.21887C5.67571 3.97307 5.45251 4.57337 5.00521 5.02157C4.49761 5.55437 3.83521 5.82077 3.02161 5.82077C2.24221 5.82077 1.57891 5.55077 1.03441 5.01077C0.489009 4.46987 0.216309 3.80027 0.216309 3.00107C0.216309 2.20097 0.489009 1.53137 1.03441 0.991369C1.57891 0.450469 2.24221 0.180469 3.02161 0.180469C3.40861 0.180469 3.77851 0.256069 4.12951 0.406369C4.48141 0.557569 4.76311 0.758269 4.97371 1.00937L4.49941 1.48457C4.14211 1.05707 3.64981 0.843769 3.02071 0.843769C2.45191 0.843769 1.96051 1.04357 1.54561 1.44317C1.13071 1.84277 0.923708 2.36207 0.923708 3.00017C0.923708 3.63827 1.13071 4.15757 1.54561 4.55717C1.96051 4.95677 2.45191 5.15657 3.02071 5.15657C3.62371 5.15657 4.12681 4.95587 4.52911 4.55357C4.79011 4.29167 4.94131 3.92717 4.98181 3.46007H3.02071V2.81117H5.63701C5.66401 2.95247 5.67571 3.08837 5.67571 3.21887Z" fill="white"/>
<path d="M9.82479 0.963519H7.36599V2.67532H9.58359V3.32422H7.36599V5.03602H9.82479V5.70022H6.67209V0.30022H9.82479V0.963519Z" fill="white"/>
<path d="M12.7506 5.70022H12.0567V0.963519H10.5483V0.30022H14.259V0.963519H12.7506V5.70022Z" fill="white"/>
<path d="M16.9437 5.70022V0.30022H17.6375V5.70022H16.9437Z" fill="white"/>
<path d="M20.7148 5.70022H20.0209V0.963519H18.5125V0.30022H22.2232V0.963519H20.7148V5.70022Z" fill="white"/>
<path d="M29.2475 5.00271C28.7165 5.54811 28.0568 5.82081 27.2675 5.82081C26.4782 5.82081 25.8185 5.54811 25.2884 5.00271C24.7574 4.45731 24.4928 3.78951 24.4928 3.00021C24.4928 2.21091 24.7574 1.54311 25.2884 0.997711C25.8185 0.452311 26.4782 0.178711 27.2675 0.178711C28.0523 0.178711 28.7111 0.453211 29.2439 1.00131C29.7767 1.54941 30.0431 2.21541 30.0431 3.00021C30.0431 3.78951 29.7776 4.45731 29.2475 5.00271ZM25.8005 4.55001C26.2001 4.95501 26.6888 5.15661 27.2675 5.15661C27.8462 5.15661 28.3358 4.95411 28.7345 4.55001C29.1341 4.14501 29.3348 3.62841 29.3348 3.00021C29.3348 2.37201 29.1341 1.85541 28.7345 1.45041C28.3358 1.04541 27.8462 0.843811 27.2675 0.843811C26.6888 0.843811 26.2001 1.04631 25.8005 1.45041C25.4018 1.85541 25.2011 2.37201 25.2011 3.00021C25.2011 3.62841 25.4018 4.14501 25.8005 4.55001Z" fill="white"/>
<path d="M31.0169 5.70022V0.30022H31.8611L34.4855 4.50052H34.5152L34.4855 3.46012V0.30022H35.1794V5.70022H34.4549L31.709 1.29562H31.6793L31.709 2.33602V5.70022H31.0169Z" fill="white"/>
<path d="M5.67571 3.21887C5.67571 3.97307 5.45251 4.57337 5.00521 5.02157C4.49761 5.55437 3.83521 5.82077 3.02161 5.82077C2.24221 5.82077 1.57891 5.55077 1.03441 5.01077C0.489009 4.46987 0.216309 3.80027 0.216309 3.00107C0.216309 2.20097 0.489009 1.53137 1.03441 0.991369C1.57891 0.450469 2.24221 0.180469 3.02161 0.180469C3.40861 0.180469 3.77851 0.256069 4.12951 0.406369C4.48141 0.557569 4.76311 0.758269 4.97371 1.00937L4.49941 1.48457C4.14211 1.05707 3.64981 0.843769 3.02071 0.843769C2.45191 0.843769 1.96051 1.04357 1.54561 1.44317C1.13071 1.84277 0.923708 2.36207 0.923708 3.00017C0.923708 3.63827 1.13071 4.15757 1.54561 4.55717C1.96051 4.95677 2.45191 5.15657 3.02071 5.15657C3.62371 5.15657 4.12681 4.95587 4.52911 4.55357C4.79011 4.29167 4.94131 3.92717 4.98181 3.46007H3.02071V2.81117H5.63701C5.66401 2.95247 5.67571 3.08837 5.67571 3.21887Z" stroke="white" stroke-width="0.18" stroke-miterlimit="10"/>
<path d="M9.82479 0.963519H7.36599V2.67532H9.58359V3.32422H7.36599V5.03602H9.82479V5.70022H6.67209V0.30022H9.82479V0.963519Z" stroke="white" stroke-width="0.18" stroke-miterlimit="10"/>
<path d="M12.7506 5.70022H12.0567V0.963519H10.5483V0.30022H14.259V0.963519H12.7506V5.70022Z" stroke="white" stroke-width="0.18" stroke-miterlimit="10"/>
<path d="M16.9437 5.70022V0.30022H17.6375V5.70022H16.9437Z" stroke="white" stroke-width="0.18" stroke-miterlimit="10"/>
<path d="M20.7148 5.70022H20.0209V0.963519H18.5125V0.30022H22.2232V0.963519H20.7148V5.70022Z" stroke="white" stroke-width="0.18" stroke-miterlimit="10"/>
<path d="M29.2475 5.00271C28.7165 5.54811 28.0568 5.82081 27.2675 5.82081C26.4782 5.82081 25.8185 5.54811 25.2884 5.00271C24.7574 4.45731 24.4928 3.78951 24.4928 3.00021C24.4928 2.21091 24.7574 1.54311 25.2884 0.997711C25.8185 0.452311 26.4782 0.178711 27.2675 0.178711C28.0523 0.178711 28.7111 0.453211 29.2439 1.00131C29.7767 1.54941 30.0431 2.21541 30.0431 3.00021C30.0431 3.78951 29.7776 4.45731 29.2475 5.00271ZM25.8005 4.55001C26.2001 4.95501 26.6888 5.15661 27.2675 5.15661C27.8462 5.15661 28.3358 4.95411 28.7345 4.55001C29.1341 4.14501 29.3348 3.62841 29.3348 3.00021C29.3348 2.37201 29.1341 1.85541 28.7345 1.45041C28.3358 1.04541 27.8462 0.843811 27.2675 0.843811C26.6888 0.843811 26.2001 1.04631 25.8005 1.45041C25.4018 1.85541 25.2011 2.37201 25.2011 3.00021C25.2011 3.62841 25.4018 4.14501 25.8005 4.55001Z" stroke="white" stroke-width="0.18" stroke-miterlimit="10"/>
<path d="M31.0169 5.70022V0.30022H31.8611L34.4855 4.50052H34.5152L34.4855 3.46012V0.30022H35.1794V5.70022H34.4549L31.709 1.29562H31.6793L31.709 2.33602V5.70022H31.0169Z" stroke="white" stroke-width="0.18" stroke-miterlimit="10"/>
</svg>
