<svg width="12" height="12" viewBox="0 0 12 12" fill="none" xmlns="http://www.w3.org/2000/svg">
<path d="M6 11.2256C8.88608 11.2256 11.2256 8.88608 11.2256 6C11.2254 3.11408 8.88596 0.774414 6 0.774414C3.11419 0.774595 0.774595 3.11419 0.774414 6C0.774414 8.88596 3.11408 11.2254 6 11.2256ZM5.28613 5.77246C5.14385 5.91463 4.91288 5.91449 4.77051 5.77246L4.29883 5.30078L3.82715 5.77246C3.68473 5.91441 3.45376 5.9147 3.31152 5.77246C3.1693 5.63023 3.16958 5.39925 3.31152 5.25684L3.7832 4.78516L3.31152 4.31348C3.16951 4.17111 3.16936 3.94013 3.31152 3.79785C3.45379 3.65558 3.68474 3.6558 3.82715 3.79785L4.29883 4.26953L4.77051 3.79785C4.9129 3.65569 5.14383 3.65555 5.28613 3.79785C5.42844 3.94016 5.4283 4.17108 5.28613 4.31348L4.81445 4.78516L5.28613 5.25684C5.42819 5.39924 5.42841 5.63019 5.28613 5.77246ZM8.68848 5.77246C8.5461 5.91448 8.31513 5.91463 8.17285 5.77246L7.70215 5.30078L7.23047 5.77246C7.08816 5.91459 6.85719 5.91452 6.71484 5.77246C6.57252 5.63014 6.57263 5.39923 6.71484 5.25684L7.18652 4.78516L6.71484 4.31348C6.57253 4.17109 6.57249 3.94021 6.71484 3.79785C6.85721 3.65565 7.08814 3.65559 7.23047 3.79785L7.70215 4.26953L8.17285 3.79785C8.31515 3.65555 8.54608 3.6557 8.68848 3.79785C8.83086 3.94023 8.83086 4.1711 8.68848 4.31348L8.21777 4.78516L8.68848 5.25684C8.83076 5.39922 8.83082 5.63011 8.68848 5.77246ZM4.54199 8.30957C4.34064 8.30957 4.17773 8.14569 4.17773 7.94434C4.17798 7.74319 4.34079 7.58008 4.54199 7.58008L7.45898 7.58008C7.66005 7.58025 7.823 7.74329 7.82324 7.94434C7.82324 8.14559 7.66019 8.3094 7.45898 8.30957L4.54199 8.30957Z" fill="#C7C7C7"/>
</svg>
