<svg width="16" height="16" viewBox="0 0 16 16" fill="none" xmlns="http://www.w3.org/2000/svg">
<path fill-rule="evenodd" clip-rule="evenodd" d="M14.9268 9.3186C15.2096 9.55431 15.2478 9.97468 15.0121 10.2575L11.6788 14.2575C11.5589 14.4014 11.384 14.4882 11.1969 14.4967C11.0097 14.5052 10.8277 14.4346 10.6952 14.3022L9.02858 12.6355C8.76823 12.3751 8.76823 11.953 9.02858 11.6927C9.28892 11.4323 9.71103 11.4323 9.97138 11.6927L11.1218 12.8431L13.9878 9.40396C14.2235 9.1211 14.6439 9.08289 14.9268 9.3186Z" fill="#4DF2BE"/>
<path d="M9.84277 1.44178C11.1526 1.24534 12.9235 1.24071 14.7051 2.04236C14.8845 2.1231 15 2.30166 15 2.49842V8.24158C14.3747 8.04526 13.6653 8.23033 13.2197 8.76502L11.0547 11.3627L10.6787 10.9867C10.0278 10.3358 8.97216 10.3358 8.32129 10.9867C7.78796 11.5202 7.69224 12.325 8.0332 12.9564C6.25352 13.7555 4.48417 13.7513 3.17578 13.5551C2.51929 13.4566 1.97201 13.3087 1.58691 13.1849C1.39413 13.123 1.241 13.0672 1.13477 13.0258C1.08163 13.005 1.03988 12.9882 1.01074 12.976C0.997461 12.9704 0.97414 12.9599 0.963867 12.9554L0.961914 12.9545C0.782496 12.8737 0.667002 12.6952 0.666992 12.4984V2.49842C0.666992 2.32875 0.753032 2.17062 0.895508 2.07849C1.03774 1.98664 1.21661 1.97311 1.37109 2.04236C1.39241 2.05134 1.45353 2.07676 1.49805 2.09412C1.58713 2.12886 1.7208 2.17855 1.89258 2.23377C2.23661 2.34435 2.73092 2.47778 3.32422 2.56678C4.51433 2.74528 6.07636 2.74052 7.62793 2.04236L7.63281 2.04041C7.66616 2.02636 7.7513 1.99075 7.80176 1.97107C7.9079 1.92968 8.0605 1.87376 8.25293 1.81189C8.63806 1.6881 9.18614 1.54027 9.84277 1.44178ZM7.83398 5.50135C6.72906 5.50135 5.83301 6.39731 5.83301 7.50232C5.83317 8.6072 6.72916 9.5033 7.83398 9.5033C8.93874 9.50321 9.83382 8.60714 9.83398 7.50232C9.83398 6.39736 8.93884 5.50143 7.83398 5.50135ZM3.5 7.50232C3.13181 7.50233 2.83301 7.80113 2.83301 8.16932V8.17517C2.83311 8.54328 3.13187 8.84119 3.5 8.84119C3.86813 8.84119 4.16689 8.54328 4.16699 8.17517V8.16932C4.16699 7.80113 3.86819 7.50232 3.5 7.50232ZM12.1689 6.16248C11.8009 6.16266 11.5029 6.46139 11.5029 6.82947V6.83533C11.503 7.20333 11.801 7.50117 12.1689 7.50135C12.5371 7.50135 12.8358 7.20344 12.8359 6.83533V6.82947C12.8359 6.46128 12.5371 6.16248 12.1689 6.16248Z" fill="#4DF2BE"/>
</svg>
