<svg width="14" height="14" viewBox="0 0 14 14" fill="none" xmlns="http://www.w3.org/2000/svg">
<path fill-rule="evenodd" clip-rule="evenodd" d="M6.99979 0.166016C3.2259 0.166016 0.166504 3.2254 0.166504 6.99935C0.166504 10.7733 3.2259 13.8327 6.99979 13.8327C10.7737 13.8327 13.8331 10.7733 13.8331 6.99935C13.8331 6.63992 13.5417 6.34856 13.1823 6.34856C12.8229 6.34856 12.5315 6.63992 12.5315 6.99935C12.5315 10.0544 10.0549 12.5311 6.99979 12.5311C3.94474 12.5311 1.46808 10.0544 1.46808 6.99935C1.46808 3.94425 3.94474 1.4676 6.99979 1.4676C8.89578 1.4676 10.57 2.42154 11.567 3.8772L11.0463 3.761C10.6955 3.68272 10.3476 3.90365 10.2694 4.25444C10.1911 4.60524 10.412 4.95307 10.7628 5.03135L12.7314 5.47063C12.9077 5.50997 13.0924 5.47427 13.2414 5.37208C13.3903 5.26988 13.4901 5.11039 13.5168 4.93175L13.8259 2.86548C13.8791 2.51001 13.634 2.17874 13.2786 2.12556C12.9231 2.07238 12.5918 2.31743 12.5387 2.6729L12.4984 2.94184C11.2543 1.25855 9.2551 0.166016 6.99979 0.166016ZM8.6665 5.16602V5.83268C9.31084 5.83268 9.83317 6.35502 9.83317 6.99935V9.33268C9.83317 9.97701 9.31084 10.4993 8.6665 10.4993H5.33317C4.68884 10.4993 4.1665 9.97701 4.1665 9.33268V6.99935C4.1665 6.35502 4.68884 5.83268 5.33317 5.83268V5.16602C5.33317 4.24554 6.07936 3.49935 6.99984 3.49935C7.92031 3.49935 8.6665 4.24554 8.6665 5.16602ZM6.99984 4.49935C6.63165 4.49935 6.33317 4.79783 6.33317 5.16602V5.83268H7.6665V5.16602C7.6665 4.79783 7.36803 4.49935 6.99984 4.49935Z" fill="#4DF2BE"/>
</svg>
