<svg width="22" height="23" viewBox="0 0 22 23" fill="none" xmlns="http://www.w3.org/2000/svg">
<path d="M11 0.75C16.9371 0.750001 21.75 5.56294 21.75 11.5C21.75 17.4371 16.9371 22.25 11 22.25C5.06294 22.25 0.25 17.4371 0.25 11.5C0.25 5.56294 5.06294 0.75 11 0.75ZM11 5.75C10.5858 5.75 10.25 6.08579 10.25 6.5V6.92383C9.63494 7.02849 9.07033 7.26094 8.6123 7.59668C7.97354 8.06506 7.5 8.77474 7.5 9.62793C7.50003 10.3784 7.76965 11.0724 8.45801 11.5332C9.08216 11.9509 9.95237 12.1064 11 12.1064C11.9582 12.1064 12.5277 12.2505 12.8418 12.4541C13.0877 12.6135 13.25 12.8544 13.25 13.373C13.2499 13.8085 13.0713 14.0779 12.7373 14.2773C12.3576 14.504 11.7608 14.6387 11 14.6387C10.3002 14.6387 9.70018 14.4469 9.29688 14.1758C8.88931 13.9017 8.75016 13.6039 8.75 13.373C8.75 12.9588 8.41421 12.623 8 12.623C7.58579 12.623 7.25 12.9588 7.25 13.373C7.25016 14.2555 7.7824 14.9654 8.45996 15.4209C8.96056 15.7574 9.57861 15.9867 10.25 16.085V16.5C10.25 16.9142 10.5858 17.25 11 17.25C11.4142 17.25 11.75 16.9142 11.75 16.5V16.1006C12.3866 16.0325 12.9975 15.8688 13.5059 15.5654C14.2573 15.1168 14.7499 14.3774 14.75 13.373C14.75 12.4515 14.412 11.6841 13.6582 11.1953C12.9723 10.7508 12.0418 10.6064 11 10.6064C10.0478 10.6064 9.54282 10.4541 9.29199 10.2861C9.10559 10.1612 9.00003 9.99076 9 9.62793C9 9.36746 9.14249 9.06807 9.49902 8.80664C9.85511 8.54558 10.3834 8.36133 11 8.36133C11.6166 8.36133 12.1449 8.54558 12.501 8.80664C12.8575 9.06807 13 9.36746 13 9.62793C13.0001 10.0421 13.3358 10.3779 13.75 10.3779C14.1642 10.3779 14.4999 10.0421 14.5 9.62793C14.5 8.77474 14.0265 8.06506 13.3877 7.59668C12.9297 7.26094 12.3651 7.02849 11.75 6.92383V6.5C11.75 6.08579 11.4142 5.75 11 5.75Z" fill="#FFFA66"/>
</svg>
