<svg width="17" height="16" viewBox="0 0 17 16" fill="none" xmlns="http://www.w3.org/2000/svg">
<path fill-rule="evenodd" clip-rule="evenodd" d="M10.1667 3.625C10.1667 1.89911 11.5659 0.5 13.2917 0.5C15.0176 0.5 16.4167 1.89911 16.4167 3.625C16.4167 5.35089 15.0176 6.75 13.2917 6.75C11.5659 6.75 10.1667 5.35089 10.1667 3.625Z" fill="#4DF2BE"/>
<path fill-rule="evenodd" clip-rule="evenodd" d="M0.166748 8.20801C0.166748 6.48212 1.56586 5.08301 3.29175 5.08301C5.01764 5.08301 6.41675 6.48212 6.41675 8.20801C6.41675 9.9339 5.01764 11.333 3.29175 11.333C1.56586 11.333 0.166748 9.9339 0.166748 8.20801Z" fill="#4DF2BE"/>
<path fill-rule="evenodd" clip-rule="evenodd" d="M10.1667 12.792C10.1667 11.0661 11.5659 9.66699 13.2917 9.66699C15.0176 9.66699 16.4167 11.0661 16.4167 12.792C16.4167 14.5179 15.0176 15.917 13.2917 15.917C11.5659 15.917 10.1667 14.5179 10.1667 12.792Z" fill="#4DF2BE"/>
<path fill-rule="evenodd" clip-rule="evenodd" d="M11.1384 5.21448L5.72177 7.71404L5.02344 6.20073L10.4401 3.70117L11.1384 5.21448ZM5.72177 8.2845L11.1384 10.7841L10.4401 12.2974L5.02344 9.79782L5.72177 8.2845Z" fill="#4DF2BE"/>
</svg>
