<svg width="18" height="18" viewBox="0 0 18 18" fill="none" xmlns="http://www.w3.org/2000/svg">
<path fill-rule="evenodd" clip-rule="evenodd" d="M9.49984 2.33317C5.49032 2.33317 2.33317 5.36778 2.33317 8.99984C2.33317 12.6319 5.49032 15.6665 9.49984 15.6665C9.85822 15.6665 10.21 15.6421 10.5534 15.595C11.0094 15.5326 11.4297 15.8516 11.4921 16.3076C11.5546 16.7635 11.2356 17.1838 10.7796 17.2463C10.3614 17.3036 9.93402 17.3332 9.49984 17.3332C4.6728 17.3332 0.666504 13.6521 0.666504 8.99984C0.666504 4.34762 4.6728 0.666504 9.49984 0.666504C9.93402 0.666504 10.3614 0.696102 10.7796 0.753393C11.2356 0.815853 11.5546 1.23613 11.4921 1.69211C11.4297 2.14809 11.0094 2.4671 10.5534 2.40464C10.21 2.3576 9.85821 2.33317 9.49984 2.33317Z" fill="#FE857D"/>
<path fill-rule="evenodd" clip-rule="evenodd" d="M14.0979 6.14695C14.4093 6.01797 14.7678 6.08927 15.0061 6.3276L17.0894 8.41093C17.4149 8.73637 17.4149 9.26401 17.0894 9.58944L15.0061 11.6728C14.7678 11.9111 14.4093 11.9824 14.0979 11.8534C13.7865 11.7244 13.5835 11.4206 13.5835 11.0835V9.83352L8.16683 9.83352C7.70659 9.83352 7.3335 9.46042 7.3335 9.00019C7.3335 8.53995 7.70659 8.16685 8.16683 8.16685H13.5835V6.91685C13.5835 6.5798 13.7865 6.27594 14.0979 6.14695Z" fill="#FE857D"/>
</svg>
