<svg width="14" height="14" viewBox="0 0 14 14" fill="none" xmlns="http://www.w3.org/2000/svg">
<path d="M7.00024 0.856445C10.3927 0.856596 13.1428 3.60749 13.1428 7C13.1427 10.3924 10.3926 13.1424 7.00024 13.1426C3.60773 13.1426 0.85684 10.3925 0.856689 7C0.856689 3.60739 3.60764 0.856445 7.00024 0.856445ZM6.42896 6.42871C6.11336 6.42871 5.85669 6.68441 5.85669 7C5.85683 7.31547 6.11345 7.57129 6.42896 7.57129V9.85645C6.42896 10.172 6.68465 10.4287 7.00024 10.4287C7.31571 10.4286 7.57153 10.1719 7.57153 9.85645V7.54883C7.57161 7.43466 7.57161 7.29856 7.55591 7.18164C7.53694 7.04055 7.48605 6.84534 7.32056 6.67969C7.15503 6.51416 6.95974 6.46337 6.8186 6.44434C6.70178 6.42863 6.56555 6.42864 6.45142 6.42871C6.44396 6.42872 6.43622 6.42871 6.42896 6.42871ZM6.99731 4.14258C6.6832 4.1426 6.42903 4.39836 6.42896 4.71387C6.42896 5.02944 6.68316 5.28513 6.99731 5.28516H7.0022C7.31638 5.28516 7.57153 5.02946 7.57153 4.71387C7.57146 4.39834 7.31633 4.14258 7.0022 4.14258H6.99731Z" fill="#FFC051"/>
</svg>
