<svg width="40" height="40" viewBox="0 0 40 40" fill="none" xmlns="http://www.w3.org/2000/svg">
<path d="M20 40C31.0834 40 40 31.0834 40 20C40 8.9166 31.0834 0 20 0C8.9166 0 0 8.9166 0 20C0 31.0834 8.9166 40 20 40Z" fill="#2775CA"/>
<path d="M25.5001 23.1665C25.5001 20.2499 23.7501 19.2499 20.2501 18.8333C17.7501 18.4999 17.2501 17.8333 17.2501 16.6665C17.2501 15.4997 18.0835 14.7499 19.7501 14.7499C21.2501 14.7499 22.0835 15.2499 22.5001 16.4999C22.5835 16.7499 22.8335 16.9165 23.0835 16.9165H24.4167C24.7501 16.9165 25.0001 16.6665 25.0001 16.3333V16.2499C24.6667 14.4165 23.1667 12.9999 21.2501 12.8333V10.8333C21.2501 10.4999 21.0001 10.2499 20.5835 10.1665H19.3335C19.0001 10.1665 18.7501 10.4165 18.6667 10.8333V12.7499C16.1667 13.0833 14.5835 14.7499 14.5835 16.8333C14.5835 19.5833 16.2501 20.6665 19.7501 21.0833C22.0835 21.4999 22.8335 21.9999 22.8335 23.3333C22.8335 24.6667 21.6667 25.5833 20.0835 25.5833C17.9167 25.5833 17.1667 24.6665 16.9167 23.4165C16.8335 23.0833 16.5835 22.9165 16.3335 22.9165H14.9167C14.5835 22.9165 14.3335 23.1665 14.3335 23.4999V23.5833C14.6667 25.6665 16.0001 27.1665 18.7501 27.5833V29.5833C18.7501 29.9165 19.0001 30.1665 19.4167 30.2499H20.6667C21.0001 30.2499 21.2501 29.9999 21.3335 29.5833V27.5833C23.8335 27.1665 25.5001 25.4165 25.5001 23.1665Z" fill="white"/>
<path fill-rule="evenodd" clip-rule="evenodd" d="M8.33258 15.9167C5.91578 22.3335 9.24918 29.5835 15.7492 31.9167C15.9992 32.0835 16.2492 32.4167 16.2492 32.6667V33.8335C16.2492 34.0001 16.2492 34.0835 16.1658 34.1667C16.0826 34.5001 15.7492 34.6667 15.4158 34.5001C10.7492 33.0001 7.16578 29.4167 5.66578 24.7501C3.16578 16.8335 7.49918 8.4167 15.4158 5.9167C15.4992 5.8335 15.6658 5.8335 15.7492 5.8335C16.0826 5.9167 16.2492 6.1667 16.2492 6.5001V7.6667C16.2492 8.0835 16.0826 8.3335 15.7492 8.5001C12.3326 9.7501 9.58258 12.4167 8.33258 15.9167ZM23.8323 6.25009C23.9155 5.91669 24.2489 5.75009 24.5823 5.91669C29.1655 7.41669 32.8323 11.0001 34.3323 15.7501C36.8323 23.6667 32.4989 32.0835 24.5823 34.5835C24.4989 34.6667 24.3323 34.6667 24.2489 34.6667C23.9155 34.5835 23.7489 34.3335 23.7489 34.0001V32.8335C23.7489 32.4167 23.9155 32.1667 24.2489 32.0001C27.6655 30.7501 30.4155 28.0835 31.6655 24.5835C34.0823 18.1667 30.7489 10.9167 24.2489 8.58349C23.9989 8.41669 23.7489 8.08349 23.7489 7.75009V6.58349C23.7489 6.41669 23.7489 6.33349 23.8323 6.25009Z" fill="white"/>
</svg>
