<svg width="15" height="15" viewBox="0 0 15 15" fill="none" xmlns="http://www.w3.org/2000/svg">
<path fill-rule="evenodd" clip-rule="evenodd" d="M11 0.25C5.06292 0.25 0.25 5.06292 0.25 11C0.25 16.9369 5.06291 21.75 11 21.75C16.9371 21.75 21.75 16.9369 21.75 11C21.75 5.06292 16.9371 0.25 11 0.25ZM19.7955 11.0005C19.7955 15.858 15.8576 19.796 11 19.796V16C13.7614 16 16 13.7613 16 11C16 8.23857 13.7614 6 11 6V2.20508C15.8576 2.20508 19.7955 6.14292 19.7955 11.0005ZM11 6C8.23857 6 6 8.23857 6 11C6 13.7613 8.23857 16 11 16V6Z" fill="#4DF2BE"/>
</svg>
