<svg width="16" height="16" viewBox="0 0 16 16" fill="none" xmlns="http://www.w3.org/2000/svg">
<path fill-rule="evenodd" clip-rule="evenodd" d="M1 3C1 1.89543 1.89543 1 3 1H5.33333C5.70152 1 6 1.29848 6 1.66667C6 2.03486 5.70152 2.33333 5.33333 2.33333H3C2.63181 2.33333 2.33333 2.63181 2.33333 3V5.33333C2.33333 5.70152 2.03486 6 1.66667 6C1.29848 6 1 5.70152 1 5.33333V3ZM10 1.66667C10 1.29848 10.2985 1 10.6667 1H13C14.1046 1 15 1.89543 15 3V5.33333C15 5.70152 14.7015 6 14.3333 6C13.9651 6 13.6667 5.70152 13.6667 5.33333V3C13.6667 2.63181 13.3682 2.33333 13 2.33333H10.6667C10.2985 2.33333 10 2.03486 10 1.66667ZM1.66667 10C2.03486 10 2.33333 10.2985 2.33333 10.6667V13C2.33333 13.3682 2.63181 13.6667 3 13.6667H5.33333C5.70152 13.6667 6 13.9651 6 14.3333C6 14.7015 5.70152 15 5.33333 15H3C1.89543 15 1 14.1046 1 13V10.6667C1 10.2985 1.29848 10 1.66667 10ZM14.3333 10C14.7015 10 15 10.2985 15 10.6667V13C15 14.1046 14.1046 15 13 15H10.6667C10.2985 15 10 14.7015 10 14.3333C10 13.9651 10.2985 13.6667 10.6667 13.6667H13C13.3682 13.6667 13.6667 13.3682 13.6667 13V10.6667C13.6667 10.2985 13.9651 10 14.3333 10Z" fill="#4DF2BE"/>
<path fill-rule="evenodd" clip-rule="evenodd" d="M7.99984 5.33333C7.50862 5.33333 7.14269 5.71572 7.14269 6.14815V6.66667H8.85698V6.14815C8.85698 5.71572 8.49105 5.33333 7.99984 5.33333ZM10.1903 6.66667V6.14815C10.1903 4.94418 9.19177 4 7.99984 4C6.8079 4 5.80936 4.94418 5.80936 6.14815V6.66667H5.33317C5.15636 6.66667 4.98679 6.7369 4.86177 6.86193C4.73674 6.98695 4.6665 7.15652 4.6665 7.33333V11.3333C4.6665 11.7015 4.96498 12 5.33317 12H10.6665C11.0347 12 11.3332 11.7015 11.3332 11.3333V7.33333C11.3332 6.96514 11.0347 6.66667 10.6665 6.66667H10.1903Z" fill="#4DF2BE"/>
</svg>
