<svg width="12" height="12" viewBox="0 0 12 12" fill="none" xmlns="http://www.w3.org/2000/svg">
<path d="M7.5 5.375C7.70711 5.375 7.875 5.54289 7.875 5.75C7.875 5.95711 7.70711 6.125 7.5 6.125H4.5C4.29289 6.125 4.125 5.95711 4.125 5.75C4.125 5.54289 4.29289 5.375 4.5 5.375H7.5Z" fill="#C7C7C7"/>
<path d="M6.75 7.375C6.95711 7.375 7.125 7.54289 7.125 7.75C7.125 7.95711 6.95711 8.125 6.75 8.125H5.25C5.04289 8.125 4.875 7.95711 4.875 7.75C4.875 7.54289 5.04289 7.375 5.25 7.375H6.75Z" fill="#C7C7C7"/>
<path d="M2.22755 2.37568C2.43418 2.36329 2.612 2.52108 2.62452 2.72773L3.06739 10.0378C3.08739 10.3677 3.36092 10.6252 3.69142 10.6252H8.30861C8.6391 10.6252 8.91264 10.3677 8.93263 10.0378L9.3755 2.72773C9.38802 2.52108 9.56585 2.36329 9.77247 2.37568C9.97912 2.38821 10.1369 2.56603 10.1245 2.77266L9.68116 10.0832C9.63718 10.809 9.03569 11.3752 8.30861 11.3752H3.69142C2.96433 11.3752 2.36284 10.809 2.31886 10.0832L1.8755 2.77266C1.8631 2.56603 2.0209 2.38821 2.22755 2.37568Z" fill="#C7C7C7"/>
<path d="M6.92041 0.625C7.27038 0.625043 7.58674 0.833595 7.72461 1.15527L8.24756 2.375H10.5C10.7071 2.375 10.875 2.54289 10.875 2.75C10.875 2.95711 10.7071 3.125 10.5 3.125H1.5C1.29289 3.125 1.125 2.95711 1.125 2.75C1.125 2.54289 1.29289 2.375 1.5 2.375H3.75244L4.27539 1.15527C4.41326 0.833595 4.72962 0.625043 5.07959 0.625H6.92041ZM5.07959 1.375C5.02966 1.37504 4.98454 1.4048 4.96484 1.45068L4.56885 2.375H7.43115L7.03516 1.45068C7.01545 1.4048 6.97034 1.37504 6.92041 1.375H5.07959Z" fill="#C7C7C7"/>
</svg>
