<svg width="18" height="18" viewBox="0 0 18 18" fill="none" xmlns="http://www.w3.org/2000/svg">
<path fill-rule="evenodd" clip-rule="evenodd" d="M0 8.95833C0 13.9059 4.01078 17.9167 8.95833 17.9167C13.9059 17.9167 17.9167 13.9059 17.9167 8.95833C17.9167 4.01078 13.9059 0 8.95833 0C4.01078 0 0 4.01078 0 8.95833ZM8.95833 4.79167C9.41857 4.79167 9.79167 5.16476 9.79167 5.625V8.125H12.2917C12.7519 8.125 13.125 8.4981 13.125 8.95833C13.125 9.41857 12.7519 9.79167 12.2917 9.79167H9.79167V12.2917C9.79167 12.7519 9.41857 13.125 8.95833 13.125C8.4981 13.125 8.125 12.7519 8.125 12.2917V9.79167H5.625C5.16476 9.79167 4.79167 9.41857 4.79167 8.95833C4.79167 8.4981 5.16476 8.125 5.625 8.125H8.125V5.625C8.125 5.16476 8.4981 4.79167 8.95833 4.79167Z" fill="#FFFA66"/>
</svg>
