<svg width="20" height="22" viewBox="0 0 20 22" fill="none" xmlns="http://www.w3.org/2000/svg">
<path d="M10.0005 0.265137C10.3561 0.265174 10.7191 0.374869 11.0884 0.51416C11.4623 0.655207 11.9298 0.862063 12.5122 1.12061C13.3683 1.50063 14.4985 1.93722 15.7105 2.28174C16.5947 2.5331 17.3095 2.73677 17.8511 2.94678C18.3953 3.15782 18.8889 3.4192 19.2212 3.85889C19.543 4.28488 19.6673 4.7831 19.7241 5.31982C19.779 5.83784 19.7788 6.48804 19.7788 7.2749V10.228C19.7787 13.2927 18.3952 15.7233 16.7231 17.5347C15.0563 19.3403 13.07 20.5685 11.7612 21.2593L11.6987 21.2925C11.1413 21.5872 10.6853 21.8276 10.0005 21.8276C9.31555 21.8276 8.8597 21.5872 8.30225 21.2925L8.23877 21.2593C6.93001 20.5685 4.9446 19.3401 3.27783 17.5347C1.6058 15.7233 0.222258 13.2927 0.222169 10.228V7.2749C0.222152 6.48802 0.222009 5.83784 0.276856 5.31982C0.333709 4.78311 0.457043 4.28488 0.778809 3.85889C1.11095 3.41917 1.60475 3.15783 2.14893 2.94678C2.69058 2.73674 3.4061 2.53314 4.29053 2.28174C5.50248 1.93722 6.63268 1.50063 7.48877 1.12061C8.07089 0.862194 8.53782 0.65518 8.91162 0.51416C9.28107 0.374802 9.64478 0.265137 10.0005 0.265137ZM13.5415 6.50342C13.2478 6.20967 12.7708 6.20967 12.4771 6.50342L8.46729 10.5142C7.63033 10.1161 6.59324 10.2583 5.89502 10.9565C5.00394 11.8479 5.02899 13.2751 5.90088 14.147C6.77603 15.022 8.19834 15.0358 9.08643 14.1479C9.78352 13.4509 9.93151 12.4147 9.53174 11.5767L11.0034 10.105L11.9761 11.0776C12.2697 11.3711 12.7459 11.371 13.0396 11.0776C13.3333 10.7839 13.3333 10.3069 13.0396 10.0132L12.0669 9.04053L13.0093 8.09912L14.4829 9.57275C14.7767 9.8665 15.2536 9.8665 15.5474 9.57275C15.8408 9.27907 15.8408 8.80297 15.5474 8.50928L13.5415 6.50342ZM6.9585 12.02C7.25438 11.7241 7.73634 11.7266 8.02881 12.019C8.31787 12.3082 8.32178 12.7844 8.02295 13.0835C7.72798 13.3785 7.25771 13.3767 6.96436 13.0835C6.66784 12.787 6.66695 12.3118 6.9585 12.02Z" fill="#4DF2BE"/>
</svg>
