<svg width="17" height="16" viewBox="0 0 17 16" fill="none" xmlns="http://www.w3.org/2000/svg">
<path fill-rule="evenodd" clip-rule="evenodd" d="M12.8335 1.29344C12.9394 1.38829 13 1.52378 13 1.666V10.666C13 10.881 12.8626 11.0718 12.6588 11.1401L12.6581 11.1403L12.6548 11.1415L12.635 11.1485C12.6165 11.1551 12.5877 11.1657 12.5498 11.1804C12.474 11.2098 12.3619 11.2555 12.2231 11.3188C11.945 11.4457 11.5631 11.6415 11.1524 11.9154C10.325 12.4669 9.41757 13.3098 8.96816 14.5082C8.88329 14.7346 8.64864 14.8678 8.41079 14.8246C8.17294 14.7815 8 14.5744 8 14.3327V4.666C8 4.60605 8.01078 4.54658 8.03184 4.49044C8.59169 2.9975 9.71116 2.16642 10.66 1.71457C11.1349 1.48843 11.5746 1.3532 11.8964 1.27419C12.0577 1.23457 12.1906 1.20877 12.2851 1.19265C12.3324 1.18459 12.3701 1.17893 12.3971 1.17517C12.4106 1.17329 12.4215 1.17189 12.4295 1.17089L12.4393 1.16969L12.4426 1.16931L12.4438 1.16917L12.4448 1.16908C12.5861 1.15337 12.7275 1.19859 12.8335 1.29344ZM12 2.28034C11.7455 2.34993 11.4274 2.45674 11.09 2.61743C10.3077 2.98994 9.44976 3.63649 9 4.75945V12.5032C9.50125 11.8978 10.0766 11.4307 10.5977 11.0833C11.0619 10.7738 11.4925 10.553 11.8081 10.409C11.8778 10.3772 11.9421 10.3491 12 10.3246V2.28034Z" fill="#4DF2BE"/>
<path fill-rule="evenodd" clip-rule="evenodd" d="M8.86263 4.32241C8.95086 4.41533 9.00004 4.53856 9.00004 4.66669V12.5038C9.50129 11.8985 10.0766 11.4314 10.5977 11.084C11.0619 10.7745 11.4925 10.5537 11.8082 10.4097C11.8778 10.3779 11.9421 10.3498 12 10.3252V3.0201C12 2.75792 12.2025 2.54027 12.464 2.52139C13.2968 2.46128 14.239 2.52237 15.2848 2.77655C15.5089 2.83103 15.6667 3.03175 15.6667 3.26241V12.9291C15.6667 13.0825 15.5963 13.2274 15.4757 13.3222C15.3551 13.417 15.1977 13.4512 15.0486 13.4149C12.9975 12.9164 11.4414 13.2513 10.4055 13.6958C9.8847 13.9192 9.49155 14.1722 9.23152 14.3664C9.10161 14.4635 9.00538 14.5455 8.94353 14.6012C8.91263 14.6291 8.89036 14.6503 8.87684 14.6635C8.87007 14.6702 8.8655 14.6748 8.86313 14.6772L8.86228 14.678L8.86135 14.679C8.76704 14.7776 8.63652 14.8334 8.50004 14.8334C8.36356 14.8334 8.23304 14.7776 8.13873 14.679L8.13797 14.6782L8.13695 14.6772C8.13458 14.6748 8.13001 14.6702 8.12324 14.6635C8.10972 14.6503 8.08746 14.6291 8.05655 14.6012C7.9947 14.5455 7.89847 14.4635 7.76857 14.3664C7.50853 14.1722 7.11538 13.9192 6.59455 13.6958C5.55871 13.2513 4.00257 12.9164 1.95146 13.4149C1.80241 13.4512 1.64497 13.417 1.52438 13.3222C1.40378 13.2274 1.33337 13.0825 1.33337 12.9291V3.26241C1.33337 3.03175 1.49116 2.83103 1.71529 2.77656C3.99751 2.22187 5.77471 2.58914 6.98887 3.11011C7.59303 3.36935 8.05405 3.66488 8.36693 3.89855C8.52349 4.01547 8.6434 4.11723 8.72608 4.19176C8.76744 4.22904 8.79954 4.25956 8.82231 4.28182C8.8337 4.29295 8.84276 4.30202 8.84948 4.30885L8.85781 4.31738L8.86066 4.32034L8.86176 4.32149L8.86263 4.32241Z" fill="#4DF2BE"/>
</svg>
