<svg width="18" height="18" viewBox="0 0 18 18" fill="none" xmlns="http://www.w3.org/2000/svg">
<path fill-rule="evenodd" clip-rule="evenodd" d="M15.1865 6.50041C14.2255 4.01469 11.828 2.02651 7.98543 2.37307C7.52705 2.4144 7.12195 2.07633 7.08061 1.61795C7.03927 1.15958 7.37735 0.754476 7.83573 0.713136C12.4509 0.296914 15.5236 2.75026 16.741 5.89943C17.8261 8.70623 17.4439 12.112 15.3566 14.417H16.0823C16.5426 14.417 16.9156 14.7901 16.9156 15.2503C16.9156 15.7106 16.5426 16.0837 16.0823 16.0837H13.1657C12.7054 16.0837 12.3323 15.7106 12.3323 15.2503V12.3337C12.3323 11.8734 12.7054 11.5003 13.1657 11.5003C13.6259 11.5003 13.999 11.8734 13.999 12.3337V13.4282C15.7052 11.6555 16.1043 8.8744 15.1865 6.50041ZM1.08232 2.75035C1.08232 2.29011 1.45542 1.91702 1.91566 1.91702H4.83232C5.29256 1.91702 5.66566 2.29011 5.66566 2.75035V5.25035C5.66566 5.71059 5.29256 6.08368 4.83232 6.08368C4.37208 6.08368 3.99899 5.71059 3.99899 5.25035V4.57209C2.2867 6.34128 1.89377 9.1059 2.81668 11.4722C3.7828 13.9493 6.18483 15.9405 10.0122 15.6362C10.471 15.5997 10.8725 15.9421 10.9089 16.4009C10.9454 16.8596 10.6031 17.2611 10.1443 17.2976C5.55456 17.6625 2.48641 15.2122 1.26394 12.0778C0.171627 9.27717 0.547299 5.88568 2.64038 3.58368H1.91566C1.45542 3.58368 1.08232 3.21059 1.08232 2.75035Z" fill="#FFC051"/>
</svg>
