<svg width="20" height="20" viewBox="0 0 20 20" fill="none" xmlns="http://www.w3.org/2000/svg">
<path d="M9.06619 1.62968C9.60703 1.17962 10.3929 1.17924 10.9334 1.62968L12.6677 3.07597C12.7052 3.10717 12.7528 3.12479 12.8015 3.12479H15.4168C16.222 3.12499 16.8748 3.77751 16.8748 4.5828V7.19804C16.8748 7.24671 16.8915 7.29441 16.9226 7.33183L18.367 9.06718C18.8162 9.60763 18.8164 10.3921 18.367 10.9324L16.9226 12.6678C16.8917 12.7051 16.8748 12.7521 16.8748 12.8006V15.4158C16.8748 16.2211 16.222 16.8746 15.4168 16.8748H12.8015C12.7528 16.8748 12.7052 16.8914 12.6677 16.9226L10.9334 18.3689C10.3929 18.8194 9.60702 18.819 9.06619 18.3689L7.32791 16.9226C7.29059 16.8916 7.24363 16.8749 7.19509 16.8748H4.57986C3.77444 16.8748 3.12087 16.2212 3.12087 15.4158V12.8006C3.12083 12.7521 3.10401 12.7051 3.07302 12.6678L1.62966 10.9324C1.18008 10.3919 1.18009 9.60765 1.62966 9.06718L3.07302 7.33183C3.10415 7.29441 3.12087 7.24671 3.12087 7.19804V4.5828C3.12087 3.77739 3.77444 3.12479 4.57986 3.12479H7.19509C7.24364 3.1247 7.29058 3.10702 7.32791 3.07597L9.06619 1.62968ZM9.99978 7.0828C8.38895 7.0828 7.08279 8.38896 7.08279 9.99979C7.08279 11.6106 8.38895 12.9168 9.99978 12.9168C11.6106 12.9168 12.9168 11.6106 12.9168 9.99979C12.9168 8.38896 11.6106 7.0828 9.99978 7.0828Z" fill="#8F8F8F"/>
</svg>
