<svg width="48" height="52" viewBox="0 0 48 52" fill="none" xmlns="http://www.w3.org/2000/svg">
<path fill-rule="evenodd" clip-rule="evenodd" d="M14.3306 9.54168C15.0441 10.6148 14.7526 12.0631 13.6795 12.7766C8.64384 16.1248 5.33317 21.8431 5.33317 28.3336C5.33317 38.6429 13.6905 47.0002 23.9998 47.0002C34.3092 47.0002 42.6665 38.6429 42.6665 28.3336C42.6665 21.8431 39.3558 16.1248 34.3202 12.7766C33.2471 12.0631 32.9556 10.6148 33.6691 9.54168C34.3826 8.46856 35.8309 8.17704 36.904 8.89054C43.1853 13.0669 47.3332 20.2153 47.3332 28.3336C47.3332 41.2202 36.8865 51.6669 23.9998 51.6669C11.1132 51.6669 0.666504 41.2202 0.666504 28.3336C0.666504 20.2153 4.8144 13.0669 11.0956 8.89054C12.1688 8.17704 13.6171 8.46856 14.3306 9.54168Z" fill="#FE857D"/>
<path fill-rule="evenodd" clip-rule="evenodd" d="M23.9998 0.333984C25.2885 0.333984 26.3332 1.37865 26.3332 2.66732V21.334C26.3332 22.6226 25.2885 23.6673 23.9998 23.6673C22.7112 23.6673 21.6665 22.6226 21.6665 21.334V2.66732C21.6665 1.37865 22.7112 0.333984 23.9998 0.333984Z" fill="#FE857D"/>
</svg>
