<svg width="114" height="114" viewBox="0 0 114 114" fill="none" xmlns="http://www.w3.org/2000/svg">
<g id="Group">
<path id="Vector" d="M75.9471 99.6316L53.3903 58.2789L71.2103 28.5789L109.105 99.6316H75.9471ZM38.0524 47.5263L66.4734 99.6316H9.63135L38.0524 47.5263ZM26.2103 38.0526C23.0696 38.0526 20.0575 36.805 17.8367 34.5842C15.6158 32.3633 14.3682 29.3512 14.3682 26.2105C14.3682 23.0698 15.6158 20.0577 17.8367 17.8369C20.0575 15.6161 23.0696 14.3684 26.2103 14.3684C29.351 14.3684 32.3631 15.6161 34.5839 17.8369C36.8048 20.0577 38.0524 23.0698 38.0524 26.2105C38.0524 29.3512 36.8048 32.3633 34.5839 34.5842C32.3631 36.805 29.351 38.0526 26.2103 38.0526Z" fill="#8F8F8F"/>
</g>
</svg>
