<svg width="15" height="14" viewBox="0 0 15 14" fill="none" xmlns="http://www.w3.org/2000/svg">
<path d="M8.38008 0.500001C9.28282 0.499978 10.0272 0.499959 10.6164 0.57917C11.2349 0.662333 11.7812 0.843645 12.2186 1.28105C12.656 1.71846 12.8373 2.26474 12.9205 2.88329C12.9997 3.47247 12.9997 4.21688 12.9997 5.11962V5.11964V7.5C12.9997 7.86819 12.7012 8.16667 12.333 8.16667C11.9648 8.16667 11.6663 7.86819 11.6663 7.5V5.16667C11.6663 4.20501 11.6649 3.55084 11.5991 3.06096C11.5358 2.59025 11.4242 2.37224 11.2758 2.22386C11.1274 2.07548 10.9094 1.9639 10.4387 1.90061C9.94884 1.83475 9.29467 1.83334 8.33301 1.83334H4.99968C4.03802 1.83334 3.38384 1.83475 2.89396 1.90061C2.42326 1.9639 2.20525 2.07548 2.05687 2.22386C1.90849 2.37224 1.79691 2.59025 1.73362 3.06096C1.66776 3.55084 1.66634 4.20501 1.66634 5.16667V7.5C1.66634 7.86819 1.36787 8.16667 0.999677 8.16667C0.631487 8.16667 0.33301 7.86819 0.33301 7.5L0.333009 5.11962V5.1196C0.332986 4.21686 0.332967 3.47246 0.412178 2.88329C0.495341 2.26474 0.676653 1.71846 1.11406 1.28105C1.55146 0.843645 2.09775 0.662333 2.7163 0.57917C3.30547 0.499959 4.04987 0.499978 4.9526 0.500001H4.95263H8.38006H8.38008Z" fill="#4DF2BE"/>
<path fill-rule="evenodd" clip-rule="evenodd" d="M4.77767 7.16602C3.04974 7.16602 1.66699 8.59384 1.66699 10.3327C1.66699 12.0715 3.04974 13.4993 4.77767 13.4993C5.96731 13.4993 6.99407 12.8214 7.51761 11.8328L7.51762 11.8328C7.58148 11.7122 7.61342 11.6519 7.66101 11.6232C7.70861 11.5946 7.77087 11.5946 7.89539 11.5946H9.47198C9.66054 11.5946 9.75482 11.5946 9.8134 11.6532C9.87198 11.7117 9.87198 11.806 9.87198 11.9946L9.87198 12.2616C9.87193 12.4199 9.87188 12.5837 9.88991 12.7207C9.91061 12.878 9.96283 13.073 10.1239 13.2376C10.2865 13.4036 10.4817 13.4589 10.6406 13.4808L12.0297 13.4847C12.1685 13.4673 12.3361 13.4239 12.4885 13.2963C12.6397 13.1697 12.7122 13.0132 12.7549 12.8816C12.779 12.8071 12.8866 12.2739 12.9575 11.9176C12.9882 11.7632 13.0036 11.6859 13.0581 11.6406C13.1127 11.5953 13.192 11.5944 13.3506 11.5926C13.543 11.5904 13.7616 11.5858 13.8329 11.576C13.9918 11.5542 14.187 11.4988 14.3496 11.3328C14.4462 11.2341 14.5028 11.1187 14.5374 11.0298C14.5741 10.9356 14.5996 10.8356 14.6177 10.7398C14.654 10.5483 14.6685 10.3333 14.6669 10.1294C14.6652 9.92517 14.6473 9.71331 14.6105 9.52725C14.5921 9.43442 14.567 9.33799 14.5321 9.2478C14.5 9.16495 14.4455 9.04962 14.3496 8.95162C14.187 8.78559 13.9918 8.73025 13.8329 8.70842C13.6966 8.68971 13.5343 8.68977 13.3801 8.68982L7.66439 8.68983C7.55648 8.68983 7.50253 8.68983 7.45909 8.66719C7.41565 8.64454 7.3818 8.59612 7.31412 8.49926C6.75225 7.69527 5.82815 7.16602 4.77767 7.16602ZM4.8292 9.33268C4.27938 9.33268 3.83366 9.7804 3.83366 10.3327C3.83366 10.885 4.27938 11.3327 4.8292 11.3327H4.83812C5.38794 11.3327 5.83366 10.885 5.83366 10.3327C5.83366 9.7804 5.38794 9.33268 4.83812 9.33268H4.8292Z" fill="#4DF2BE"/>
</svg>
