<svg width="66" height="72" viewBox="0 0 66 72" fill="none" xmlns="http://www.w3.org/2000/svg">
<path fill-rule="evenodd" clip-rule="evenodd" d="M32.9994 0.519531C31.8288 0.519531 30.6334 0.878891 29.4176 1.33749C28.187 1.80168 26.65 2.48397 24.7333 3.33485C21.916 4.58546 18.1977 6.02075 14.2093 7.15449L14.2093 7.1545C11.2987 7.98182 8.94566 8.65068 7.16316 9.34188C5.37174 10.0365 3.74757 10.8982 2.6542 12.3457C1.59529 13.7476 1.1879 15.3854 1.00081 17.1517C0.820217 18.8565 0.820261 20.9957 0.820314 23.5856V23.5857V33.3037C0.820314 43.3894 5.3731 51.387 10.8757 57.348C16.3612 63.2905 22.8962 67.3329 27.2035 69.6061L27.4115 69.716C29.2459 70.6858 30.7454 71.4785 32.9994 71.4785C35.2534 71.4785 36.7528 70.6858 38.5873 69.716L38.7953 69.6061C43.1025 67.3329 49.6375 63.2905 55.1231 57.348C60.6257 51.387 65.1784 43.3894 65.1784 33.3037V23.5856C65.1785 20.9957 65.1785 18.8565 64.9979 17.1517C64.8109 15.3854 64.4035 13.7476 63.3446 12.3457C62.2512 10.8982 60.627 10.0365 58.8356 9.34188C57.0531 8.6507 54.7001 7.98184 51.7897 7.15455L51.7896 7.15452L51.7894 7.15447C47.8011 6.02073 44.0827 4.58541 41.2654 3.3348C39.3486 2.48394 37.8117 1.80167 36.5812 1.3375C35.3654 0.878891 34.1699 0.519531 32.9994 0.519531ZM44.651 21.047C43.6843 20.0804 42.117 20.0804 41.1503 21.047L27.9524 34.2449C25.1982 32.935 21.787 33.4031 19.4893 35.7009C16.5561 38.634 16.6383 43.331 19.5079 46.2005C22.3881 49.0807 27.0686 49.1253 29.9912 46.2027C32.2853 43.9086 32.7722 40.5 31.4564 37.7422L36.2998 32.8988L39.5001 36.0991C40.4668 37.0658 42.0341 37.0658 43.0008 36.0991C43.9674 35.1324 43.9674 33.5652 43.0008 32.5985L39.8004 29.3982L42.9007 26.298L47.7512 31.1485C48.7178 32.1152 50.2851 32.1152 51.2518 31.1485C52.2185 30.1818 52.2185 28.6145 51.2518 27.6479L44.651 21.047ZM22.9899 39.2015C23.9636 38.2278 25.5466 38.2368 26.5091 39.1993C27.4609 40.1511 27.4749 41.7178 26.4905 42.7021C25.5197 43.6729 23.9738 43.6653 23.0085 42.6999C22.0324 41.7239 22.0297 40.1617 22.9899 39.2015Z" fill="#4DF2BE"/>
</svg>
