<svg width="24" height="24" viewBox="0 0 24 24" fill="none" xmlns="http://www.w3.org/2000/svg">
<path fill-rule="evenodd" clip-rule="evenodd" d="M5.21249 0.625002C5.23271 0.625003 5.253 0.625004 5.27336 0.625004L18.7875 0.625002C19.6865 0.624961 20.4497 0.624926 21.0518 0.706973C21.6891 0.793817 22.2985 0.989853 22.765 1.5031C23.2356 2.02084 23.3645 2.64479 23.3743 3.2826C23.3836 3.87825 23.2883 4.61817 23.1772 5.48087L23.1691 5.5437C23.1298 5.84899 23.0709 6.14426 22.948 6.43989C22.8232 6.74004 22.6514 6.99567 22.4375 7.24972C21.2945 8.60679 19.1697 11.0593 16.1783 13.2927C16.13 13.3288 16.0689 13.4145 16.0573 13.5429C15.7676 16.7429 15.5195 18.4054 15.3265 19.435C15.1266 20.5011 14.3022 21.2444 13.6006 21.7524C13.2319 22.0193 12.842 22.259 12.4969 22.4687C12.4656 22.4878 12.4348 22.5065 12.4044 22.5249C12.0868 22.7177 11.8207 22.8793 11.6023 23.0337C11.0042 23.4564 10.2912 23.4726 9.71666 23.1587C9.1635 22.8564 8.79673 22.2851 8.71929 21.6314C8.55903 20.2785 8.25834 17.5399 7.93039 13.5355C7.91985 13.4069 7.85873 13.3204 7.80979 13.2839C4.82449 11.0532 2.70379 8.605 1.56242 7.24968C1.34848 6.99563 1.1767 6.74 1.05194 6.43986C0.929059 6.14424 0.870139 5.84898 0.830846 5.5437C0.828141 5.52268 0.825444 5.50174 0.822756 5.48086C0.71167 4.61817 0.616393 3.87825 0.625619 3.2826C0.635497 2.64479 0.764322 2.02084 1.23494 1.5031C1.70147 0.989852 2.31086 0.793817 2.94819 0.706973C3.55031 0.624926 4.3135 0.624961 5.21249 0.625002Z" fill="#DBDBDB"/>
</svg>
