<svg width="16" height="14" viewBox="0 0 16 14" fill="none" xmlns="http://www.w3.org/2000/svg">
<path fill-rule="evenodd" clip-rule="evenodd" d="M12.4223 1.81868C12.7073 2.05184 12.7493 2.47185 12.5162 2.75681L9.51615 6.42348C9.283 6.70844 8.86299 6.75045 8.57802 6.51729C8.29306 6.28414 8.25106 5.86413 8.48421 5.57916L11.4842 1.9125C11.7174 1.62753 12.1374 1.58553 12.4223 1.81868Z" fill="#4DF2BE"/>
<path fill-rule="evenodd" clip-rule="evenodd" d="M8.00016 6.66732C7.81607 6.66732 7.66683 6.81656 7.66683 7.00065C7.66683 7.18475 7.81607 7.33398 8.00016 7.33398C8.18426 7.33398 8.3335 7.18475 8.3335 7.00065C8.3335 6.81656 8.18426 6.66732 8.00016 6.66732ZM6.3335 7.00065C6.3335 6.08018 7.07969 5.33398 8.00016 5.33398C8.92064 5.33398 9.66683 6.08018 9.66683 7.00065C9.66683 7.92113 8.92064 8.66732 8.00016 8.66732C7.07969 8.66732 6.3335 7.92113 6.3335 7.00065Z" fill="#4DF2BE"/>
<path fill-rule="evenodd" clip-rule="evenodd" d="M7.99984 1.66732C4.68613 1.66732 1.99984 4.35361 1.99984 7.66732C1.99984 9.42297 2.75332 11.0025 3.95657 12.1005L4.86177 11.1953C5.12211 10.9349 5.54423 10.9349 5.80457 11.1953C6.06492 11.4556 6.06492 11.8777 5.80457 12.1381L4.47059 13.4721C4.23585 13.7068 3.86415 13.7331 3.59874 13.5336C1.81946 12.1968 0.666504 10.0666 0.666504 7.66732C0.666504 3.61723 3.94975 0.333984 7.99984 0.333984C12.0499 0.333984 15.3332 3.61723 15.3332 7.66732C15.3332 10.0666 14.1802 12.1968 12.4009 13.5336C12.1355 13.7331 11.7638 13.7068 11.5291 13.4721L10.1951 12.1381C9.93475 11.8777 9.93475 11.4556 10.1951 11.1953C10.4554 10.9349 10.8776 10.9349 11.1379 11.1953L12.0431 12.1005C13.2464 11.0025 13.9998 9.42297 13.9998 7.66732C13.9998 4.35361 11.3135 1.66732 7.99984 1.66732Z" fill="#4DF2BE"/>
</svg>
