<svg width="20" height="20" viewBox="0 0 20 20" fill="none" xmlns="http://www.w3.org/2000/svg">
<path fill-rule="evenodd" clip-rule="evenodd" d="M4.375 4.99984C4.375 2.81371 6.14721 1.0415 8.33333 1.0415C10.5195 1.0415 12.2917 2.81371 12.2917 4.99984C12.2917 7.18596 10.5195 8.95817 8.33333 8.95817C6.14721 8.95817 4.375 7.18596 4.375 4.99984Z" fill="#8F8F8F"/>
<path fill-rule="evenodd" clip-rule="evenodd" d="M18.8668 11.0267C19.2204 11.3213 19.2682 11.8468 18.9735 12.2003L14.8069 17.2003C14.657 17.3802 14.4383 17.4887 14.2044 17.4993C13.9705 17.5099 13.743 17.4217 13.5774 17.2561L11.4941 15.1728C11.1686 14.8473 11.1686 14.3197 11.4941 13.9943C11.8195 13.6688 12.3472 13.6688 12.6726 13.9943L14.1107 15.4323L17.6931 11.1334C17.9878 10.7798 18.5133 10.732 18.8668 11.0267Z" fill="#8F8F8F"/>
<path d="M14.4957 13.0175L14.0265 13.5806L13.5563 13.1104C12.7427 12.2968 11.4236 12.2968 10.61 13.1104C9.79644 13.924 9.79644 15.2431 10.61 16.0567L11.8452 17.2918H1.6665C1.32133 17.2918 1.0415 17.012 1.0415 16.6668C1.0415 13.1 3.933 10.2085 7.49984 10.2085H9.1665C11.3791 10.2085 13.3319 11.3212 14.4957 13.0175Z" fill="#8F8F8F"/>
</svg>
