<svg width="16" height="16" viewBox="0 0 16 16" fill="none" xmlns="http://www.w3.org/2000/svg">
<path d="M11.5002 8.66667V4.5H7.3335C7.05736 4.49999 6.8335 4.27613 6.8335 4C6.83351 3.72386 7.05736 3.5 7.3335 3.5H12.0002C12.2762 3.50001 12.5001 3.72394 12.5002 4V8.66667C12.5002 8.94281 12.2763 9.16667 12.0002 9.16667C11.724 9.16666 11.5002 8.94281 11.5002 8.66667Z" fill="#DBDBDB"/>
<path d="M11.6464 3.64643C11.8417 3.4512 12.1582 3.45118 12.3535 3.64643C12.5487 3.84168 12.5487 4.1582 12.3535 4.35346L4.35348 12.3535C4.15822 12.5487 3.84171 12.5487 3.64645 12.3535C3.45118 12.1582 3.45119 11.8417 3.64645 11.6464L11.6464 3.64643Z" fill="#DBDBDB"/>
</svg>
